<?xml version="1.0" standalone="no"?>
<!DOCTYPE svg PUBLIC "-//W3C//DTD SVG 20010904//EN"
 "http://www.w3.org/TR/2001/REC-SVG-20010904/DTD/svg10.dtd">
<svg version="1.0" xmlns="http://www.w3.org/2000/svg"
 width="464.000000pt" height="735.000000pt" viewBox="0 0 464.000000 735.000000"
 preserveAspectRatio="xMidYMid meet">

<g transform="translate(0.000000,735.000000) scale(0.100000,-0.100000)"
fill="#2A1938" stroke="none">
<path d="M2151 7302 c-1 -15 -5 -21 -13 -16 -8 5 -9 -7 -4 -47 4 -30 9 -88 12
-129 4 -64 3 -72 -8 -54 -11 17 -17 18 -35 9 -15 -8 -19 -15 -12 -26 13 -20
11 -26 -9 -31 -20 -6 -30 -70 -33 -208 -1 -54 -4 -43 -15 65 -7 72 -16 137
-18 145 -4 14 -3 -28 9 -217 4 -64 -1 -48 -23 85 -16 89 -34 168 -41 175 -11
10 -12 6 -7 -18 3 -16 8 -57 10 -90 5 -59 5 -59 -18 30 -13 53 -25 84 -29 75
-4 -8 -4 1 -1 20 3 24 2 31 -4 21 -8 -11 -11 -10 -15 5 -3 10 -4 1 -2 -21 2
-22 2 -32 -1 -22 -3 9 -9 17 -14 17 -4 0 -6 10 -3 23 4 18 3 19 -7 7 -9 -12
-10 -8 -5 20 4 22 3 30 -3 22 -6 -9 -12 0 -21 29 -7 23 -16 37 -19 31 -4 -6
-16 8 -27 31 -20 42 -45 76 -45 61 0 -5 12 -46 26 -93 36 -116 53 -192 43
-185 -14 8 -11 -4 7 -31 11 -17 13 -29 6 -42 -7 -13 -7 -25 1 -38 6 -11 12
-37 13 -58 1 -21 7 -44 13 -51 9 -10 8 -15 -4 -20 -9 -3 -14 -2 -11 2 3 5 -2
9 -10 9 -10 0 -6 -10 14 -31 15 -17 35 -40 43 -50 12 -18 12 -19 -1 -11 -29
18 -43 15 -24 -6 27 -29 9 -23 -33 13 -38 32 -38 32 -12 3 14 -17 29 -38 32
-48 6 -15 4 -16 -16 -6 -19 10 -19 8 6 -18 15 -16 27 -38 27 -49 0 -10 11 -38
25 -62 13 -23 19 -39 12 -35 -6 4 -19 8 -29 8 -9 1 -36 14 -58 29 -23 15 -44
25 -47 22 -3 -3 6 -11 21 -17 17 -8 22 -15 15 -20 -8 -4 -5 -9 9 -13 17 -6
104 -105 145 -166 13 -19 -35 25 -71 65 -45 49 -95 95 -127 117 -16 11 -2 -6
32 -38 53 -51 221 -254 210 -254 -3 0 -38 39 -80 88 -41 48 -106 114 -144 147
-37 32 -59 49 -49 37 23 -26 15 -28 -21 -5 -14 10 9 -18 53 -62 113 -114 170
-185 149 -185 -16 0 -74 45 -170 129 -22 20 -7 2 34 -40 51 -54 69 -79 61 -84
-8 -5 -18 -2 -24 6 -6 8 -33 31 -61 53 l-50 38 40 -38 c22 -22 69 -65 103 -96
35 -32 60 -58 56 -58 -4 0 -44 20 -90 45 -54 30 -99 47 -131 50 l-48 5 55 -14
c30 -7 79 -27 108 -44 29 -18 57 -32 62 -32 5 0 14 -9 20 -20 6 -10 17 -17 24
-14 8 3 29 -9 48 -26 28 -27 29 -29 8 -19 -14 6 -31 16 -38 22 -17 13 -33 16
-158 23 -56 4 -104 3 -107 -2 -3 -5 37 -9 87 -9 60 0 98 -4 108 -13 9 -7 22
-10 30 -7 8 3 24 -2 34 -12 11 -10 14 -14 7 -9 -17 11 -88 19 -179 20 -61 0
-74 -3 -95 -23 -17 -17 -19 -22 -6 -18 14 5 17 1 16 -26 -1 -31 -1 -31 -10 -7
-6 19 -8 13 -6 -28 1 -38 -2 -52 -12 -52 -8 0 -11 7 -8 20 3 11 1 20 -3 20 -5
0 -11 13 -15 30 -8 36 -25 50 -25 20 0 -12 -4 -19 -9 -16 -5 4 -7 -4 -4 -16 4
-19 3 -20 -6 -8 -9 13 -11 12 -11 -3 0 -10 -5 -15 -10 -12 -10 6 -9 -5 7 -70
13 -55 10 -55 -18 0 -26 52 -33 45 -12 -12 4 -12 0 -10 -14 7 -23 29 -47 74
-58 110 -7 22 -6 23 9 11 9 -8 16 -9 16 -3 0 6 -13 20 -28 31 -16 11 -41 39
-57 63 -16 24 -40 56 -54 72 -28 31 -16 27 37 -12 46 -35 40 -10 -11 40 -23
24 -38 40 -33 36 18 -14 29 -8 16 7 -11 13 -10 14 6 9 10 -4 -2 14 -28 40 -27
26 -52 45 -57 42 -5 -4 -18 4 -28 16 -10 13 -31 32 -48 42 -16 11 -36 28 -43
38 -7 10 -18 16 -23 13 -5 -4 -12 1 -15 10 -4 9 -12 14 -19 11 -7 -2 -26 12
-41 32 -67 84 -148 173 -166 183 -16 9 -19 8 -12 -3 18 -27 32 -78 22 -78 -7
0 -7 -4 -1 -12 6 -7 9 -20 8 -30 -2 -9 12 -31 31 -49 18 -18 31 -36 28 -40 -2
-5 28 -40 68 -80 l73 -71 -101 76 c-98 74 -147 103 -85 50 17 -14 29 -29 26
-33 -2 -4 27 -34 65 -66 87 -72 95 -89 15 -30 -36 27 -75 48 -75 41 0 -3 40
-33 90 -68 49 -34 88 -64 85 -66 -2 -2 -29 10 -60 27 -31 17 -61 29 -67 25 -7
-4 -8 -3 -4 4 6 11 3 13 -19 12 -3 0 -19 7 -35 15 -54 28 -31 7 45 -41 41 -26
75 -49 75 -52 0 -2 -42 19 -94 47 -95 51 -152 70 -86 29 19 -13 36 -26 38 -30
2 -4 28 -21 58 -38 30 -17 54 -34 54 -36 0 -3 -6 -2 -12 1 -7 4 -2 -3 12 -14
28 -23 45 -27 34 -8 -4 7 -3 9 2 4 5 -5 9 -13 9 -19 0 -6 50 -38 112 -71 62
-34 111 -62 110 -64 -4 -4 -202 74 -249 98 -46 23 -64 19 -21 -6 26 -15 27
-15 3 -10 -19 5 -22 4 -10 -4 8 -6 23 -8 34 -5 11 4 16 2 12 -4 -3 -6 51 -32
127 -61 165 -65 208 -83 204 -87 -2 -2 -62 9 -133 25 -71 16 -169 37 -219 45
-49 9 -101 18 -115 21 -14 3 -7 -1 15 -9 27 -8 35 -15 25 -19 -8 -3 -4 -4 10
-2 14 3 61 -6 105 -19 44 -14 71 -25 60 -25 -11 -1 -49 8 -85 19 -36 11 -67
20 -70 20 -10 -1 66 -36 130 -60 l65 -25 -45 -5 c-44 -5 -44 -6 25 -14 69 -8
257 -64 275 -82 11 -11 3 -12 -150 -15 l-115 -2 99 -11 c62 -7 101 -16 104
-23 3 -10 -20 -13 -90 -13 -51 0 -100 -5 -108 -10 -12 -7 -8 -10 15 -11 17 0
39 -4 50 -9 15 -7 8 -9 -30 -11 l-50 -2 65 -9 c117 -17 121 -19 60 -34 -30 -7
-73 -11 -95 -8 -35 3 -36 3 -12 -5 15 -5 62 -13 105 -16 122 -12 149 -44 38
-46 -53 -1 -57 -2 -31 -10 17 -5 53 -7 80 -4 28 2 42 2 33 -1 -19 -6 -24 -19
-10 -27 4 -2 1 -2 -6 0 -20 5 -102 -18 -102 -29 0 -5 8 -4 19 2 29 15 104 12
127 -5 10 -8 15 -15 9 -15 -5 0 -4 -4 4 -9 11 -7 9 -10 -9 -16 -12 -4 -30 -14
-39 -23 -9 -10 -28 -25 -41 -35 -14 -10 -4 -7 22 7 46 26 78 33 78 19 0 -5
-23 -21 -50 -36 -28 -16 -50 -32 -50 -37 0 -5 19 2 43 15 51 30 57 30 57 5 0
-11 -6 -20 -12 -20 -10 0 -10 -2 0 -8 17 -11 2 -49 -32 -81 -14 -14 -26 -29
-26 -35 0 -6 7 0 16 12 8 12 22 22 31 22 12 0 14 -7 10 -35 -4 -24 -2 -33 5
-29 6 4 8 3 5 -3 -8 -13 -32 -7 -167 37 -158 51 -401 118 -475 130 -38 6 -140
24 -225 40 -85 16 -209 34 -275 40 -66 6 -142 16 -168 21 -63 12 -117 11 -117
-1 0 -5 12 -10 28 -11 15 0 56 -7 92 -14 l65 -14 -87 6 c-57 3 -88 2 -88 -5 0
-13 24 -22 68 -24 30 -1 26 -3 -18 -8 -38 -5 -46 -8 -25 -10 l30 -2 -30 -8
-30 -8 35 -1 c27 -1 31 -4 20 -11 -11 -7 -6 -10 20 -11 32 -1 33 -2 10 -9
l-25 -8 25 -2 c20 -2 16 -4 -14 -11 -58 -14 -59 -22 -1 -15 l50 6 -40 -14
c-34 -12 -36 -14 -15 -16 23 -1 23 -2 5 -10 -30 -13 -8 -11 69 5 38 8 71 13
74 11 2 -2 -12 -7 -30 -11 -41 -9 -141 -46 -136 -50 2 -2 55 11 118 30 63 19
116 32 118 30 2 -1 -40 -20 -93 -40 -52 -21 -106 -46 -118 -57 l-22 -19 32 16
c46 22 64 19 26 -5 -56 -34 -36 -30 49 9 46 21 98 38 116 38 25 0 29 -3 18 -9
-9 -5 -20 -6 -26 -3 -14 9 -160 -70 -160 -87 0 -4 22 6 49 22 53 33 78 40 45
12 -11 -9 -25 -30 -32 -45 -11 -27 -11 -27 11 -17 41 21 82 39 99 44 10 3 18
10 18 15 0 6 -8 8 -18 5 -14 -5 -14 -3 2 10 25 20 35 20 43 1 5 -14 8 -14 24
1 18 16 19 16 19 -4 0 -14 -8 -24 -24 -28 -15 -3 -33 -24 -51 -57 -16 -29 -24
-49 -20 -45 5 4 15 2 24 -4 9 -7 13 -9 9 -4 -4 5 6 20 22 34 17 15 30 32 30
38 0 7 14 17 31 23 40 14 39 14 39 -1 0 -7 -15 -23 -33 -35 -17 -13 -27 -23
-21 -23 7 0 17 7 24 15 7 8 16 15 20 15 5 0 51 25 104 55 109 63 146 74 165
51 8 -9 12 -18 10 -20 -2 -2 -31 -21 -64 -41 -33 -21 -64 -44 -68 -52 -4 -7
-15 -13 -24 -13 -23 0 -104 -53 -99 -65 2 -5 -4 -18 -12 -28 -9 -10 38 18 104
61 153 102 201 128 210 119 4 -4 -2 -14 -14 -23 -12 -8 -40 -30 -64 -49 -24
-19 -72 -52 -108 -74 -59 -35 -134 -101 -117 -101 4 0 40 24 80 53 67 50 105
71 217 119 69 30 90 38 90 33 0 -3 -49 -29 -108 -59 -59 -30 -114 -62 -122
-73 -14 -17 -14 -17 5 -2 11 9 69 39 130 68 101 48 111 51 122 35 18 -24 17
-30 -12 -52 -14 -11 -25 -23 -25 -26 0 -4 16 5 35 20 35 26 35 26 35 4 0 -19
2 -20 15 -10 8 7 15 24 15 37 l0 25 21 -23 20 -24 -11 23 c-10 20 -8 28 11 48
20 21 25 22 37 10 8 -8 11 -22 8 -34 -8 -23 -94 -103 -164 -152 -28 -19 -49
-37 -46 -39 2 -2 14 5 27 16 12 11 33 26 47 33 16 9 1 -13 -42 -62 -38 -42
-68 -79 -68 -82 0 -4 14 9 31 29 17 19 34 33 39 30 4 -2 16 5 26 17 11 12 13
18 5 13 -10 -6 -12 -4 -6 5 7 11 10 11 18 -2 8 -12 16 -8 45 26 75 86 129 139
172 169 l44 31 -48 -63 c-53 -69 -98 -116 -166 -175 -44 -38 -44 -38 -5 -11
l40 28 -31 -34 c-43 -49 -82 -112 -76 -127 2 -7 17 7 33 33 16 26 27 51 23 56
-3 5 -1 8 4 7 5 -2 78 56 163 127 191 163 221 181 109 65 -35 -36 -162 -181
-180 -205 -8 -11 7 2 33 29 26 27 50 47 53 43 4 -4 1 -15 -7 -25 -8 -10 5 3
28 28 23 25 42 49 43 55 0 5 -13 -6 -30 -25 -16 -19 -29 -30 -30 -24 0 13 55
66 62 59 3 -3 33 29 67 71 35 42 65 73 68 70 7 -7 -29 -63 -117 -181 -106
-143 -130 -178 -130 -189 0 -6 9 4 20 22 11 18 24 31 29 28 4 -3 47 52 94 122
48 70 97 141 111 157 43 51 30 5 -20 -73 -26 -41 -42 -77 -38 -83 4 -7 3 -9
-4 -5 -15 9 -26 -12 -13 -27 7 -9 6 -27 -4 -62 -21 -69 -17 -87 8 -35 26 53
77 140 83 140 2 0 -17 -38 -42 -85 -26 -48 -45 -88 -43 -90 3 -2 35 53 73 121
38 69 70 123 72 121 3 -3 -91 -228 -102 -245 -1 -2 -27 -6 -58 -8 -67 -5 -70
3 -26 64 32 44 37 58 18 46 -7 -4 -8 -3 -4 5 4 6 12 9 17 6 5 -4 9 -2 9 4 0
30 -23 13 -59 -45 -23 -36 -37 -62 -31 -59 5 3 10 -1 10 -10 0 -11 -5 -15 -15
-11 -8 3 -14 0 -12 -5 1 -6 -17 -17 -41 -24 -23 -7 -49 -18 -57 -25 -11 -9
-22 -6 -52 14 -21 14 -52 26 -69 26 -33 0 -94 -36 -102 -60 -3 -8 9 -2 27 13
37 31 54 34 49 11 -3 -18 -10 -22 -76 -50 -39 -16 -46 -16 -100 -1 -62 17
-118 12 -182 -18 -23 -11 -27 -14 -10 -10 107 24 122 26 162 17 l43 -9 -40 -7
c-97 -17 -235 -65 -235 -81 0 -3 13 1 29 10 17 8 55 17 87 19 l56 4 -47 -48
c-31 -31 -81 -65 -139 -94 -169 -85 -240 -126 -261 -148 l-20 -22 25 21 c14
12 39 25 55 28 17 4 39 9 50 12 19 5 -43 -44 -112 -88 -18 -12 -33 -23 -33
-25 0 -4 44 12 73 28 20 10 21 10 8 -5 -7 -10 -17 -17 -22 -17 -12 0 -112 -62
-121 -74 -13 -20 0 -17 52 9 64 32 75 27 20 -9 -22 -14 -40 -29 -40 -32 0 -4
11 1 23 9 13 9 41 23 62 31 37 16 38 16 22 -2 -9 -10 -17 -24 -17 -30 0 -7 -4
-12 -8 -12 -5 0 -31 -20 -58 -45 -27 -25 -45 -45 -40 -45 5 0 3 -6 -3 -13 -6
-8 32 8 84 35 52 27 95 47 95 45 0 -3 -31 -23 -68 -45 -38 -23 -75 -49 -83
-59 -11 -13 -5 -12 26 6 l40 24 -35 -31 c-19 -17 -38 -31 -42 -32 -5 0 -8 -5
-8 -10 0 -6 17 0 38 13 53 33 239 131 227 120 -5 -5 -54 -35 -107 -66 -101
-59 -143 -95 -67 -57 l44 22 -25 -27 -25 -28 32 17 c18 9 55 30 83 46 27 16
50 28 50 26 0 -3 -29 -25 -65 -50 -73 -53 -93 -76 -44 -51 l34 17 -30 -32
c-32 -35 -25 -33 40 10 55 36 76 46 40 18 -16 -12 -48 -40 -70 -61 l-40 -38
70 47 c39 26 86 59 105 74 53 40 71 46 25 9 -22 -19 -69 -62 -105 -97 l-65
-64 85 68 c122 97 124 97 30 -1 -54 -56 -70 -77 -44 -57 22 17 47 38 54 47 7
9 27 26 44 38 27 19 26 15 -12 -28 -68 -77 -71 -98 -4 -25 l60 65 -15 -69
c-15 -77 -14 -281 2 -281 15 1 34 119 37 230 l2 100 62 -126 c34 -70 67 -130
72 -133 6 -3 -11 35 -37 86 -49 98 -93 198 -86 198 2 0 27 -42 55 -92 28 -51
56 -102 63 -113 77 -126 76 -104 -2 29 -67 116 -104 186 -96 186 2 0 12 -14
20 -31 9 -17 19 -29 21 -26 3 3 -6 28 -20 56 -35 68 -26 65 13 -4 33 -58 37
-70 21 -60 -6 3 -10 3 -10 -1 0 -11 99 -186 121 -214 l19 -25 -9 25 c-5 14
-32 63 -60 109 -28 46 -51 89 -51 95 1 14 39 -35 40 -50 0 -14 30 -40 30 -27
0 5 -5 14 -12 21 -6 6 -9 14 -6 17 3 3 27 -30 53 -75 26 -44 52 -83 58 -87 18
-11 1 21 -66 130 -72 115 -140 237 -133 237 2 0 33 -45 68 -100 34 -55 86
-137 114 -182 l52 -81 -79 -106 c-43 -58 -96 -128 -117 -156 -22 -27 -42 -63
-46 -80 l-7 -30 26 30 c15 17 23 24 19 16 -5 -10 -3 -12 5 -7 7 5 10 15 7 23
-3 8 -2 12 3 8 5 -3 19 7 31 22 l22 28 -21 -38 c-12 -21 -19 -42 -16 -47 3 -5
-6 -29 -20 -54 -45 -81 -26 -63 29 27 68 112 78 121 33 32 -40 -80 -68 -145
-62 -145 2 0 25 40 51 90 27 49 50 88 51 86 5 -4 -29 -99 -43 -121 -11 -18
-69 -203 -81 -263 -3 -12 0 -29 7 -37 7 -9 10 -26 6 -42 -5 -21 -4 -24 4 -13
5 8 10 31 11 50 1 36 26 127 28 100 0 -8 -3 -44 -8 -80 -5 -36 -5 -84 -1 -105
7 -40 7 -39 15 25 6 45 10 59 15 45 7 -18 8 -18 13 5 3 14 10 66 16 115 23
198 23 198 33 184 7 -10 8 -3 4 21 -5 35 -5 35 9 10 11 -20 14 -21 15 -7 0 10
4 16 9 12 11 -6 16 9 27 80 l8 50 7 -65 6 -65 1 72 c1 39 6 75 12 78 6 4 8
-10 4 -38 -4 -26 -2 -53 5 -63 8 -15 11 5 12 86 l2 105 8 -99 c10 -117 17
-142 19 -66 l1 55 15 -47 c8 -27 16 -48 18 -48 2 0 2 21 0 48 l-4 47 15 -45
14 -45 -5 47 c-4 25 -3 57 1 70 7 19 13 9 37 -62 l28 -85 -4 65 c-3 36 -8 88
-11 115 l-5 50 19 -63 c23 -77 36 -92 28 -32 -3 25 -3 37 0 28 2 -10 9 -18 14
-18 6 0 7 -6 3 -12 -4 -7 -4 -10 1 -6 4 4 7 58 7 120 l0 113 12 -98 c8 -54 16
-100 20 -104 3 -3 7 41 7 98 1 92 2 99 11 59 20 -96 22 -98 28 -40 5 50 7 52
14 25 13 -48 14 -51 15 -27 1 12 5 22 11 22 5 0 7 25 3 64 -3 35 -2 81 2 102
7 38 8 38 18 14 5 -14 10 -68 10 -120 0 -87 0 -90 6 -30 5 59 7 62 14 31 4
-19 9 -32 12 -30 2 3 0 22 -5 44 -5 22 -9 56 -9 75 l0 35 24 -50 c15 -31 24
-69 24 -99 1 -27 4 -47 7 -43 4 3 6 40 6 82 -1 52 2 74 10 69 6 -4 8 -28 6
-60 -3 -31 -1 -51 5 -47 5 3 6 48 2 108 -5 71 -4 105 4 109 8 5 11 -27 12
-111 1 -96 3 -109 9 -68 5 28 9 77 9 110 1 40 4 55 10 46 5 -8 9 -37 9 -65 0
-28 4 -61 9 -73 5 -14 7 18 6 85 -1 58 3 113 8 122 7 11 8 9 3 -9 -4 -17 -3
-21 6 -16 9 6 9 3 1 -14 -13 -24 -6 -45 11 -35 8 5 9 1 5 -10 -4 -10 -10 -30
-13 -44 -4 -21 -3 -24 5 -12 8 11 11 4 11 -32 0 -27 4 -48 9 -48 5 0 20 -29
32 -64 23 -63 39 -77 39 -34 0 37 9 14 19 -51 6 -36 15 -69 21 -75 8 -8 9 -6
5 5 -4 10 -2 20 4 23 7 5 7 15 0 33 -10 27 -4 63 11 63 4 0 7 42 5 93 -2 83
-1 87 8 47 6 -26 12 -37 14 -27 3 9 9 14 15 11 7 -5 9 2 4 20 -5 19 -3 26 9
26 10 0 15 10 15 28 0 35 9 45 27 31 10 -9 13 -6 13 12 0 13 5 31 11 39 8 12
9 10 4 -7 -3 -12 -2 -24 3 -27 4 -3 8 27 7 66 -1 53 1 67 9 55 6 -8 17 -24 24
-34 7 -10 -1 8 -17 39 -17 32 -31 68 -31 80 0 15 10 3 29 -37 16 -33 30 -56
30 -52 1 4 -6 21 -14 37 -8 16 -12 37 -9 47 5 15 4 16 -6 3 -10 -13 -11 -13
-7 0 2 8 10 14 16 13 15 -4 14 -3 -10 62 -36 96 -14 71 32 -37 24 -57 50 -103
56 -103 7 0 19 -9 28 -20 8 -11 3 7 -11 40 -29 66 -57 155 -52 161 2 1 14 -28
27 -66 13 -38 28 -67 32 -64 5 3 3 17 -5 32 -7 15 -16 43 -19 62 -6 35 -6 35
8 10 17 -30 19 -24 4 19 -9 25 -14 30 -21 19 -6 -9 -7 -5 -3 11 5 16 4 21 -4
17 -7 -4 -9 -1 -5 8 3 8 0 24 -6 36 -6 12 -10 23 -8 25 2 2 26 -39 52 -91 59
-113 78 -126 24 -16 -20 42 -37 82 -38 87 0 6 28 -32 62 -83 33 -51 63 -91 65
-88 2 2 -5 19 -16 37 -11 19 -22 50 -25 69 -2 19 -9 50 -15 69 -6 19 -9 37 -7
39 6 6 32 -47 40 -82 4 -16 14 -39 23 -50 15 -20 15 -20 8 -1 -4 11 -9 36 -10
57 -2 20 -8 45 -14 56 -6 12 -11 27 -11 34 1 20 40 -32 40 -53 0 -10 4 -19 9
-19 5 0 13 -10 17 -22 7 -22 7 -22 15 -3 10 27 11 43 0 27 -9 -15 -45 67 -56
128 -12 65 -16 74 -27 59 -7 -10 -8 -8 -3 8 6 23 -15 112 -42 176 -9 20 -14
40 -11 42 7 7 76 -177 85 -225 8 -43 32 -101 33 -79 0 9 -5 31 -11 48 -8 22
-8 36 -2 42 7 7 16 -12 28 -55 10 -37 20 -64 22 -62 2 2 -1 24 -8 47 -6 24
-13 58 -14 74 -1 17 -5 44 -9 60 l-6 30 11 -28 c6 -15 14 -25 18 -23 4 3 5
-12 3 -32 -2 -28 -1 -33 7 -22 6 8 11 25 11 38 0 13 4 21 10 17 6 -4 6 -15 0
-31 -13 -33 -13 -74 0 -74 6 0 10 13 10 29 0 17 5 33 11 36 6 4 8 13 5 21 -3
8 -1 14 5 14 6 0 8 9 4 23 -7 22 -7 22 8 2 8 -12 14 -33 14 -47 -2 -22 -5 -24
-16 -15 -12 10 -13 9 -7 -8 5 -11 12 -36 16 -55 4 -19 8 -28 9 -20 1 9 8 4 17
-12 8 -16 19 -28 25 -28 6 0 5 9 -2 22 -19 35 -21 97 -4 94 8 -1 18 -6 22 -11
4 -4 2 -5 -6 0 -9 5 -12 3 -9 -6 3 -8 11 -13 17 -11 7 1 10 -2 6 -8 -3 -5 1
-24 9 -42 10 -23 14 -56 12 -105 -2 -40 1 -73 5 -73 5 0 9 -10 10 -22 1 -22 1
-22 9 2 7 20 8 16 10 -25 6 -147 15 -268 26 -380 3 -27 7 -77 9 -111 2 -33 14
-135 25 -225 33 -257 42 -571 30 -1114 -6 -264 -15 -536 -20 -605 -6 -69 -10
-215 -10 -325 0 -110 -7 -310 -15 -445 -8 -135 -14 -263 -14 -285 4 -90 -34
-315 -62 -367 -5 -10 -9 -24 -9 -32 0 -8 -9 -21 -21 -29 -16 -12 -20 -23 -17
-63 l3 -49 45 2 c25 1 95 5 155 9 82 4 127 2 174 -9 54 -13 67 -13 78 -2 19
20 16 32 -17 67 -33 34 -36 41 -50 138 -32 220 -39 402 -44 1220 -3 459 -10
907 -16 995 -5 88 -12 232 -15 320 -9 307 -18 436 -39 590 -8 55 -17 127 -21
160 -3 33 -8 74 -11 90 -2 17 -6 59 -9 95 -2 36 -7 102 -11 147 -5 66 -3 86
10 105 9 12 16 17 16 10 0 -7 4 -10 10 -7 6 3 10 1 10 -6 0 -9 3 -10 10 -3 8
8 7 19 0 39 -17 44 -3 41 20 -5 12 -23 24 -40 26 -37 3 3 1 13 -5 24 -6 10
-17 35 -26 57 -13 34 -13 37 0 26 23 -19 18 -4 -15 42 -31 42 -41 74 -16 48
23 -24 80 -125 62 -111 -34 29 -14 -7 27 -47 27 -26 44 -37 44 -28 0 8 -5 12
-10 9 -6 -3 -7 -1 -3 6 5 8 16 5 37 -9 16 -12 29 -19 29 -15 0 11 -34 59 -90
130 -95 117 -149 205 -127 205 6 1 22 9 35 20 l23 19 -26 44 c-14 25 -23 51
-20 60 4 8 1 18 -5 22 -16 10 28 55 54 55 17 0 18 2 6 10 -10 6 -11 10 -2 10
6 0 12 9 12 20 0 11 7 23 16 27 11 4 12 8 4 13 -8 5 0 16 26 34 21 14 42 26
46 26 14 0 9 -23 -9 -43 -18 -20 -18 -20 10 -2 15 9 27 14 27 9 0 -4 7 1 16
12 9 10 4 -3 -10 -30 -29 -55 -34 -71 -10 -38 13 18 19 21 30 11 19 -16 18
-35 -7 -86 -27 -55 -18 -69 10 -16 20 36 21 36 15 8 -4 -20 -3 -26 4 -17 14
21 25 -49 12 -82 -5 -15 -10 -37 -10 -49 1 -12 16 28 35 88 18 61 38 121 44
135 l10 25 0 -27 c1 -30 -15 -115 -31 -166 -5 -19 -7 -36 -4 -39 6 -6 7 -5 30
72 l16 50 -4 -110 c-2 -60 0 -99 4 -85 l8 25 2 -25 c2 -38 26 62 34 142 4 37
12 81 20 99 l13 31 6 -28 c3 -16 1 -31 -3 -34 -9 -5 -29 -204 -35 -330 l-2
-65 13 55 c8 30 18 91 24 135 12 95 58 273 59 232 1 -28 -18 -139 -45 -269
-21 -102 -15 -104 12 -3 l23 90 -5 -60 c-2 -33 -6 -82 -9 -110 -4 -49 -4 -49
5 -10 5 22 12 71 15 108 4 38 9 67 11 64 5 -4 -14 -253 -22 -282 -4 -15 -3
-16 4 -5 5 8 21 76 37 150 16 74 34 142 42 151 15 18 18 33 4 25 -4 -3 -6 6
-3 19 8 42 19 37 20 -10 0 -24 3 -54 7 -67 5 -19 4 -20 -5 -8 -9 12 -10 11 -5
-7 3 -13 -1 -61 -10 -109 -9 -47 -13 -95 -10 -107 14 -49 14 -61 -1 -32 -13
27 -14 27 -10 5 3 -14 6 -31 6 -39 0 -8 6 -11 15 -7 11 4 15 -2 16 -22 1 -19
3 -22 6 -8 4 15 7 16 14 5 6 -9 9 1 10 31 0 36 2 41 10 25 7 -16 8 -14 4 10
-3 17 10 87 30 165 l34 135 2 -70 c1 -51 3 -63 9 -45 8 25 8 24 9 -5 3 -100
35 -345 43 -331 6 10 5 37 -1 69 -6 28 -12 131 -14 227 -3 164 -3 171 9 110 7
-36 14 -87 15 -115 1 -35 3 -41 6 -20 4 24 10 13 30 -60 13 -49 34 -121 45
-160 11 -38 24 -88 28 -110 l7 -40 3 50 2 50 20 -73 c25 -85 35 -88 18 -5 -6
32 -15 80 -21 106 -5 27 -9 63 -8 80 1 22 5 11 14 -33 8 -36 22 -98 33 -139
18 -68 20 -71 26 -41 9 45 6 71 -4 40 -7 -18 -8 -11 -5 25 4 39 2 44 -5 25 -7
-18 -7 -12 -3 25 3 28 6 51 7 52 1 2 11 -43 21 -100 21 -114 31 -110 16 7 -5
42 -6 88 -2 102 6 22 9 15 23 -43 10 -37 20 -84 24 -103 4 -19 9 -30 11 -24 2
7 -3 42 -12 79 -8 38 -14 70 -11 72 2 2 16 -48 32 -112 15 -63 31 -110 35
-104 3 6 3 27 -2 48 -5 20 -8 50 -8 66 1 20 6 9 17 -35 8 -36 17 -59 19 -52 7
18 21 15 26 -5 3 -10 4 0 2 22 -1 22 0 32 2 23 2 -10 9 -18 14 -18 5 0 9 -8 9
-18 0 -10 8 -29 17 -42 31 -43 53 -93 53 -118 0 -13 4 -21 9 -18 5 4 13 -13
17 -36 4 -24 9 -37 11 -30 3 6 9 10 14 7 9 -6 15 16 22 70 2 17 5 1 6 -35 2
-65 4 -65 27 -5 6 16 9 10 14 -25 l7 -45 3 45 3 45 7 -40 7 -40 3 55 2 55 11
-55 c7 -42 11 -50 17 -35 7 19 8 18 12 -5 l5 -25 2 25 c2 25 2 25 16 -5 l14
-30 -4 30 c-4 28 -4 27 11 -7 9 -21 22 -38 29 -38 7 0 20 -10 29 -22 52 -72
68 -91 61 -73 -8 22 -14 75 -8 75 2 0 21 -11 43 -25 22 -14 40 -22 40 -19 0 4
8 0 18 -7 16 -13 16 -12 3 4 -17 21 -22 57 -11 72 5 6 8 15 9 20 0 14 -40 55
-53 55 -6 -1 3 -12 19 -25 17 -14 27 -25 23 -25 -13 0 -78 62 -73 70 3 4 -27
34 -65 65 -71 58 -97 88 -37 43 37 -28 186 -131 204 -142 9 -5 11 -2 7 8 -3 8
-30 31 -60 52 -57 39 -65 48 -36 37 15 -6 16 -5 2 12 -10 13 -2 10 26 -9 26
-17 48 -24 60 -20 16 5 16 4 4 -5 -18 -13 -1 -15 19 -2 11 7 10 11 -5 20 -12
6 -14 11 -5 11 11 0 11 3 1 15 -7 8 -9 15 -6 15 7 0 -49 50 -110 98 l-29 23
40 -22 c22 -13 51 -30 65 -38 22 -15 24 -15 18 1 -4 9 -29 52 -57 97 -28 44
-51 83 -51 85 0 5 41 -1 45 -6 37 -45 95 -120 108 -141 10 -16 21 -26 24 -23
4 3 13 0 21 -7 13 -10 14 -9 4 8 -24 42 -34 52 -26 25 7 -29 2 -26 -16 9 -8
15 -8 21 -1 17 13 -8 15 5 4 20 -5 6 9 -8 31 -30 l39 -41 -23 35 c-13 19 -33
46 -46 60 -20 23 -140 188 -158 218 -19 31 6 6 45 -45 38 -52 113 -140 192
-227 15 -17 27 -26 27 -21 0 6 5 3 11 -5 9 -13 10 -13 6 0 -2 8 -10 14 -16 12
-7 -1 -10 2 -7 7 4 5 -6 24 -21 43 -14 18 14 -9 63 -60 87 -90 123 -117 90
-67 -21 32 -20 41 2 24 14 -11 13 -10 -2 9 -20 23 -32 30 -20 10 4 -7 3 -8 -5
-4 -6 4 -8 12 -5 18 4 5 -16 33 -43 61 -27 29 -80 88 -118 132 -52 60 -26 38
106 -90 160 -157 167 -160 34 -16 -49 53 -49 54 -10 24 22 -17 80 -70 129
-118 49 -47 95 -89 101 -93 6 -4 40 -43 75 -86 35 -44 66 -74 68 -67 2 6 7 9
11 7 13 -9 -1 69 -16 86 -14 16 -14 17 6 13 l22 -4 -21 28 c-11 16 -43 53 -72
82 -29 29 -67 73 -84 97 -17 24 -41 50 -53 58 -11 8 -21 21 -21 29 0 24 -56
73 -129 111 -98 52 -198 117 -226 148 -12 14 -177 137 -257 192 -33 23 -52 41
-45 46 6 3 -5 9 -25 13 -20 4 -51 19 -69 35 -30 24 -32 30 -22 51 11 22 12 22
13 4 1 -14 8 -7 24 24 18 34 24 40 29 27 4 -10 3 -15 -3 -11 -6 3 -10 2 -10
-4 0 -5 4 -12 9 -15 5 -3 28 39 52 94 23 55 43 99 45 97 1 -1 -13 -47 -32
-102 -19 -55 -34 -102 -34 -105 1 -12 30 48 46 93 21 64 27 55 9 -13 -19 -73
-11 -76 11 -5 10 31 20 53 21 48 2 -5 -3 -31 -11 -58 -28 -90 -9 -58 27 47 20
57 36 94 36 83 1 -11 -10 -53 -24 -93 -14 -41 -25 -79 -24 -85 0 -7 13 24 29
68 28 76 35 67 16 -20 l-6 -30 11 29 c8 19 14 24 19 16 5 -8 12 8 18 41 l10
54 2 -55 3 -55 7 55 7 55 3 -80 3 -80 6 65 c6 63 6 64 14 27 4 -21 19 -54 33
-74 13 -20 24 -40 24 -44 0 -5 10 -31 22 -59 21 -49 22 -49 42 -32 20 16 20
16 7 -1 -16 -20 -3 -41 17 -28 10 6 3 27 -30 87 -27 51 -35 74 -23 64 17 -14
18 -13 12 5 -5 14 0 10 17 -10 14 -16 25 -34 25 -40 0 -5 -8 1 -19 15 -31 40
-23 13 10 -36 32 -46 55 -63 26 -19 -22 34 -20 42 6 19 16 -14 13 -6 -11 31
l-32 50 42 -45 42 -45 -28 40 c-16 22 -44 60 -63 85 -27 34 -15 25 48 -35 l84
-80 -64 75 c-35 41 -84 97 -109 124 -38 41 -31 37 39 -24 145 -126 148 -127
50 -26 l-95 99 75 -63 c100 -83 150 -116 95 -64 -22 22 -65 62 -96 89 -30 28
-46 43 -35 34 12 -9 57 -42 101 -73 79 -57 67 -41 -40 52 -47 41 -45 40 34
-13 120 -82 89 -49 -53 57 -124 93 -150 113 -106 87 102 -63 255 -143 242
-127 -10 13 -10 17 0 22 7 3 4 4 -8 1 -11 -3 -29 2 -40 11 -18 14 -18 15 5 4
17 -9 26 -9 34 -1 11 11 -2 16 -26 12 -5 -1 -6 3 -3 8 4 5 -34 33 -84 61 -49
29 -90 54 -90 56 0 3 17 -3 38 -12 66 -28 85 -35 89 -31 2 2 -39 26 -91 53
-52 27 -94 50 -93 51 1 1 54 -16 117 -38 63 -21 117 -39 120 -38 3 0 -11 9
-30 20 -26 15 -29 18 -10 13 14 -4 31 -9 38 -11 6 -3 12 -3 12 0 0 3 -38 20
-85 38 -47 18 -84 34 -82 36 3 2 42 -9 172 -51 11 -3 -7 8 -40 24 -33 17 -52
29 -42 25 89 -26 90 -14 2 15 -71 24 -85 36 -30 27 23 -4 33 -2 29 5 -4 7 5 8
27 3 29 -7 32 -6 21 8 -7 8 -28 18 -47 21 -19 4 -35 11 -35 16 0 4 10 6 23 4
15 -4 11 1 -13 14 -29 17 -31 20 -15 24 14 3 6 8 -25 17 -89 24 -88 26 3 27
68 1 80 -1 47 -6 -25 -4 -36 -8 -24 -8 12 -1 43 -5 69 -9 l47 -6 -6 34 c-3 19
-3 28 0 21 3 -6 11 -9 16 -6 6 4 8 2 5 -3 -4 -6 0 -13 8 -17 9 -3 15 0 15 10
0 10 10 6 33 -15 17 -17 35 -31 40 -31 4 0 29 -15 55 -33 59 -42 84 -54 55
-29 -26 23 -31 47 -8 38 8 -3 15 -1 15 4 0 5 7 7 15 4 8 -4 15 -3 15 0 0 3
-27 19 -60 36 -33 17 -60 33 -60 35 0 3 9 1 21 -5 11 -7 27 -9 35 -6 9 4 12 2
8 -5 -4 -7 0 -9 12 -5 11 3 26 1 34 -5 11 -8 9 -9 -10 -3 -29 8 -25 2 10 -16
14 -7 22 -9 18 -5 -4 5 -3 14 2 20 7 9 -2 17 -36 30 -35 13 -43 20 -33 27 10
7 5 8 -16 4 -22 -5 -26 -4 -15 4 12 8 13 10 1 10 -8 0 -12 2 -10 5 3 2 27 -2
54 -10 33 -10 52 -12 59 -5 7 7 4 10 -10 10 -15 0 -16 2 -4 10 23 14 4 23 -22
9 l-23 -12 20 22 19 22 -29 -6 c-25 -5 -27 -4 -13 5 14 9 15 14 6 24 -7 7 -22
11 -33 9 -16 -4 -16 -2 5 11 29 18 26 19 -18 7 -37 -11 -43 -5 -9 10 17 7 13
8 -20 4 -61 -8 -53 1 15 16 l57 12 -50 12 c-30 8 -40 13 -26 14 35 2 17 14
-19 13 -17 0 -28 4 -25 9 4 5 -11 10 -32 11 -35 1 -35 2 12 8 l50 7 -60 2
c-38 1 -55 4 -46 10 11 7 11 10 0 15 -8 3 4 4 26 1 31 -4 35 -3 18 5 -13 5
-51 9 -85 9 -64 -1 -118 13 -118 30 0 5 6 12 13 14 22 9 -246 7 -313 -3 -36
-5 -113 -14 -172 -20 -134 -13 -357 -59 -507 -104 l-114 -34 -39 24 c-21 14
-48 34 -59 45 l-21 21 22 -7 c15 -5 20 -3 16 3 -4 7 4 8 26 1 47 -13 53 -11
28 9 -13 10 -21 24 -19 31 3 9 21 3 62 -18 31 -16 57 -28 57 -26 0 3 -24 20
-52 40 -29 19 -46 35 -38 35 11 1 10 4 -4 15 -20 15 -20 15 0 15 10 -1 30 -7
44 -15 14 -8 32 -14 40 -14 9 0 6 4 -8 12 -18 10 -20 15 -10 25 11 11 9 12 -6
6 -13 -5 -17 -4 -12 4 3 6 -3 13 -15 17 -11 4 -18 9 -16 11 2 3 23 -2 46 -9
22 -8 41 -11 41 -6 0 5 -14 12 -30 16 -17 3 -33 10 -36 14 -3 5 -9 7 -13 4 -5
-2 -16 4 -26 15 -23 26 -18 25 55 -6 62 -27 83 -27 60 1 -14 17 -14 17 14 32
17 9 15 12 -20 23 -21 7 -44 16 -50 21 -6 5 -13 7 -16 4 -3 -3 -11 2 -19 12
-12 15 -12 16 1 8 8 -5 21 -10 30 -10 8 -1 32 -7 52 -14 28 -9 42 -9 55 -1 15
9 14 10 -7 4 -24 -6 -24 -6 -5 9 11 9 31 14 45 11 l25 -5 -25 15 -25 14 30 8
30 8 -45 13 c-44 12 -44 13 -5 6 22 -4 52 -7 67 -6 15 0 25 -3 23 -7 -2 -4 8
-5 23 -2 l27 5 -35 13 c-19 7 -28 13 -20 13 8 0 33 -6 55 -14 68 -25 63 -16
-10 20 -38 20 -60 33 -47 30 12 -3 32 -7 45 -10 12 -3 -2 4 -31 16 -56 23 -66
36 -14 18 47 -16 135 17 90 34 -7 3 7 3 31 2 34 -2 47 -8 52 -23 8 -21 27 -37
35 -29 3 2 -3 13 -13 23 -17 17 -17 18 2 10 11 -4 25 -9 30 -10 6 -1 16 -6 24
-10 11 -7 13 -5 8 7 -9 24 9 31 25 10 7 -10 24 -27 38 -38 l24 -20 -25 35
c-44 60 -43 63 7 35 47 -26 37 -9 -16 26 -21 14 -22 16 -6 22 9 4 15 3 12 -2
-6 -10 24 -25 32 -16 3 3 0 5 -7 5 -7 0 -10 4 -7 9 4 5 -14 17 -39 27 -60 22
-52 27 15 9 60 -16 86 -18 55 -5 -14 6 -16 9 -5 10 8 1 2 8 -15 15 -30 14 -30
14 -5 16 17 1 10 5 -25 15 l-50 13 50 -5 c28 -3 61 0 75 6 22 9 20 10 -15 6
-39 -5 -39 -5 -15 9 24 13 24 14 -25 17 -48 4 -47 5 15 7 85 3 53 19 -45 22
l-70 2 55 6 c41 5 49 8 30 12 -20 5 -17 7 15 8 31 2 35 4 20 10 -11 5 -33 4
-50 0 -40 -12 -58 -11 -50 1 3 6 15 10 26 10 11 0 17 5 14 10 -3 6 -2 10 4 10
5 0 11 -6 14 -12 3 -9 8 -10 16 -2 8 7 -4 29 -44 79 -30 38 -52 71 -50 74 3 2
-3 13 -12 24 -21 24 -18 22 80 -40 37 -24 67 -41 67 -38 0 3 -35 30 -77 61
-98 72 -108 81 -58 56 83 -41 87 -31 5 13 -47 25 -78 44 -70 42 8 -2 57 -16
109 -31 75 -22 96 -25 102 -14 11 17 -3 24 -128 58 -93 26 -100 29 -53 25 30
-3 73 -8 95 -11 38 -6 39 -6 20 9 -11 9 -31 17 -45 18 l-25 1 25 7 c21 6 18 8
-24 14 -27 4 -70 8 -95 8 -25 1 0 6 57 10 159 13 190 27 67 29 -67 1 -92 5
-75 10 14 4 40 8 58 9 59 2 23 21 -41 22 l-62 1 63 15 c46 11 61 18 53 26 -8
8 -35 8 -98 -1 -55 -7 -101 -8 -123 -3 -19 5 -27 9 -18 10 36 2 11 26 -32 31
l-45 6 35 11 35 11 -40 2 -40 2 42 11 c63 18 60 24 -10 16 -72 -9 -83 -5 -37
15 21 8 28 15 19 19 -10 3 -6 8 11 16 23 10 21 10 -15 8 -22 -2 -47 -7 -55
-12 -9 -5 -7 0 4 13 20 23 32 30 21 12 -3 -5 -1 -10 4 -10 18 0 12 19 -8 30
-15 7 -23 6 -35 -6 -9 -8 -16 -11 -16 -5 0 5 -12 24 -27 42 -16 18 -27 34 -25
36 7 10 0 23 -14 23 -8 0 -22 7 -31 15 -8 8 -19 13 -24 10 -5 -4 -19 1 -31 10
-22 15 -21 16 27 11 28 -3 65 -10 83 -15 20 -6 42 -6 55 -1 22 9 22 9 -3 10
l-25 2 25 8 c25 8 25 8 -5 10 l-30 3 35 7 c30 6 31 8 10 10 -24 2 -24 3 5 10
l30 8 -30 2 c-27 1 -28 2 -10 11 16 7 12 8 -15 4 l-35 -4 35 19 c19 10 28 19
20 20 -13 0 -13 1 0 10 19 12 8 13 -24 1 -22 -9 -24 -8 -21 10 3 14 0 19 -9
16 -14 -6 -16 9 -3 29 10 17 -18 25 -34 11 -11 -10 -11 -9 0 5 7 10 17 16 21
13 4 -3 14 3 21 13 13 16 13 16 -5 2 -18 -14 -19 -13 -13 5 4 12 -9 3 -33 -22
-23 -24 -43 -43 -46 -43 -7 0 45 69 90 120 17 19 24 29 16 23 -7 -7 -18 -13
-23 -13 -4 0 -5 6 -1 13 4 6 -5 1 -19 -12 -28 -25 -37 -48 -14 -35 7 4 9 3 4
-2 -5 -5 -12 -9 -15 -9 -4 0 -14 -4 -21 -9 -9 -6 -7 2 6 20 11 16 22 41 25 56
4 23 3 26 -12 18 -9 -5 -34 -34 -55 -65 -21 -30 -40 -55 -42 -55 -2 0 8 23 22
51 l26 50 -25 -16 c-15 -10 -23 -22 -19 -31 3 -9 0 -14 -8 -12 -8 2 -48 -66
-103 -174 -50 -98 -92 -175 -94 -173 -3 2 -17 -4 -32 -15 -36 -26 -43 -25 -29
3 8 14 -4 7 -34 -20 -50 -46 -63 -53 -53 -27 4 9 -8 1 -26 -17 -18 -19 -31
-38 -29 -44 1 -5 -3 -5 -10 2 -9 9 -7 18 8 40 30 43 37 57 27 50 -6 -3 -25
-28 -44 -56 -19 -28 -41 -53 -47 -56 -18 -6 -16 30 4 68 15 30 15 31 -1 18
-15 -13 -16 -12 -7 12 6 14 22 49 36 76 26 53 27 72 1 24 -20 -36 -20 -13 -1
34 17 40 19 55 5 33 -6 -10 -8 3 -4 40 l5 55 -25 -45 c-14 -25 -25 -52 -26
-60 0 -8 -9 -33 -20 -55 l-20 -40 5 42 c3 23 7 50 10 60 3 10 -2 5 -10 -12
l-16 -30 5 40 5 40 -14 -35 -15 -35 4 31 c3 18 7 45 10 60 3 16 -2 8 -11 -18
-9 -27 -20 -48 -25 -48 -5 0 -4 9 2 20 6 11 8 25 5 30 -3 5 1 39 10 75 17 74
20 120 6 95 -5 -8 -12 -33 -16 -55 -7 -37 -9 -38 -15 -15 -4 14 -6 57 -4 95
l3 70 -12 -60 -13 -60 -8 53 c-4 29 -5 56 -2 59 3 4 6 -9 6 -27 0 -18 3 -31 6
-27 4 3 3 27 -1 52 -3 26 -8 45 -11 43 -2 -3 -10 -42 -18 -89 l-14 -84 -2 95
-2 95 -9 -59 c-10 -71 -19 -84 -19 -29 0 22 -3 69 -7 104 l-7 64 -12 -45 c-9
-33 -12 -38 -14 -20 -1 14 -5 34 -10 45 -8 19 -9 19 -9 -3z m-324 -144 c-3 -8
-6 -5 -6 6 -1 11 2 17 5 13 3 -3 4 -12 1 -19z m1195 -30 c-7 -7 -12 -8 -12 -2
0 14 12 26 19 19 2 -3 -1 -11 -7 -17z m-1115 -120 c-3 -8 -6 -5 -6 6 -1 11 2
17 5 13 3 -3 4 -12 1 -19z m192 -121 c1 -30 -3 -46 -9 -42 -5 3 -10 36 -9 73
1 77 16 51 18 -31z m333 -9 c-8 -8 -9 -4 -5 13 4 13 8 18 11 10 2 -7 -1 -18
-6 -23z m-455 -30 c-3 -7 -5 -2 -5 12 0 14 2 19 5 13 2 -7 2 -19 0 -25z m933
-58 c-8 -5 -19 -10 -25 -10 -5 0 -3 5 5 10 8 5 20 10 25 10 6 0 3 -5 -5 -10z
m-823 -62 c-2 -13 -4 -5 -4 17 -1 22 1 32 4 23 2 -10 2 -28 0 -40z m952 18
c32 -33 37 -66 11 -66 -6 0 -9 -4 -6 -9 3 -4 -4 -17 -15 -27 -18 -16 -19 -16
-13 -1 3 9 9 17 13 17 4 0 7 9 8 19 1 17 -4 19 -30 16 -18 -2 -59 -13 -91 -25
-77 -26 -83 -24 -21 6 46 22 47 24 15 18 -19 -4 -48 -8 -65 -9 -29 -2 -29 -2
-7 13 12 8 22 21 22 29 0 18 75 52 116 53 21 0 40 -10 63 -34z m-363 -34 c-12
-26 -30 -45 -52 -55 -19 -10 -34 -12 -34 -6 0 13 92 111 98 104 3 -3 -3 -22
-12 -43z m-566 -112 c-10 -23 -10 -22 -5 9 3 18 6 48 7 65 1 25 2 23 5 -9 2
-23 -1 -52 -7 -65z m490 97 c0 -1 -24 -25 -52 -52 -29 -28 -42 -37 -28 -22 19
22 22 30 11 36 -9 6 -10 11 -2 15 6 4 15 5 20 2 4 -3 17 1 27 9 20 15 24 17
24 12z m-699 -54 c13 -16 12 -17 -3 -4 -22 17 -23 8 -2 -24 9 -14 14 -25 10
-25 -11 0 -38 49 -31 60 8 13 10 13 26 -7z m186 -15 c-3 -7 -5 -2 -5 12 0 14
2 19 5 13 2 -7 2 -19 0 -25z m548 6 c-34 -26 -55 -36 -55 -25 0 11 48 40 65
40 6 0 1 -7 -10 -15z m-179 -21 c-16 -31 -56 -80 -56 -69 0 9 59 96 66 96 2 0
-2 -12 -10 -27z m104 13 c0 -3 -14 -20 -31 -38 -34 -35 -30 -18 4 20 20 22 27
26 27 18z m3 -41 c-3 -9 -8 -14 -10 -11 -3 3 -2 9 2 15 9 16 15 13 8 -4z m37
1 c0 -2 -8 -10 -17 -17 -16 -13 -17 -12 -4 4 13 16 21 21 21 13z m-65 -36 c-4
-12 -9 -19 -12 -17 -3 3 -2 15 2 27 4 12 9 19 12 17 3 -3 2 -15 -2 -27z m-378
-2 c-3 -8 -6 -5 -6 6 -1 11 2 17 5 13 3 -3 4 -12 1 -19z m284 -19 c-6 -16 -10
-18 -10 -7 -1 22 12 55 16 42 2 -6 -1 -22 -6 -35z m-24 -31 c-3 -7 -5 -2 -5
12 0 14 2 19 5 13 2 -7 2 -19 0 -25z m940 -4 c-3 -3 -12 -4 -19 -1 -8 3 -5 6
6 6 11 1 17 -2 13 -5z m-1467 -166 c35 -40 47 -57 26 -38 -38 35 -101 110 -93
110 2 0 33 -33 67 -72z m1675 -18 c13 -5 14 -9 5 -9 -8 0 -24 4 -35 9 -13 5
-14 9 -5 9 8 0 24 -4 35 -9z m-161 -102 c33 -52 34 -77 2 -65 -9 4 -21 18 -26
32 -5 14 -15 25 -22 25 -10 0 -10 2 -1 8 8 5 9 13 3 22 -13 20 -12 30 0 30 6
0 25 -24 44 -52z m-1502 -9 c12 -15 25 -26 29 -23 4 2 10 0 13 -5 13 -21 -24
-3 -65 31 -33 28 -38 36 -21 31 13 -3 33 -18 44 -34z m58 5 c0 -2 -9 0 -20 6
-11 6 -20 13 -20 16 0 2 9 0 20 -6 11 -6 20 -13 20 -16z m90 -141 c0 -8 -9 0
-50 45 l-45 47 48 -45 c26 -24 47 -45 47 -47z m1408 57 c11 -17 10 -20 -7 -20
-19 0 -35 23 -24 34 10 10 18 7 31 -14z m-818 -4 c0 -2 -8 -10 -17 -17 -16
-13 -17 -12 -4 4 13 16 21 21 21 13z m-845 -36 c15 -6 6 -9 -32 -9 -29 -1 -53
4 -53 9 0 12 57 12 85 0z m1315 0 c0 -5 -9 -10 -20 -10 -11 0 -20 5 -20 10 0
6 9 10 20 10 11 0 20 -4 20 -10z m370 6 c0 -3 -4 -8 -10 -11 -5 -3 -10 -1 -10
4 0 6 5 11 10 11 6 0 10 -2 10 -4z m-1516 -66 c25 -19 46 -35 46 -36 0 -3
-172 85 -179 92 -3 2 16 -2 41 -10 26 -7 67 -28 92 -46z m-287 3 c-3 -10 -5
-4 -5 12 0 17 2 24 5 18 2 -7 2 -21 0 -30z m73 17 c0 -16 -7 -20 -30 -20 -23
0 -30 4 -30 20 0 16 7 20 30 20 23 0 30 -4 30 -20z m173 -36 c37 -24 67 -46
67 -49 0 -2 -32 11 -72 30 -48 23 -87 35 -115 35 -40 0 -56 14 -37 32 16 17
95 -8 157 -48z m128 -21 c8 -10 -4 -3 -27 14 -22 18 -47 40 -55 50 -8 10 4 3
27 -14 22 -18 47 -40 55 -50z m10 20 c13 -16 12 -17 -3 -4 -10 7 -18 15 -18
17 0 8 8 3 21 -13z m-354 -30 c-3 -10 -5 -4 -5 12 0 17 2 24 5 18 2 -7 2 -21
0 -30z m173 12 c38 -21 40 -24 15 -19 -16 4 -38 11 -48 16 -10 5 -28 6 -40 2
-20 -6 -18 -9 18 -25 l40 -18 -52 0 c-52 -1 -53 0 -53 27 0 16 3 32 7 35 14
14 70 5 113 -18z m-193 -22 c-3 -10 -5 -4 -5 12 0 17 2 24 5 18 2 -7 2 -21 0
-30z m53 7 c0 -16 -4 -30 -10 -30 -5 0 -10 14 -10 30 0 17 5 30 10 30 6 0 10
-13 10 -30z m-70 -7 c0 -22 -2 -25 -10 -13 -13 20 -13 40 0 40 6 0 10 -12 10
-27z m180 7 c18 -12 2 -12 -25 0 -13 6 -15 9 -5 9 8 0 22 -4 30 -9z m110 -26
c0 -2 -7 -4 -15 -4 -8 0 -15 4 -15 10 0 5 7 7 15 4 8 -4 15 -8 15 -10z m-595
-45 c40 -15 43 -18 15 -13 -19 4 -60 15 -90 25 -48 16 -50 17 -15 12 22 -3 63
-14 90 -24z m285 15 c0 -8 -4 -12 -10 -9 -5 3 -10 10 -10 16 0 5 5 9 10 9 6 0
10 -7 10 -16z m193 9 c-13 -2 -33 -2 -45 0 -13 2 -3 4 22 4 25 0 35 -2 23 -4z
m84 -19 c-3 -3 -12 -4 -19 -1 -8 3 -5 6 6 6 11 1 17 -2 13 -5z m138 -12 c-3
-3 -11 0 -18 7 -9 10 -8 11 6 5 10 -3 15 -9 12 -12z m1315 -25 c0 -4 -11 0
-25 9 -14 9 -25 20 -25 26 0 11 49 -23 50 -35z m-79 13 c13 -10 18 -19 12 -20
-7 0 -13 4 -13 8 0 5 -10 14 -22 20 -13 6 -18 11 -12 11 7 1 22 -8 35 -19z
m256 14 c-3 -3 -12 -4 -19 -1 -8 3 -5 6 6 6 11 1 17 -2 13 -5z m-1727 -64 c0
-17 -15 -18 -43 -4 -22 12 -26 18 -17 24 13 8 60 -7 60 -20z m210 10 c8 -5 11
-10 5 -10 -5 0 -17 5 -25 10 -8 5 -10 10 -5 10 6 0 17 -5 25 -10z m-30 -10 c8
-5 11 -10 5 -10 -5 0 -17 5 -25 10 -8 5 -10 10 -5 10 6 0 17 -5 25 -10z m1267
-6 c-3 -3 -12 -4 -19 -1 -8 3 -5 6 6 6 11 1 17 -2 13 -5z m-1500 -10 c-3 -3
-12 -4 -19 -1 -8 3 -5 6 6 6 11 1 17 -2 13 -5z m218 -18 c19 -8 35 -18 35 -21
0 -5 -70 21 -79 30 -8 9 10 5 44 -9z m-185 -4 c0 -14 -23 -32 -42 -32 -18 0
-25 20 -11 33 9 10 53 9 53 -1z m1460 -2 c-8 -5 -22 -9 -30 -9 -10 0 -8 3 5 9
27 12 43 12 25 0z m-1303 -36 c-3 -3 -12 -4 -19 -1 -8 3 -5 6 6 6 11 1 17 -2
13 -5z m-193 -19 c-4 -8 -10 -15 -15 -15 -5 0 -9 7 -9 15 0 8 7 15 15 15 9 0
12 -6 9 -15z m-441 -2 c-18 -2 -48 -2 -65 0 -18 2 -4 4 32 4 36 0 50 -2 33 -4z
m667 -40 c3 -3 -13 -3 -35 0 -22 4 -53 7 -68 7 -24 0 -26 2 -17 20 10 19 11
19 63 -1 28 -11 54 -23 57 -26z m-636 9 c3 -5 -8 -6 -25 -4 -16 2 -29 6 -29 8
0 8 49 4 54 -4z m573 -18 c-3 -3 -12 -4 -19 -1 -8 3 -5 6 6 6 11 1 17 -2 13
-5z m1083 -34 c8 -5 11 -10 5 -10 -5 0 -17 5 -25 10 -8 5 -10 10 -5 10 6 0 17
-5 25 -10z m67 4 c-3 -3 -12 -4 -19 -1 -8 3 -5 6 6 6 11 1 17 -2 13 -5z m-160
-10 c-3 -3 -12 -4 -19 -1 -8 3 -5 6 6 6 11 1 17 -2 13 -5z m-42 -154 c8 -13
-5 -13 -25 0 -13 8 -13 10 2 10 9 0 20 -4 23 -10z m12 -25 c20 -8 34 -18 31
-20 -3 -3 -25 4 -49 15 -51 23 -36 27 18 5z m-160 -21 c-3 -3 -12 -4 -19 -1
-8 3 -5 6 6 6 11 1 17 -2 13 -5z m138 -34 c3 -6 -1 -7 -9 -4 -18 7 -21 14 -7
14 6 0 13 -4 16 -10z m-17 -18 c8 -6 2 -9 -18 -9 -20 0 -26 3 -18 9 7 4 15 8
18 8 3 0 11 -4 18 -8z m602 -22 c0 -5 -2 -10 -4 -10 -3 0 -8 5 -11 10 -3 6 -1
10 4 10 6 0 11 -4 11 -10z m30 0 c0 -5 -2 -10 -4 -10 -3 0 -8 5 -11 10 -3 6
-1 10 4 10 6 0 11 -4 11 -10z m-800 -20 c10 -6 11 -10 3 -10 -15 0 -13 -21 2
-32 6 -5 3 -8 -7 -8 -9 0 -20 5 -23 10 -3 6 -1 10 4 10 13 0 10 22 -4 32 -15
12 7 10 25 -2z m1527 -6 c-3 -3 -12 -4 -19 -1 -8 3 -5 6 6 6 11 1 17 -2 13 -5z
m-1477 -14 c0 -5 -2 -10 -4 -10 -3 0 -8 5 -11 10 -3 6 -1 10 4 10 6 0 11 -4
11 -10z m731 -7 c13 -16 12 -17 -3 -4 -17 13 -22 21 -14 21 2 0 10 -8 17 -17z
m-612 -51 c23 -16 23 -16 2 -24 -12 -4 -29 -4 -38 -1 -11 4 -14 3 -9 -5 11
-18 -6 -14 -39 9 -27 19 -20 19 24 1 9 -3 12 -1 7 6 -9 16 7 15 22 0 6 -6 14
-9 18 -6 7 8 -74 50 -84 44 -4 -2 -8 4 -8 14 0 17 2 17 41 -2 22 -12 51 -28
64 -36z m651 33 c14 -19 14 -19 -2 -6 -10 7 -18 18 -18 24 0 6 1 8 3 6 1 -2 9
-13 17 -24z m-1413 -1 c-3 -3 -12 -4 -19 -1 -8 3 -5 6 6 6 11 1 17 -2 13 -5z
m840 -17 c11 -10 10 -13 -6 -14 -11 -1 -27 7 -36 17 -17 19 -16 19 6 15 12 -3
29 -10 36 -18z m-749 -11 c1 -22 -1 -23 -32 -16 -58 13 -65 24 -21 31 22 3 42
7 45 8 3 0 7 -10 8 -23z m549 -6 c-1 -21 -10 -18 -13 5 -1 8 2 15 6 15 5 0 8
-9 7 -20z m58 2 c-3 -3 -11 0 -18 7 -9 10 -8 11 6 5 10 -3 15 -9 12 -12z m366
1 c13 -17 13 -17 -6 -3 -11 8 -22 16 -24 17 -2 2 0 3 6 3 6 0 17 -8 24 -17z
m-1020 -24 c56 -24 54 -35 -7 -43 -38 -6 -41 -5 -57 29 -21 43 -10 46 64 14z
m623 -36 c10 -24 -19 -13 -59 22 l-40 36 47 -23 c26 -13 49 -29 52 -35z m916
13 c0 -12 -5 -7 -19 24 -11 24 -11 24 3 6 9 -11 16 -24 16 -30z m-3065 16 c-3
-3 -11 0 -18 7 -9 10 -8 11 6 5 10 -3 15 -9 12 -12z m2586 1 c13 -16 12 -17
-3 -4 -10 7 -18 15 -18 17 0 8 8 3 21 -13z m-2614 -10 c2 -6 -17 -18 -43 -27
-43 -15 -45 -14 -33 2 21 26 31 31 47 24 11 -4 13 -1 7 8 -5 8 -3 11 5 8 8 -2
15 -9 17 -15z m2977 1 c5 -14 4 -15 -9 -4 -17 14 -19 20 -6 20 5 0 12 -7 15
-16z m362 -11 c-10 -10 -19 5 -10 18 6 11 8 11 12 0 2 -7 1 -15 -2 -18z
m-1898 -8 c-3 -3 -9 2 -12 12 -6 14 -5 15 5 6 7 -7 10 -15 7 -18z m-106 -18
c-18 -18 -30 -36 -27 -39 4 -3 1 -9 -6 -14 -8 -4 -10 -3 -5 4 12 20 0 13 -20
-10 -15 -19 -16 -20 -1 -9 21 17 22 8 1 -27 -13 -21 -10 -19 15 8 19 22 31 29
31 20 0 -16 40 38 40 55 0 6 -9 -3 -20 -20 -11 -16 -20 -25 -20 -20 1 16 29
49 45 51 15 2 13 -20 -6 -74 -6 -14 -5 -21 1 -17 5 3 12 21 16 40 3 19 10 35
15 35 14 0 59 -98 53 -114 -7 -18 -17 -19 -61 -7 -25 7 -33 6 -37 -6 -10 -26
-7 -31 16 -25 21 5 21 6 2 13 -11 4 5 6 38 5 74 -3 80 -10 24 -25 -25 -6 -48
-15 -51 -21 -8 -13 -8 -13 40 5 62 22 75 17 25 -10 -25 -13 -41 -24 -37 -25 4
0 22 7 39 16 30 15 32 15 45 -2 17 -23 16 -24 -7 -54 -19 -25 -19 -25 -34 -5
-17 22 -20 35 -8 35 5 0 17 7 28 16 10 8 -9 1 -43 -17 -35 -17 -63 -38 -63
-47 0 -9 6 -7 20 9 l19 24 -1 -37 -1 -37 -28 20 c-16 11 -32 25 -36 32 -5 7
-35 32 -68 56 -33 24 -60 45 -61 45 -1 1 -4 13 -8 28 -5 22 2 35 47 84 44 49
100 94 116 94 3 0 -10 -15 -27 -33z m-1638 5 c3 -5 -1 -9 -9 -9 -8 0 -15 4
-15 9 0 4 4 8 9 8 6 0 12 -4 15 -8z m204 -10 c6 -18 -15 -14 -22 4 -4 10 -1
14 6 12 6 -2 14 -10 16 -16z m622 11 c0 -5 -4 -15 -10 -23 -11 -18 -25 -7 -17
15 6 15 27 21 27 8z m-670 -22 c0 -18 -27 -37 -38 -26 -5 4 26 45 35 45 1 0 3
-9 3 -19z m91 -6 c-24 -14 -46 -23 -49 -20 -6 6 -6 6 38 27 54 25 60 21 11 -7z
m335 -2 c-7 -7 -26 7 -26 19 0 6 6 6 15 -2 9 -7 13 -15 11 -17z m1574 17 c0
-5 -7 -7 -15 -4 -8 4 -15 8 -15 10 0 2 7 4 15 4 8 0 15 -4 15 -10z m280 0 c0
-5 -2 -10 -4 -10 -3 0 -8 5 -11 10 -3 6 -1 10 4 10 6 0 11 -4 11 -10z m1338
-15 c-3 -3 -9 2 -12 12 -6 14 -5 15 5 6 7 -7 10 -15 7 -18z m-3049 -4 c-17
-14 -26 -16 -31 -8 -5 8 -8 6 -8 -5 0 -10 -4 -18 -10 -18 -5 0 -10 6 -10 14 0
16 27 29 41 20 5 -3 9 0 9 5 0 6 7 11 16 11 12 0 10 -5 -7 -19z m1161 9 c0
-10 -32 -30 -49 -30 -6 0 -11 9 -11 20 0 16 7 20 30 20 17 0 30 -4 30 -10z
m325 -10 c3 -5 0 -10 -7 -11 -7 0 2 -7 20 -15 18 -8 37 -12 42 -9 4 3 6 -5 4
-17 -2 -13 -2 -17 2 -10 6 13 24 7 24 -8 0 -14 -73 -1 -92 17 -10 8 -17 26
-16 39 2 25 12 31 23 14z m-1436 -9 c12 -8 13 -12 1 -26 -12 -14 -15 -14 -28
-1 -8 8 -11 19 -8 25 9 13 16 14 35 2z m-819 -5 c0 -2 -8 -10 -17 -17 -16 -13
-17 -12 -4 4 13 16 21 21 21 13z m2295 -6 c3 -6 -1 -7 -9 -4 -18 7 -21 14 -7
14 6 0 13 -4 16 -10z m-1605 -31 c0 -6 -4 -7 -10 -4 -5 3 -10 11 -10 16 0 6 5
7 10 4 6 -3 10 -11 10 -16z m251 4 c-5 -10 -22 -29 -37 -43 -26 -23 -25 -22 5
18 34 43 49 55 32 25z m996 -25 c-3 -7 -5 -2 -5 12 0 14 2 19 5 13 2 -7 2 -19
0 -25z m1969 0 c4 -5 -11 -8 -34 -8 -22 0 -43 4 -46 9 -7 10 69 9 80 -1z m31
-10 c-3 -8 -6 -5 -6 6 -1 11 2 17 5 13 3 -3 4 -12 1 -19z m-3042 -49 c-33 -33
-73 -70 -90 -82 -16 -12 8 15 55 60 100 96 120 109 35 22z m2918 44 c-7 -2
-21 -2 -30 0 -10 3 -4 5 12 5 17 0 24 -2 18 -5z m-2279 -29 c3 -8 2 -12 -4 -9
-6 3 -10 10 -10 16 0 14 7 11 14 -7z m2413 10 c-3 -3 -12 -4 -19 -1 -8 3 -5 6
6 6 11 1 17 -2 13 -5z m-2858 -91 c-48 -89 -69 -122 -69 -108 0 22 94 185 106
185 3 0 -13 -35 -37 -77z m357 61 c-10 -25 4 -37 20 -17 9 12 13 13 14 5 0 -7
4 -11 8 -8 9 5 146 -95 146 -108 1 -5 -8 -10 -19 -12 -11 -2 -40 -10 -65 -17
l-45 -14 65 4 c36 3 76 0 90 -6 19 -8 20 -10 5 -8 -12 1 -31 -10 -48 -30 -31
-36 -88 -50 -127 -33 -21 9 -18 10 20 5 l45 -6 -30 25 c-16 14 -38 25 -48 26
-10 0 -16 4 -13 8 3 5 -9 6 -27 4 l-32 -5 25 22 c22 20 22 22 5 18 -11 -3 -28
-8 -39 -12 -17 -7 -18 -4 -12 36 4 24 6 58 6 76 0 18 5 35 10 38 7 4 8 -3 4
-21 -9 -35 9 -25 26 16 13 30 27 43 16 14z m-271 -117 c-4 -23 -16 -59 -27
-81 -11 -21 -15 -35 -9 -31 6 3 11 3 11 -2 -1 -19 -18 -32 -54 -38 -31 -6 -38
-5 -34 6 3 8 27 60 54 117 36 78 50 99 57 87 5 -9 5 -35 2 -58z m1375 52 c-7
-11 -14 -18 -17 -15 -8 8 5 36 17 36 7 0 7 -6 0 -21z m-1856 -24 c-14 -19 -29
-35 -31 -35 -5 0 7 18 36 53 26 31 23 18 -5 -18z m1919 8 c-6 -17 -5 -17 14 0
19 16 20 16 32 -7 10 -17 10 -29 2 -44 -6 -11 -11 -31 -11 -44 1 -19 4 -16 19
15 20 42 31 39 31 -10 0 -18 5 -33 11 -33 7 0 9 10 4 28 -6 26 -6 26 9 7 8
-11 16 -26 16 -32 0 -7 4 -13 9 -13 5 0 17 -17 27 -37 l19 -38 6 55 c3 30 7
42 8 25 1 -23 3 -27 11 -15 7 11 10 6 10 -22 0 -30 3 -35 19 -31 15 4 18 12
14 51 l-4 47 17 -29 c14 -25 14 -34 3 -68 -7 -21 -9 -41 -6 -44 3 -4 9 6 13
22 l7 29 12 -40 11 -40 7 43 c4 24 14 45 22 49 10 3 14 13 10 27 -6 19 -5 20
8 3 8 -9 13 -29 11 -45 -2 -15 -1 -21 2 -14 5 10 9 10 22 0 17 -14 17 -15 -3
35 -4 10 -3 17 4 17 6 0 8 8 5 18 -4 12 0 10 15 -7 25 -28 28 -49 4 -30 -16
12 -16 11 0 -8 14 -16 17 -30 12 -57 -4 -20 -4 -44 0 -53 6 -14 11 -6 21 32 8
34 12 41 13 24 1 -15 3 -42 6 -60 4 -29 3 -30 -4 -9 l-9 25 -1 -28 c-1 -16 4
-37 9 -48 9 -15 7 -19 -7 -19 -15 0 -172 61 -258 100 -11 5 -31 10 -45 12 -23
3 -25 7 -23 48 2 32 -1 41 -7 30 -5 -8 -10 -23 -10 -34 0 -15 -3 -16 -15 -6
-12 10 -15 10 -15 0 0 -9 -16 -11 -64 -8 -76 6 -92 14 -75 34 8 10 9 18 0 27
-14 18 -2 30 16 16 21 -18 15 6 -7 26 -23 21 -25 37 -7 66 10 17 10 23 0 26
-7 3 -13 9 -13 15 0 6 9 3 20 -7 11 -10 20 -14 20 -9 1 23 30 -46 36 -85 5
-32 9 -40 15 -28 6 10 4 30 -5 54 -18 48 -27 99 -19 107 11 10 13 7 6 -11z
m107 -23 c6 -11 8 -20 6 -20 -3 0 -10 9 -16 20 -6 11 -8 20 -6 20 3 0 10 -9
16 -20z m277 -2 c-3 -8 -6 -5 -6 6 -1 11 2 17 5 13 3 -3 4 -12 1 -19z m-1149
-13 c-10 -23 -28 -34 -28 -18 0 7 31 43 36 43 2 0 -2 -11 -8 -25z m952 4 c0
-6 -4 -7 -10 -4 -5 3 -10 11 -10 16 0 6 5 7 10 4 6 -3 10 -11 10 -16z m-2046
-10 c-3 -5 -10 -7 -15 -3 -5 3 -7 10 -3 15 3 5 10 7 15 3 5 -3 7 -10 3 -15z
m525 -53 c-6 -36 -15 -66 -20 -66 -5 0 -9 5 -9 12 0 17 34 128 38 124 1 -2 -2
-33 -9 -70z m90 16 c1 -13 -6 -30 -14 -38 -13 -14 -15 -12 -14 18 0 28 2 30
10 13 6 -14 8 -7 4 25 -4 32 -2 39 4 25 5 -11 10 -30 10 -43z m1118 21 c-3
-10 -5 -4 -5 12 0 17 2 24 5 18 2 -7 2 -21 0 -30z m-1232 -14 c-8 -23 -15 -52
-15 -65 0 -13 -2 -24 -4 -24 -2 0 -11 -3 -19 -6 -11 -4 -13 1 -10 20 3 14 9
26 14 26 5 0 9 4 9 9 0 12 29 81 35 81 2 0 -2 -19 -10 -41z m45 -24 c-6 -31
-14 -55 -16 -52 -2 2 1 29 7 61 7 31 14 54 16 52 3 -2 -1 -30 -7 -61z m1207
43 c-3 -8 -6 -5 -6 6 -1 11 2 17 5 13 3 -3 4 -12 1 -19z m1350 6 c-3 -3 -12
-4 -19 -1 -8 3 -5 6 6 6 11 1 17 -2 13 -5z m-1430 -169 c-2 -5 -8 -10 -13 -10
-13 0 -144 151 -144 167 0 7 36 -23 80 -67 44 -44 79 -84 77 -90z m323 149 c0
-8 -4 -12 -10 -9 -5 3 -10 10 -10 16 0 5 5 9 10 9 6 0 10 -7 10 -16z m306 4
c5 -7 3 -8 -6 -3 -9 6 -10 1 -6 -16 7 -23 7 -23 -8 -5 -13 16 -13 22 -3 28 15
10 15 10 23 -4z m-1735 -60 l-9 -33 -1 32 c-1 17 2 40 6 50 12 30 16 -9 4 -49z
m1469 34 c0 -15 -2 -15 -10 -2 -13 20 -13 33 0 25 6 -3 10 -14 10 -23z m195
-12 c3 -5 2 -10 -4 -10 -5 0 -13 5 -16 10 -3 6 -2 10 4 10 5 0 13 -4 16 -10z
m-2024 -23 c-10 -9 -11 -8 -5 6 3 10 9 15 12 12 3 -3 0 -11 -7 -18z m236 1
c-3 -8 -6 -5 -6 6 -1 11 2 17 5 13 3 -3 4 -12 1 -19z m1890 -10 c-3 -7 -5 -2
-5 12 0 14 2 19 5 13 2 -7 2 -19 0 -25z m-1640 16 c-3 -3 -12 -4 -19 -1 -8 3
-5 6 6 6 11 1 17 -2 13 -5z m228 -4 c-28 -12 -47 -12 -40 0 3 6 18 10 33 9 24
0 25 -1 7 -9z m-792 -15 c-3 -9 -8 -14 -10 -11 -3 3 -2 9 2 15 9 16 15 13 8
-4z m615 6 c8 -5 -6 -8 -35 -8 -37 0 -42 2 -23 7 34 11 43 11 58 1z m1022 -22
c0 -6 -4 -7 -10 -4 -5 3 -10 11 -10 16 0 6 5 7 10 4 6 -3 10 -11 10 -16z m587
-1 c-3 -8 -6 -5 -6 6 -1 11 2 17 5 13 3 -3 4 -12 1 -19z m-1920 -10 c-3 -8 -6
-5 -6 6 -1 11 2 17 5 13 3 -3 4 -12 1 -19z m1733 -16 c0 -21 -2 -24 -10 -12
-13 20 -13 53 0 45 6 -3 10 -18 10 -33z m-641 -22 c0 -9 -6 -4 -14 10 -19 33
-19 49 0 24 8 -10 14 -26 14 -34z m1291 44 c0 -8 -19 -13 -24 -6 -3 5 1 9 9 9
8 0 15 -2 15 -3z m-1196 -63 c-4 -3 -9 0 -11 7 -3 6 -8 10 -12 8 -4 -3 -8 1
-8 9 0 13 4 12 19 -2 10 -9 15 -19 12 -22z m836 24 c0 -8 -4 -15 -10 -15 -5 0
-10 7 -10 15 0 8 5 15 10 15 6 0 10 -7 10 -15z m-1833 -1 c-3 -3 -12 -4 -19
-1 -8 3 -5 6 6 6 11 1 17 -2 13 -5z m90 -9 c24 -10 33 -19 27 -25 -11 -11
-104 18 -104 32 0 13 38 9 77 -7z m763 -13 c0 -15 -2 -15 -10 -2 -13 20 -13
33 0 25 6 -3 10 -14 10 -23z m-32 -3 c2 -11 -8 -20 -27 -27 -35 -12 -35 -13
-21 23 11 29 43 31 48 4z m1163 -10 c-5 -13 -10 -19 -10 -12 -1 15 10 45 15
40 3 -2 0 -15 -5 -28z m202 16 c-3 -9 -8 -14 -10 -11 -3 3 -2 9 2 15 9 16 15
13 8 -4z m-2093 -33 c3 -3 -8 -2 -25 2 -16 4 -34 12 -40 17 -5 5 6 4 25 -2 19
-7 37 -14 40 -17z m1710 -79 c-15 -91 -18 -99 -34 -83 -8 8 -7 13 3 19 7 5 10
14 7 20 -8 12 24 135 32 126 3 -2 -1 -40 -8 -82z m380 50 c-11 -17 -11 -17 -6
0 3 10 6 24 7 30 0 9 2 9 5 0 3 -7 0 -20 -6 -30z m241 20 c13 -16 12 -17 -3
-4 -17 13 -22 21 -14 21 2 0 10 -8 17 -17z m-2320 -16 c-10 -9 -11 -8 -5 6 3
10 9 15 12 12 3 -3 0 -11 -7 -18z m1164 3 c-28 -12 -55 -12 -55 0 0 6 17 10
38 9 30 0 33 -2 17 -9z m613 -86 c-26 -103 -25 -101 -39 -87 -7 7 0 37 23 96
18 47 34 84 36 82 2 -1 -7 -42 -20 -91z m-2573 66 c0 -7 -6 -15 -12 -17 -8 -3
-13 4 -13 17 0 13 5 20 13 18 6 -3 12 -11 12 -18z m761 -2 c4 -5 1 -15 -5 -21
-7 -7 -16 -5 -31 8 -11 10 -17 21 -15 25 6 10 43 1 51 -12z m209 2 c10 -11 16
-20 13 -20 -3 0 -13 9 -23 20 -10 11 -16 20 -13 20 3 0 13 -9 23 -20z m525 0
c-6 -11 -15 -20 -20 -20 -16 0 -11 18 8 29 24 14 24 14 12 -9z m385 10 c8 -13
-5 -13 -25 0 -13 8 -13 10 2 10 9 0 20 -4 23 -10z m145 6 c0 -2 -15 -14 -34
-25 -29 -18 -38 -20 -62 -10 -32 13 -28 15 37 28 58 12 59 12 59 7z m625 -61
c-8 -32 -18 -80 -21 -107 -8 -59 -28 -59 -29 -1 0 23 3 39 6 38 3 -2 16 28 28
66 27 84 38 86 16 4z m-2685 39 c0 -8 -5 -12 -10 -9 -6 4 -8 11 -5 16 9 14 15
11 15 -7z m858 -13 c-20 -26 -70 -73 -64 -59 3 7 9 21 12 30 3 10 15 20 26 24
11 3 17 12 14 19 -3 9 0 12 10 8 12 -4 12 -8 2 -22z m857 -8 c-4 -16 -12 -34
-18 -41 -9 -12 -12 -11 -18 5 -4 12 0 25 15 40 28 29 29 28 21 -4z m735 -18
l-8 -40 -1 36 c0 20 2 39 6 42 11 11 11 4 3 -38z m517 23 c-3 -8 -6 -5 -6 6
-1 11 2 17 5 13 3 -3 4 -12 1 -19z m-2212 -22 c11 -8 16 -15 10 -15 -5 0 -23
11 -40 25 -31 26 -6 18 30 -10z m875 14 c0 -5 -2 -10 -4 -10 -3 0 -8 5 -11 10
-3 6 -1 10 4 10 6 0 11 -4 11 -10z m450 2 c0 -15 -11 -21 -27 -15 -12 5 -12 7
-1 14 17 11 28 11 28 1z m-1385 -32 c4 -6 10 -8 14 -6 4 3 13 0 21 -5 11 -7 7
-8 -14 -5 -17 3 -39 15 -50 27 l-21 21 22 -11 c12 -6 25 -16 28 -21z m1925
-45 c-10 -39 -19 -61 -19 -49 -1 23 28 128 34 122 2 -2 -4 -35 -15 -73z m-143
33 c-3 -8 -6 -5 -6 6 -1 11 2 17 5 13 3 -3 4 -12 1 -19z m-2622 -8 c-3 -5 -14
-10 -23 -10 -15 0 -15 2 -2 10 20 13 33 13 25 0z m533 -245 c0 -16 -8 22 -18
85 -10 63 -18 129 -18 145 0 17 8 -22 18 -85 10 -63 18 -128 18 -145z m1292
218 c0 -18 -17 -16 -24 3 -8 22 4 40 15 23 5 -8 9 -20 9 -26z m41 -58 c-17
-44 -30 -72 -31 -62 0 10 7 34 15 54 9 20 13 46 10 57 -5 16 -4 18 4 7 8 -12
11 -9 17 14 4 17 9 25 11 20 2 -6 -10 -46 -26 -90z m56 73 c-3 -8 -6 -5 -6 6
-1 11 2 17 5 13 3 -3 4 -12 1 -19z m-1987 8 c0 -1 -22 -17 -50 -34 -61 -38
-65 -34 -7 7 39 28 57 36 57 27z m1195 -108 c15 -37 25 -75 23 -85 -2 -10 -17
20 -32 67 -16 47 -32 89 -37 95 -5 5 -9 16 -9 25 1 21 24 -21 55 -102z m9 79
c14 -20 17 -31 10 -47 -8 -19 -12 -16 -31 30 -23 54 -13 62 21 17z m1486 13
c0 -5 -5 -10 -11 -10 -5 0 -7 5 -4 10 3 6 8 10 11 10 2 0 4 -4 4 -10z m-1570
-35 c0 -5 -5 -3 -10 5 -5 8 -10 20 -10 25 0 6 5 3 10 -5 5 -8 10 -19 10 -25z
m-1044 10 c-21 -16 -32 -13 -21 4 3 6 14 11 23 11 15 -1 15 -2 -2 -15z m850
-6 c5 -9 -36 -29 -62 -29 -8 0 -14 10 -14 23 0 20 4 23 35 19 19 -2 38 -8 41
-13z m-896 2 c0 -11 -25 -21 -51 -21 -21 0 -26 16 -6 23 21 9 57 7 57 -2z
m577 -43 c-3 -7 -5 -2 -5 12 0 14 2 19 5 13 2 -7 2 -19 0 -25z m2230 10 c-3
-8 -6 -5 -6 6 -1 11 2 17 5 13 3 -3 4 -12 1 -19z m-2170 -20 c-3 -7 -5 -2 -5
12 0 14 2 19 5 13 2 -7 2 -19 0 -25z m763 -6 c0 -7 -4 -10 -10 -7 -5 3 -10 16
-10 28 0 18 2 19 10 7 5 -8 10 -21 10 -28z m-190 11 c0 -24 -16 -48 -23 -36
-8 13 3 53 14 53 5 0 9 -8 9 -17z m757 -15 c-3 -7 -5 -2 -5 12 0 14 2 19 5 13
2 -7 2 -19 0 -25z m190 -15 c-3 -10 -5 -2 -5 17 0 19 2 27 5 18 2 -10 2 -26 0
-35z m-1297 32 c0 -2 -9 -9 -20 -15 -12 -6 -20 -7 -20 -1 0 5 8 12 18 14 9 3
18 5 20 6 1 0 2 -1 2 -4z m2007 -17 c-3 -8 -6 -5 -6 6 -1 11 2 17 5 13 3 -3 4
-12 1 -19z m20 0 c-3 -8 -6 -5 -6 6 -1 11 2 17 5 13 3 -3 4 -12 1 -19z m-1751
-96 c-8 -7 -23 32 -29 73 -6 37 -5 36 13 -14 11 -30 18 -56 16 -59z m204 59
c-1 -13 -4 -12 -15 3 -8 11 -15 27 -15 35 1 13 4 12 15 -3 8 -11 15 -27 15
-35z m-933 7 c-3 -7 -5 -2 -5 12 0 14 2 19 5 13 2 -7 2 -19 0 -25z m832 -8 c0
-10 -3 -8 -9 5 -12 27 -12 43 0 25 5 -8 9 -22 9 -30z m-630 -145 c0 -22 -2
-26 -8 -15 -5 8 -11 56 -14 105 l-6 90 14 -75 c8 -41 14 -88 14 -105z m-122
143 c-3 -8 -6 -5 -6 6 -1 11 2 17 5 13 3 -3 4 -12 1 -19z m172 -82 c2 -60 -6
-39 -12 34 -3 41 -2 54 3 35 4 -16 8 -48 9 -69z m401 31 c0 -6 -11 4 -25 23
-14 19 -25 36 -25 39 1 11 50 -50 50 -62z m-1314 28 c-23 -17 -127 -58 -133
-52 -3 4 132 64 147 66 3 0 -4 -6 -14 -14z m671 -17 c-3 -8 -6 -5 -6 6 -1 11
2 17 5 13 3 -3 4 -12 1 -19z m1728 -28 c-4 -23 -9 -39 -12 -36 -3 2 -2 23 2
46 4 23 9 39 12 36 3 -2 2 -23 -2 -46z m-1648 8 c-3 -7 -5 -2 -5 12 0 14 2 19
5 13 2 -7 2 -19 0 -25z m595 -125 c10 -38 0 -26 -33 38 -16 34 -32 59 -34 57
-2 -2 19 -47 46 -101 27 -54 49 -106 48 -115 -1 -33 -102 182 -105 222 l-2 40
37 -60 c21 -32 40 -69 43 -81z m935 105 c-3 -7 -5 -2 -5 12 0 14 2 19 5 13 2
-7 2 -19 0 -25z m-51 -34 c-4 -20 -10 -34 -13 -30 -3 3 -2 21 1 42 4 20 10 34
13 30 3 -3 2 -21 -1 -42z m-1458 -29 l1 -20 -9 20 c-5 11 -8 31 -8 45 l0 25 8
-25 c4 -14 8 -34 8 -45z m588 30 c20 -48 17 -57 -6 -15 -20 36 -24 50 -14 50
3 0 12 -16 20 -35z m-1086 -5 c6 -11 8 -20 6 -20 -3 0 -10 9 -16 20 -6 11 -8
20 -6 20 3 0 10 -9 16 -20z m2107 -22 c-3 -8 -6 -5 -6 6 -1 11 2 17 5 13 3 -3
4 -12 1 -19z m-1807 -108 c59 -118 70 -150 50 -150 -5 0 -10 5 -10 10 0 6 -24
66 -54 135 -29 69 -52 125 -50 125 2 0 31 -54 64 -120z m178 55 c0 -16 -2 -15
-8 5 -4 14 -8 34 -8 45 0 16 2 15 8 -5 4 -14 8 -34 8 -45z m79 23 c-3 -7 -5
-2 -5 12 0 14 2 19 5 13 2 -7 2 -19 0 -25z m-499 -45 c22 -38 50 -88 64 -113
14 -25 46 -82 73 -128 26 -45 45 -85 41 -89 -9 -9 4 -31 -185 320 -51 95 -46
102 7 10z m-489 53 c-2 -2 -15 -9 -29 -15 -24 -11 -24 -11 -6 3 16 13 49 24
35 12z m590 -165 c93 -157 115 -201 92 -187 -5 4 -43 68 -84 144 -41 75 -84
154 -96 175 -13 20 -21 37 -18 37 3 0 51 -76 106 -169z m298 107 c-3 -8 -6 -5
-6 6 -1 11 2 17 5 13 3 -3 4 -12 1 -19z m30 -30 c-3 -7 -5 -2 -5 12 0 14 2 19
5 13 2 -7 2 -19 0 -25z m2293 22 c0 -5 -4 -10 -10 -10 -5 0 -10 5 -10 10 0 6
5 10 10 10 6 0 10 -4 10 -10z m-413 -22 c-3 -8 -6 -5 -6 6 -1 11 2 17 5 13 3
-3 4 -12 1 -19z m-2798 8 c-2 -2 -15 -9 -29 -15 -24 -11 -24 -11 -6 3 16 13
49 24 35 12z m898 -18 c-3 -8 -6 -5 -6 6 -1 11 2 17 5 13 3 -3 4 -12 1 -19z
m2363 1 c0 -6 -4 -7 -10 -4 -5 3 -10 11 -10 16 0 6 5 7 10 4 6 -3 10 -11 10
-16z m-3060 7 c0 -2 -7 -7 -16 -10 -8 -3 -12 -2 -9 4 6 10 25 14 25 6z m909
-115 c-13 -26 -13 -26 -19 17 -4 23 -4 57 -1 75 5 32 5 32 19 -17 11 -40 12
-53 1 -75z m1488 97 c-3 -8 -6 -5 -6 6 -1 11 2 17 5 13 3 -3 4 -12 1 -19z
m727 -27 c-7 -7 -34 28 -34 43 1 6 10 0 21 -13 11 -13 17 -27 13 -30z m-2934
19 c6 -11 8 -20 6 -20 -3 0 -10 9 -16 20 -6 11 -8 20 -6 20 3 0 10 -9 16 -20z
m2194 -54 c-3 -21 -8 -35 -11 -32 -2 2 -1 20 3 40 3 21 8 35 11 32 2 -2 1 -20
-3 -40z m696 34 c0 -5 -2 -10 -4 -10 -3 0 -8 5 -11 10 -3 6 -1 10 4 10 6 0 11
-4 11 -10z m-2860 -30 c6 -11 8 -20 6 -20 -3 0 -10 9 -16 20 -6 11 -8 20 -6
20 3 0 10 -9 16 -20z m2928 -8 c2 -7 -2 -10 -12 -6 -9 3 -16 11 -16 16 0 13
23 5 28 -10z m181 -42 c23 -41 23 -42 2 -31 -21 12 -51 60 -51 82 0 19 23 -5
49 -51z m-2809 -4 c0 -12 -5 -7 -19 24 -11 24 -11 24 3 6 9 -11 16 -24 16 -30z
m-288 -148 c58 -90 108 -170 112 -178 16 -34 -30 34 -118 170 -109 171 -108
170 -103 170 3 0 52 -73 109 -162z m-112 132 c6 -11 8 -20 6 -20 -3 0 -10 9
-16 20 -6 11 -8 20 -6 20 3 0 10 -9 16 -20z m1038 -5 c-3 -3 -9 2 -12 12 -6
14 -5 15 5 6 7 -7 10 -15 7 -18z m1629 3 c-3 -8 -6 -5 -6 6 -1 11 2 17 5 13 3
-3 4 -12 1 -19z m-2757 -8 c6 -11 8 -20 6 -20 -3 0 -10 9 -16 20 -6 11 -8 20
-6 20 3 0 10 -9 16 -20z m2649 -140 c0 -14 -9 7 -19 45 -30 110 -32 126 -5 50
13 -38 24 -81 24 -95z m579 135 c-3 -3 -9 2 -12 12 -6 14 -5 15 5 6 7 -7 10
-15 7 -18z m-3248 -7 c10 -22 10 -22 -4 -4 -8 10 -20 15 -27 10 -8 -4 -10 -3
-5 4 11 18 24 14 36 -10z m857 -10 c-3 -7 -5 -2 -5 12 0 14 2 19 5 13 2 -7 2
-19 0 -25z m1530 0 c-3 -7 -5 -2 -5 12 0 14 2 19 5 13 2 -7 2 -19 0 -25z
m-2217 -143 c51 -82 99 -160 106 -172 16 -26 17 -33 5 -33 -6 0 -33 42 -62 93
-28 50 -59 103 -69 117 -23 35 -94 167 -82 155 5 -5 51 -77 102 -160z m300
145 c6 -11 8 -20 6 -20 -3 0 -10 9 -16 20 -6 11 -8 20 -6 20 3 0 10 -9 16 -20z
m247 -2 c-3 -8 -6 -5 -6 6 -1 11 2 17 5 13 3 -3 4 -12 1 -19z m-737 -2 c0 -2
-8 -10 -17 -17 -16 -13 -17 -12 -4 4 13 16 21 21 21 13z m249 -155 c51 -79 90
-149 88 -155 -2 -6 -14 9 -27 34 -12 25 -53 92 -89 150 -79 124 -88 139 -74
125 6 -5 52 -75 102 -154z m3134 135 c12 -13 30 -39 41 -56 l19 -33 -33 19
c-17 11 -41 36 -51 57 -22 42 -9 49 24 13z m-636 -18 c-3 -7 -5 -2 -5 12 0 14
2 19 5 13 2 -7 2 -19 0 -25z m20 10 c-3 -8 -6 -5 -6 6 -1 11 2 17 5 13 3 -3 4
-12 1 -19z m-2249 -23 c-3 -3 -9 2 -12 12 -6 14 -5 15 5 6 7 -7 10 -15 7 -18z
m-528 11 c0 -2 -8 -10 -17 -17 -16 -13 -17 -12 -4 4 13 16 21 21 21 13z m70
-16 c6 -11 8 -20 6 -20 -3 0 -10 9 -16 20 -6 11 -8 20 -6 20 3 0 10 -9 16 -20z
m3260 -15 c14 -19 14 -19 -2 -6 -10 7 -18 18 -18 24 0 6 1 8 3 6 1 -2 9 -13
17 -24z m-3490 10 c0 -2 -10 -9 -22 -15 -22 -11 -22 -10 -4 4 21 17 26 19 26
11z m1438 -30 c-3 -3 -9 2 -12 12 -6 14 -5 15 5 6 7 -7 10 -15 7 -18z m1489 3
c-3 -8 -6 -5 -6 6 -1 11 2 17 5 13 3 -3 4 -12 1 -19z m-2641 -63 c14 -25 24
-48 22 -51 -3 -2 -17 18 -32 46 -34 62 -26 66 10 5z m2781 13 c-3 -7 -5 -2 -5
12 0 14 2 19 5 13 2 -7 2 -19 0 -25z m-2200 -50 c-3 -7 -5 -2 -5 12 0 14 2 19
5 13 2 -7 2 -19 0 -25z m57 -68 c-7 -89 -7 -91 -21 -60 -7 18 -13 53 -12 79 0
38 2 42 9 24 11 -27 22 -30 19 -5 -3 30 1 66 6 60 3 -3 3 -47 -1 -98z m63 53
c-3 -10 -5 -2 -5 17 0 19 2 27 5 18 2 -10 2 -26 0 -35z m2603 6 c15 -28 5 -23
-15 7 -9 15 -12 23 -6 20 6 -4 16 -16 21 -27z m-2853 -11 c-3 -8 -6 -5 -6 6
-1 11 2 17 5 13 3 -3 4 -12 1 -19z m0 -130 c-2 -24 -4 -7 -4 37 0 44 2 63 4
43 2 -21 2 -57 0 -80z m543 102 c0 -5 -4 -10 -10 -10 -5 0 -10 5 -10 10 0 6 5
10 10 10 6 0 10 -4 10 -10z m-423 -37 c-3 -10 -5 -4 -5 12 0 17 2 24 5 18 2
-7 2 -21 0 -30z m-160 -70 c-3 -10 -5 -4 -5 12 0 17 2 24 5 18 2 -7 2 -21 0
-30z m530 5 c-3 -8 -6 -5 -6 6 -1 11 2 17 5 13 3 -3 4 -12 1 -19z m-128 -48
c0 -9 -4 -8 -9 5 -5 11 -9 27 -9 35 0 9 4 8 9 -5 5 -11 9 -27 9 -35z m-521
-175 l-1 -50 -8 45 c-4 25 -7 70 -7 100 l1 55 7 -50 c5 -27 8 -72 8 -100z
m-51 28 c-3 -10 -5 -4 -5 12 0 17 2 24 5 18 2 -7 2 -21 0 -30z m3127 -32 c-3
-3 -21 12 -42 34 l-37 38 42 -34 c23 -19 39 -36 37 -38z m2 -47 c2 -12 0 -14
-9 -5 -6 6 -12 18 -13 27 -2 12 0 14 9 5 6 -6 12 -18 13 -27z m-3099 -11 c-3
-10 -5 -4 -5 12 0 17 2 24 5 18 2 -7 2 -21 0 -30z m-150 -125 c-3 -8 -6 -5 -6
6 -1 11 2 17 5 13 3 -3 4 -12 1 -19z"/>
<path d="M1938 4967 c-3 -15 -2 -27 3 -27 13 0 17 14 9 35 -6 17 -7 16 -12 -8z"/>
<path d="M2816 4885 c-3 -9 -6 -22 -5 -28 0 -7 5 -1 10 12 5 13 8 26 5 28 -2
2 -6 -3 -10 -12z"/>
<path d="M2961 4804 c0 -11 3 -14 6 -6 3 7 2 16 -1 19 -3 4 -6 -2 -5 -13z"/>
<path d="M2291 7214 c0 -11 3 -14 6 -6 3 7 2 16 -1 19 -3 4 -6 -2 -5 -13z"/>
<path d="M3060 7065 c-7 -8 -9 -15 -5 -15 4 0 2 -6 -4 -14 -9 -11 -8 -15 4
-20 9 -3 13 -10 10 -16 -3 -5 -2 -10 4 -10 11 0 24 18 27 37 1 7 -5 9 -14 5
-15 -5 -15 -4 -3 11 12 16 12 17 -5 10 -17 -6 -17 -5 -5 10 7 9 11 17 8 17 -2
0 -10 -7 -17 -15z m25 -53 c-3 -3 -11 0 -18 7 -9 10 -8 11 6 5 10 -3 15 -9 12
-12z"/>
<path d="M2366 7014 c-4 -14 -5 -28 -3 -31 3 -2 8 8 11 23 4 14 5 28 3 31 -3
2 -8 -8 -11 -23z"/>
<path d="M2381 6979 c-7 -22 -11 -43 -8 -45 2 -2 9 14 16 37 7 22 11 43 8 45
-2 2 -9 -14 -16 -37z"/>
<path d="M2450 6750 c-6 -11 -8 -20 -6 -20 3 0 10 9 16 20 6 11 8 20 6 20 -3
0 -10 -9 -16 -20z"/>
<path d="M1741 6606 c28 -26 143 -106 146 -102 6 5 -128 105 -141 106 -5 0 -7
-2 -5 -4z"/>
<path d="M875 6541 c22 -23 49 -47 60 -53 11 -6 3 7 -18 29 -20 22 -34 43 -30
48 5 4 2 5 -5 1 -7 -4 -21 -2 -30 5 -9 7 1 -6 23 -30z"/>
<path d="M3470 6195 c13 -14 26 -25 28 -25 3 0 -5 11 -18 25 -13 14 -26 25
-28 25 -3 0 5 -11 18 -25z"/>
<path d="M3280 5770 c-8 -5 -10 -10 -5 -10 6 0 17 5 25 10 8 5 11 10 5 10 -5
0 -17 -5 -25 -10z"/>
<path d="M1113 5743 c9 -2 23 -2 30 0 6 3 -1 5 -18 5 -16 0 -22 -2 -12 -5z"/>
<path d="M3148 5663 c7 -3 16 -2 19 1 4 3 -2 6 -13 5 -11 0 -14 -3 -6 -6z"/>
<path d="M1225 5570 c-3 -6 1 -7 9 -4 18 7 21 14 7 14 -6 0 -13 -4 -16 -10z"/>
<path d="M2920 5340 c19 -11 40 -19 45 -19 6 0 -6 8 -25 19 -19 11 -39 19 -45
19 -5 0 6 -8 25 -19z"/>
<path d="M38 5283 c7 -3 16 -2 19 1 4 3 -2 6 -13 5 -11 0 -14 -3 -6 -6z"/>
<path d="M4439 5105 c18 -8 36 -15 40 -15 13 1 -45 29 -59 29 -8 0 0 -6 19
-14z"/>
<path d="M4148 4983 c7 -3 16 -2 19 1 4 3 -2 6 -13 5 -11 0 -14 -3 -6 -6z"/>
<path d="M1059 4833 c-13 -16 -12 -17 4 -4 9 7 17 15 17 17 0 8 -8 3 -21 -13z"/>
<path d="M534 4545 c-10 -8 -14 -14 -9 -14 6 0 19 6 29 14 11 8 15 15 10 15
-6 0 -19 -7 -30 -15z"/>
<path d="M3822 4470 c0 -14 2 -19 5 -12 2 6 2 18 0 25 -3 6 -5 1 -5 -13z"/>
<path d="M2496 4383 c-6 -14 -5 -15 5 -6 7 7 10 15 7 18 -3 3 -9 -2 -12 -12z"/>
<path d="M2070 4294 c0 -6 7 -19 16 -30 14 -18 14 -18 3 6 -14 31 -19 36 -19
24z"/>
<path d="M2106 4227 c3 -10 9 -15 12 -12 3 3 0 11 -7 18 -10 9 -11 8 -5 -6z"/>
<path d="M1780 4015 c0 -5 5 -17 10 -25 5 -8 10 -10 10 -5 0 6 -5 17 -10 25
-5 8 -10 11 -10 5z"/>
<path d="M1686 3952 c-7 -11 19 -70 48 -107 23 -29 19 -15 -13 55 -15 35 -31
58 -35 52z"/>
<path d="M1661 3830 c0 -8 6 -28 14 -45 17 -39 18 -21 0 25 -7 19 -14 28 -14
20z"/>
<path d="M650 3730 c0 -10 59 -110 66 -110 6 0 -8 33 -34 78 -24 42 -32 50
-32 32z"/>
<path d="M3955 3574 c24 -19 75 -46 75 -41 0 6 -79 57 -87 57 -5 0 1 -8 12
-16z"/>
<path d="M581 3272 c-17 -31 -13 -40 5 -14 9 13 14 26 11 29 -3 2 -10 -4 -16
-15z"/>
</g>
</svg>
