<?xml version="1.0" standalone="no"?>
<!DOCTYPE svg PUBLIC "-//W3C//DTD SVG 20010904//EN"
 "http://www.w3.org/TR/2001/REC-SVG-20010904/DTD/svg10.dtd">
<svg version="1.0" xmlns="http://www.w3.org/2000/svg"
 width="525.000000pt" height="969.000000pt" viewBox="0 0 525.000000 969.000000"
 preserveAspectRatio="xMidYMid meet">

<g transform="translate(0.000000,969.000000) scale(0.100000,-0.100000)"
fill="#2A1938" stroke="none">
<path d="M2348 9620 c23 -53 36 -113 22 -105 -5 3 -23 28 -41 55 -44 67 -49
55 -8 -17 29 -52 30 -56 8 -37 -25 23 -62 44 -76 44 -4 0 8 -11 28 -24 19 -13
52 -46 74 -72 64 -81 63 -79 39 -66 -11 6 -27 18 -34 27 -7 9 -32 30 -54 47
-28 21 -15 4 39 -52 70 -73 74 -79 30 -45 l-50 39 30 -35 c17 -19 39 -45 50
-59 17 -21 14 -20 -15 5 -90 78 -96 82 -57 37 52 -59 46 -65 -10 -12 -45 43
-40 32 17 -35 17 -20 19 -25 5 -14 -51 41 -57 24 -12 -35 16 -20 25 -41 21
-48 -4 -6 -3 -8 3 -5 6 4 23 -10 38 -31 l26 -37 -32 35 c-22 24 -30 29 -25 15
4 -13 -4 -9 -25 15 l-31 35 27 -50 27 -50 -27 30 c-32 35 -27 26 38 -79 43
-70 46 -76 21 -57 -16 12 -41 44 -56 69 -37 62 -35 46 2 -28 17 -33 30 -61 30
-64 0 -7 -29 -1 -37 9 -4 4 -2 5 6 0 9 -5 7 1 -4 19 -20 30 -27 34 -18 9 5
-13 2 -15 -11 -10 -10 4 -2 -11 21 -37 21 -24 53 -65 72 -92 l35 -49 -52 48
c-28 26 -54 47 -57 47 -4 0 13 -24 37 -52 75 -91 75 -95 0 -18 -69 70 -77 72
-24 4 48 -61 111 -166 97 -160 -17 6 -21 -9 -5 -19 6 -3 10 -11 10 -17 0 -6
-18 6 -40 26 -56 51 -59 45 -8 -16 23 -29 37 -48 29 -43 -11 6 -13 4 -8 -9 4
-10 3 -15 -3 -11 -6 3 -10 2 -10 -4 0 -5 5 -13 10 -16 6 -3 10 -16 9 -28 0
-26 -129 235 -166 338 -34 94 -75 173 -112 215 -27 32 -25 26 19 -65 27 -55
52 -116 56 -135 4 -22 -19 16 -61 98 -37 74 -69 131 -72 129 -2 -3 7 -27 20
-54 30 -59 57 -123 52 -123 -2 0 -25 34 -51 75 -26 41 -49 75 -51 75 -2 0 13
-31 32 -70 19 -38 33 -70 31 -70 -2 0 -23 29 -46 65 -50 76 -64 86 -25 18 l26
-48 -41 45 c-45 49 -44 43 13 -42 20 -31 37 -60 37 -63 0 -4 -21 16 -47 42
-56 57 -41 36 41 -59 32 -38 55 -68 52 -68 -4 0 -46 30 -94 67 -122 94 -126
95 -47 20 l70 -68 -75 51 c-63 43 -68 45 -31 13 103 -87 100 -84 37 -52 -75
37 -108 38 -40 0 60 -32 144 -92 144 -101 0 -3 -5 -11 -12 -18 -9 -9 -9 -12 3
-12 12 0 12 -2 -1 -11 -11 -8 -6 -9 20 -5 35 6 35 5 10 -9 l-25 -15 30 5 30 6
-35 -20 c-19 -10 -38 -17 -42 -14 -5 2 -9 -26 -9 -64 l-2 -68 -12 80 -12 80
-3 -65 -2 -65 -14 85 c-17 104 -25 124 -19 50 2 -30 6 -89 9 -130 5 -73 4 -72
-18 45 -15 77 -25 108 -26 85 -2 -33 -3 -33 -10 -10 l-8 25 -2 -25 c-1 -14
-13 16 -25 65 -29 113 -30 102 -5 -50 26 -156 23 -182 -6 -70 -16 62 -22 76
-19 45 4 -41 3 -39 -13 20 -12 41 -21 59 -25 50 -4 -8 -4 1 -1 20 4 26 3 31
-5 20 -9 -13 -11 -12 -11 4 0 11 -2 17 -5 14 -3 -3 6 -58 20 -123 14 -65 24
-119 22 -121 -2 -2 -14 33 -26 78 -29 103 -87 268 -100 281 -5 5 1 -26 15 -69
13 -44 24 -81 24 -84 0 -13 -29 42 -49 93 -13 31 -28 60 -34 64 -6 4 -8 0 -4
-10 16 -40 17 -50 2 -24 -9 16 -18 27 -20 25 -2 -1 24 -81 56 -177 33 -96 57
-176 55 -178 -2 -2 -29 60 -61 137 -32 77 -62 137 -67 134 -6 -4 -8 3 -3 17 4
15 3 19 -2 12 -6 -9 -13 -2 -22 23 -7 19 -15 34 -17 32 -2 -3 10 -39 26 -82
39 -101 37 -107 -6 -22 -19 37 -38 66 -40 63 -3 -3 4 -23 15 -46 12 -22 21
-44 21 -48 -1 -4 -16 21 -35 57 -19 36 -34 61 -35 55 0 -5 -12 10 -25 35 -32
59 -32 30 0 -38 28 -60 29 -66 15 -57 -6 3 -7 -1 -4 -9 3 -9 10 -13 15 -10 5
3 6 -3 2 -12 -4 -12 -3 -15 5 -10 8 5 10 1 5 -10 -4 -12 -3 -15 5 -10 8 5 10
1 5 -10 -5 -13 -3 -15 7 -9 9 5 11 4 6 -3 -4 -6 -2 -20 3 -31 8 -15 8 -19 -4
-17 -8 1 -18 6 -22 11 -4 4 -2 5 5 1 17 -10 15 6 -4 30 -15 19 -16 19 -10 -1
l6 -20 -16 20 c-8 11 -38 57 -66 103 -28 45 -53 80 -56 77 -4 -4 34 -73 97
-175 25 -41 8 -21 -72 86 -42 55 -84 107 -94 115 -11 9 -8 1 8 -21 128 -173
198 -283 134 -210 -27 30 -70 76 -96 102 -25 26 -44 49 -42 51 5 6 -27 31 -43
33 -8 1 13 -30 48 -69 95 -110 106 -123 86 -108 -10 7 -18 10 -18 6 0 -5 8
-18 18 -29 9 -11 -30 22 -87 74 -58 52 -101 89 -97 83 10 -18 -9 -16 -24 2 -7
8 -19 15 -26 15 -8 0 18 -28 58 -62 62 -52 115 -100 84 -75 -15 11 -28 8 -20
-4 3 -6 -5 -3 -20 6 -14 9 -24 21 -21 25 3 5 -9 19 -27 31 -22 15 -28 17 -19
6 19 -24 8 -21 -55 14 -91 52 -69 28 32 -35 52 -32 94 -60 94 -62 0 -2 -40 16
-90 41 -49 25 -90 43 -90 40 0 -2 21 -16 48 -29 63 -33 85 -49 55 -41 -12 3
-24 1 -28 -5 -3 -5 -11 -10 -18 -10 -6 0 -3 6 7 13 18 13 18 14 2 20 -10 4
-25 2 -34 -3 -14 -9 -12 -10 8 -5 20 5 22 4 8 -5 -11 -7 -25 -7 -44 0 -15 6
-34 8 -41 6 -8 -3 -11 -1 -8 5 4 6 -3 8 -22 4 -23 -5 -25 -4 -13 5 13 10 12
11 -3 6 -10 -3 -26 -6 -35 -7 -9 0 19 -13 62 -28 l80 -27 -45 -12 c-89 -22
-139 -32 -166 -33 -25 0 -26 -1 -8 -9 16 -7 12 -9 -20 -9 -22 -1 -46 -5 -54
-10 -9 -6 9 -8 50 -5 63 4 64 4 32 -11 -38 -18 -43 -25 -11 -18 19 4 20 3 8
-6 -13 -10 -13 -11 0 -11 13 0 13 -2 1 -9 -8 -5 -16 -16 -17 -25 -2 -12 2 -13
22 -4 18 8 21 14 12 20 -10 6 -10 8 2 8 13 0 13 1 0 10 -13 9 -13 10 0 10 13
0 13 1 0 10 -8 5 -10 10 -4 10 5 0 19 -7 30 -15 13 -10 14 -13 3 -10 -10 4
-16 0 -16 -10 0 -10 6 -14 16 -11 9 3 6 -2 -7 -10 -12 -9 -22 -21 -22 -26 0
-5 43 14 95 42 52 28 95 49 95 47 0 -3 -29 -24 -65 -47 -36 -23 -65 -44 -65
-47 0 -2 4 -2 9 2 5 3 13 0 17 -6 5 -9 11 -7 20 5 7 10 15 17 18 17 19 -2 27
0 22 7 -2 4 5 8 16 8 20 0 20 -1 2 -13 -11 -7 -28 -19 -39 -28 -19 -14 -19
-15 8 -5 17 6 27 6 27 0 0 -18 28 -10 134 40 58 27 106 47 106 45 0 -2 -49
-31 -110 -65 -60 -34 -110 -64 -110 -66 0 -2 34 12 76 31 93 42 109 45 34 5
-59 -31 -61 -39 -3 -15 49 21 55 18 13 -5 -46 -25 -40 -25 55 5 43 13 81 23
82 21 2 -2 -24 -14 -57 -26 -33 -12 -59 -25 -56 -27 2 -3 48 7 101 22 54 14
99 25 101 23 2 -2 -50 -22 -116 -43 -66 -21 -118 -41 -115 -43 2 -2 67 10 145
28 78 18 143 30 145 28 2 -2 -61 -24 -140 -48 -80 -24 -143 -45 -141 -47 2 -2
68 8 146 22 78 15 144 25 146 23 2 -3 -50 -17 -116 -33 -66 -16 -118 -30 -116
-33 2 -2 57 6 121 18 65 11 119 19 121 17 3 -2 -46 -14 -108 -27 -133 -28
-130 -37 6 -15 146 23 137 17 -29 -21 -82 -18 -127 -32 -100 -29 153 13 179
14 155 5 -17 -6 13 -7 90 -5 l115 4 -124 -14 c-68 -8 -127 -17 -130 -21 -3 -4
71 -4 164 -2 198 6 191 2 -30 -16 l-160 -13 180 -3 180 -3 -198 -13 c-109 -7
-206 -15 -215 -17 -9 -3 64 -6 163 -8 175 -3 177 -3 48 -6 -203 -5 -166 -23
46 -23 109 0 182 -4 186 -10 4 -6 -31 -10 -97 -11 -57 -1 -148 -5 -203 -9
-111 -7 -124 -6 170 -20 141 -6 145 -7 55 -9 -52 -2 -142 -7 -200 -11 l-105
-7 165 -3 c91 -1 235 -5 320 -9 l155 -6 -58 -13 c-104 -24 -179 -32 -367 -39
-189 -7 -200 -20 -20 -24 l85 -2 -90 -13 c-86 -12 -80 -13 140 -9 219 3 227 3
160 -11 -38 -7 -128 -20 -200 -28 l-130 -14 125 -2 125 -3 -155 -15 -155 -15
-90 57 c-50 31 -101 64 -115 73 l-25 17 24 -27 c14 -15 21 -27 16 -27 -4 0 0
-10 11 -22 l19 -22 -25 17 c-35 24 -50 21 -20 -4 25 -21 25 -21 -12 0 -21 12
-54 30 -73 42 -19 11 -35 18 -35 16 0 -3 47 -35 105 -72 58 -37 105 -69 105
-72 0 -2 -56 26 -125 62 -130 69 -173 84 -60 20 36 -20 65 -38 65 -40 0 -6
-41 10 -90 35 -22 11 -40 18 -40 15 0 -2 32 -21 71 -41 39 -19 69 -37 66 -40
-2 -2 -41 11 -87 31 -147 63 -95 31 90 -55 99 -46 178 -85 177 -87 -2 -1 -46
11 -98 27 -92 30 -280 73 -286 66 -2 -2 57 -20 132 -41 74 -21 133 -40 131
-42 -2 -2 -47 4 -99 13 -131 22 -145 13 -22 -14 l100 -21 -80 4 -80 4 75 -13
75 -13 -80 -3 c-44 -1 -107 -6 -140 -10 -59 -7 -58 -7 35 -9 52 -1 115 -6 140
-10 38 -6 29 -8 -65 -14 -60 -4 -123 -11 -140 -16 -31 -10 -26 -10 203 4 l77
4 -89 -19 c-87 -19 -137 -39 -62 -26 60 11 241 34 244 31 4 -4 -223 -95 -237
-95 -7 0 -72 31 -144 69 -115 61 -297 142 -316 141 -3 -1 12 -10 34 -21 93
-48 295 -161 295 -165 0 -2 -33 12 -72 32 -70 35 -307 141 -338 150 -8 3 28
-17 80 -45 52 -27 92 -50 88 -50 -3 -1 -45 17 -93 39 -110 51 -122 51 -25 0
41 -21 72 -39 69 -40 -4 0 -58 22 -120 50 -62 27 -115 48 -117 45 -3 -3 69
-41 159 -84 90 -44 161 -80 157 -80 -13 -1 -259 99 -332 135 -38 19 -71 32
-74 29 -2 -2 51 -32 119 -65 68 -34 115 -59 104 -55 -65 21 -190 46 -255 50
l-75 5 90 -15 c107 -17 243 -55 323 -89 72 -32 66 -32 -51 -1 -151 40 -328 75
-377 74 l-45 -1 49 -9 c75 -12 278 -60 274 -65 -2 -2 -62 7 -134 21 -71 13
-158 26 -194 29 -45 4 -26 -2 64 -19 144 -27 178 -38 96 -30 -30 3 -95 8 -145
10 -79 4 -70 2 76 -19 92 -14 186 -29 210 -35 45 -10 42 -10 -306 3 -50 2 -72
1 -50 -2 l40 -6 -50 -6 c-47 -7 -46 -7 30 -10 l80 -3 -65 -7 c-64 -6 -64 -7
35 -10 l100 -3 -110 -12 -110 -12 100 -3 100 -4 -70 -6 c-68 -6 -69 -7 -20
-10 l50 -3 -50 -7 -50 -7 50 -3 50 -2 -55 -14 -55 -13 50 4 c69 7 30 -9 -89
-35 -73 -16 -80 -19 -36 -15 36 3 63 0 79 -9 l24 -14 -21 -6 c-13 -4 -19 -12
-16 -18 5 -7 2 -8 -5 -4 -7 5 -26 2 -42 -5 -22 -9 -27 -14 -17 -20 7 -5 18 -9
23 -9 6 0 4 4 -3 9 -11 6 -10 10 4 15 9 3 19 4 22 1 3 -3 0 -5 -7 -5 -7 0 -9
-4 -6 -10 3 -5 -5 -15 -20 -22 -23 -10 -24 -13 -10 -28 15 -16 9 -22 -71 -74
-88 -57 -106 -77 -28 -31 31 18 42 21 40 10 -1 -8 -6 -18 -11 -22 -4 -4 -5 -2
0 6 5 10 4 12 -4 7 -6 -4 -9 -11 -6 -16 3 -4 -2 -13 -11 -20 -20 -18 -62 -78
-43 -63 9 7 20 9 24 5 5 -4 5 -2 2 4 -3 6 13 28 36 50 31 29 34 31 13 7 -17
-18 -26 -33 -21 -33 5 0 -4 -13 -19 -29 -17 -18 -24 -31 -17 -35 11 -7 15 0
12 17 -1 5 3 6 9 2 13 -8 -11 -46 -25 -38 -5 3 -5 0 2 -7 6 -7 9 -20 6 -29 -3
-9 7 2 22 24 43 62 46 62 25 7 -26 -68 -25 -92 1 -28 11 27 27 58 35 70 17 23
17 26 -2 -45 -2 -9 -1 -26 4 -38 6 -18 10 -10 21 43 7 36 17 64 21 61 4 -3 11
10 15 28 l7 32 8 -33 c10 -45 24 -56 15 -12 -7 34 -6 34 10 15 16 -20 16 -20
12 3 -3 12 -1 20 4 16 5 -3 9 7 10 23 1 27 1 27 9 -5 10 -43 25 -56 17 -15 -5
26 -3 31 8 27 8 -4 12 -10 9 -15 -3 -5 0 -9 5 -9 6 0 11 11 11 24 0 32 20 45
21 14 1 -13 7 -1 14 27 14 52 18 47 17 -20 -1 -39 0 -38 13 15 13 51 14 52 9
12 -6 -58 11 -46 32 23 10 30 19 53 21 51 3 -2 -3 -28 -11 -57 -10 -31 -12
-57 -7 -62 5 -5 12 4 16 22 6 30 25 44 25 19 0 -6 3 -8 6 -5 4 4 1 13 -5 21
-14 17 -5 60 10 51 5 -4 9 -11 9 -16 0 -6 -5 -7 -11 -3 -7 4 -10 1 -7 -7 3 -8
11 -13 18 -11 7 1 9 -4 6 -16 -4 -12 0 -24 11 -33 15 -11 16 -11 6 1 -19 21
-16 35 4 19 15 -13 15 -12 5 8 -17 30 -15 41 3 17 17 -22 20 -12 4 19 -10 22
-10 22 7 2 16 -20 16 -20 11 3 -3 13 -3 21 1 18 3 -4 12 4 19 16 7 13 12 17
13 10 0 -7 -4 -21 -10 -31 -15 -29 -21 -79 -10 -86 6 -4 7 1 3 11 -5 13 -3 15
7 9 9 -5 11 -4 6 3 -4 6 0 24 8 39 8 16 15 24 15 18 1 -5 -3 -17 -9 -25 -6 -9
-5 -17 2 -21 7 -4 7 -13 -1 -28 -7 -11 -8 -21 -4 -21 14 0 34 40 27 52 -4 7
-3 8 4 4 7 -4 19 9 32 34 11 22 23 40 26 40 2 0 0 -9 -6 -20 -6 -11 -8 -26 -4
-32 4 -7 3 -8 -4 -4 -7 4 -12 2 -12 -4 0 -6 8 -10 18 -8 9 1 23 -1 30 -6 7 -4
20 -2 29 6 15 12 15 11 2 -9 -13 -21 -14 -21 -34 -5 -20 17 -20 17 -1 -5 16
-20 17 -25 5 -40 -10 -14 -8 -13 10 2 13 11 26 18 30 15 3 -2 37 32 76 77 38
45 73 79 77 76 5 -2 -12 -27 -37 -55 -26 -28 -51 -61 -57 -72 -11 -21 -11 -21
11 -2 11 11 21 16 21 11 0 -4 6 -2 14 4 9 8 16 8 20 2 3 -5 -11 -24 -31 -41
-21 -18 -31 -29 -23 -24 8 4 39 28 68 53 29 25 55 44 57 41 2 -3 16 6 31 20
16 14 22 17 15 8 -21 -27 -1 -21 33 10 l31 27 -29 -32 -28 -31 23 -12 22 -12
-24 -20 c-17 -13 -18 -16 -4 -9 11 6 31 20 45 31 l25 20 -29 -4 c-27 -5 -28
-4 -11 14 10 11 22 17 27 14 7 -5 43 21 131 94 9 9 17 13 17 10 0 -3 -32 -32
-70 -63 -75 -62 -90 -90 -18 -34 35 26 39 28 20 7 -16 -18 -20 -28 -12 -33 8
-5 6 -13 -6 -26 -9 -10 -21 -16 -26 -13 -5 3 -2 15 8 25 35 39 -3 16 -56 -33
-30 -28 -47 -46 -38 -39 9 7 23 9 30 5 7 -4 10 -3 5 1 -4 5 0 17 10 27 19 21
41 25 24 4 -9 -10 -7 -17 6 -27 10 -8 14 -9 10 -2 -5 7 1 16 13 23 11 6 20 7
20 3 0 -4 7 1 15 11 8 11 23 21 33 22 12 2 8 -5 -12 -21 -17 -13 -35 -21 -40
-18 -6 4 -8 3 -4 -2 4 -4 2 -15 -5 -24 -10 -14 -10 -14 5 -3 9 8 22 11 28 7 6
-4 9 -1 8 7 -2 7 6 13 17 13 11 1 19 6 18 12 -1 6 4 14 13 17 10 4 13 1 9 -7
-4 -6 1 -3 9 7 9 11 23 21 32 22 10 2 0 -16 -27 -44 -24 -26 -30 -35 -14 -21
35 30 174 134 225 169 54 36 16 1 -108 -99 -63 -50 -109 -91 -103 -91 13 0
129 88 216 164 87 77 56 28 -39 -61 -45 -43 -94 -75 -166 -110 -78 -38 -95
-50 -72 -49 16 0 28 5 25 10 -3 4 3 6 13 2 12 -3 45 8 84 29 l64 35 -49 -50
c-27 -27 -45 -50 -40 -50 5 0 -3 -13 -18 -28 -15 -16 -24 -32 -20 -36 4 -4 -1
-4 -11 0 -17 6 -15 10 15 36 44 39 17 24 -41 -21 -58 -46 -72 -59 -38 -38 43
27 46 19 8 -15 l-35 -30 37 26 c53 38 56 32 9 -19 -22 -24 -41 -48 -41 -51 0
-4 18 14 40 39 22 24 67 69 101 98 l61 53 -66 -131 c-56 -112 -146 -316 -146
-330 0 -10 29 25 44 55 20 38 29 42 16 7 -6 -15 -6 -34 0 -47 8 -21 9 -21 10
-3 1 11 8 38 15 60 l14 40 -5 -55 -4 -55 19 75 c14 55 20 67 21 45 l3 -30 7
35 7 35 3 -35 3 -35 7 40 7 40 3 -40 c2 -37 3 -35 15 25 9 48 13 59 17 40 3
-14 4 0 2 30 -2 40 -1 48 5 30 9 -24 9 -23 11 10 2 24 6 11 13 -40 10 -73 11
-74 17 -33 7 46 19 68 21 37 1 -10 9 26 19 81 l18 100 -4 -105 -4 -105 15 90
c17 107 65 318 71 312 2 -2 -2 -36 -11 -76 -22 -103 -17 -118 9 -31 28 95 37
114 32 70 -3 -19 -7 -62 -11 -95 -5 -54 -3 -52 14 29 20 88 40 150 47 143 2
-2 -3 -62 -11 -133 -8 -71 -14 -149 -13 -174 1 -39 2 -40 5 -10 9 85 35 239
48 280 l14 45 0 -45 c1 -40 -10 -155 -24 -260 l-5 -35 11 34 c6 19 20 95 33
169 l22 136 23 -80 c21 -74 80 -218 87 -211 2 1 -8 32 -21 68 -26 71 -51 187
-42 195 5 6 53 -133 86 -251 11 -38 20 -63 20 -54 1 14 -48 198 -84 314 l-15
50 20 -25 c25 -32 77 -154 106 -250 12 -41 23 -67 23 -58 1 15 -52 195 -74
253 -4 11 4 2 19 -20 27 -42 36 -38 11 5 -8 14 -14 30 -14 35 0 22 84 -155
111 -235 18 -54 27 -70 23 -45 -3 22 -28 104 -54 183 -26 78 -46 142 -45 142
2 0 12 -17 23 -37 l20 -38 -4 64 c-3 56 -2 61 10 45 8 -11 15 -29 15 -41 0
-13 4 -23 8 -23 5 0 17 -39 26 -87 9 -47 22 -94 27 -102 10 -15 10 -14 6 0 -3
9 -8 42 -11 75 -3 38 2 21 14 -46 37 -194 40 -205 34 -120 -2 41 -7 93 -9 115
-4 37 -3 36 9 -10 9 -37 14 -45 19 -30 3 11 3 2 1 -20 -4 -30 -3 -36 5 -25 9
12 11 10 12 -10 l1 -25 8 25 8 25 1 -24 c1 -13 4 -22 7 -19 3 3 -4 54 -15 114
-11 59 -19 109 -17 111 2 2 13 -35 26 -82 24 -89 36 -111 26 -47 -4 24 -3 30
3 17 7 -16 9 -17 13 -5 3 8 3 3 1 -11 -2 -14 1 -36 7 -50 9 -22 10 -20 5 11
-2 22 5 8 20 -35 31 -92 31 -77 0 47 -14 55 -24 102 -22 104 2 2 13 -28 26
-66 22 -70 38 -95 27 -42 -4 20 0 17 14 -13 26 -57 24 -31 -5 55 -14 40 -23
75 -21 77 1 2 31 -61 65 -139 34 -79 59 -128 56 -110 -7 34 -72 207 -100 264
l-16 33 26 -30 c37 -42 82 -134 122 -245 30 -86 35 -87 18 -4 -3 20 3 13 19
-21 13 -27 27 -61 31 -74 l7 -23 -68 7 c-150 14 -438 -27 -599 -87 -44 -16
-145 -48 -225 -70 -328 -89 -573 -180 -770 -284 -100 -53 -350 -211 -350 -221
0 -3 30 12 67 32 81 44 79 42 -67 -68 -63 -48 -128 -98 -145 -113 l-30 -26 40
23 c22 12 52 31 67 41 51 35 38 17 -30 -42 -39 -33 -73 -68 -77 -77 -4 -11 6
-7 27 13 18 17 53 45 78 63 38 28 36 24 -19 -28 -35 -34 -60 -61 -54 -61 5 0
15 6 23 13 8 6 -20 -25 -63 -69 -42 -45 -77 -85 -77 -90 0 -5 32 23 71 61 39
39 67 61 61 50 -6 -11 -20 -29 -32 -40 -12 -11 -41 -42 -63 -70 l-41 -50 59
55 59 55 -44 -55 -44 -55 52 50 c60 57 66 52 18 -14 -51 -72 -65 -103 -26 -61
l32 35 -23 -40 c-13 -22 -29 -51 -37 -65 -9 -16 0 -10 23 15 l37 40 -32 -58
c-18 -32 -30 -61 -27 -63 3 -3 11 4 17 16 18 33 22 18 6 -21 -26 -65 -27 -85
-1 -39 15 25 24 38 22 30 -2 -8 -1 -46 3 -85 7 -70 7 -70 9 -16 1 59 9 62 21
9 7 -29 8 -26 10 27 2 48 4 55 11 35 7 -19 8 -14 4 20 -5 44 -4 45 8 15 l14
-30 17 52 c10 29 22 55 27 59 5 3 0 -18 -11 -46 -11 -28 -20 -56 -19 -63 1
-14 24 35 51 108 10 28 16 37 13 21 -3 -15 -8 -42 -11 -60 l-4 -31 15 35 c13
31 15 32 12 8 -2 -15 0 -25 4 -22 5 3 9 -5 9 -17 0 -12 2 -20 5 -17 3 3 -1 49
-10 102 -19 123 -18 141 5 46 13 -54 19 -66 20 -45 l2 30 9 -30 c6 -21 7 -12
3 31 -2 33 0 71 5 85 10 24 10 24 10 2 1 -13 5 -23 10 -23 5 0 12 10 14 23 4
19 4 18 6 -5 0 -16 -3 -28 -9 -28 -5 0 -10 -10 -10 -22 0 -21 2 -20 16 7 11
20 16 59 17 120 1 50 3 77 5 61 3 -23 6 -26 13 -15 7 10 8 4 4 -18 -4 -20 -3
-33 4 -33 5 0 12 -15 14 -32 2 -18 3 10 2 62 l-3 95 12 -55 12 -55 12 48 c7
26 15 47 18 47 7 0 0 -49 -10 -72 -4 -10 -6 -23 -3 -30 3 -7 6 -3 6 10 1 35
21 26 22 -10 l2 -33 4 30 c3 17 9 35 15 42 6 7 8 48 5 100 -4 56 -3 73 2 48 8
-38 8 -38 11 -10 2 21 5 13 10 -25 6 -55 6 -55 15 40 9 86 10 91 16 50 6 -45
6 -45 8 15 1 43 4 56 11 45 8 -12 10 -8 12 15 1 17 4 -4 8 -45 l6 -75 4 65 3
65 7 -50 7 -50 3 65 3 65 7 -65 c6 -64 7 -64 10 35 l3 100 11 -105 11 -105 6
70 5 70 3 -70 c1 -38 7 -79 12 -90 6 -14 7 -5 4 30 -4 34 -2 44 4 30 9 -20 16
21 24 135 3 35 4 29 7 -25 l3 -70 7 60 7 60 1 -69 c1 -38 4 -67 7 -64 3 3 9
45 14 94 l8 89 3 -75 3 -75 7 50 c5 28 9 73 10 100 2 44 4 41 11 -29 5 -43 10
-81 13 -83 2 -2 8 38 13 89 l10 93 3 -105 c1 -70 5 -97 10 -80 4 14 9 43 9 65
1 30 4 36 11 25 7 -11 10 -3 11 30 1 38 2 41 9 20 7 -22 8 -21 9 13 1 20 6 37
12 37 6 0 9 -9 6 -20 -3 -11 -1 -18 4 -14 5 3 9 10 9 15 0 6 7 17 15 25 12 12
15 13 16 2 1 -7 5 5 9 27 l7 40 2 -45 c2 -44 2 -45 16 -20 l14 25 2 -35 1 -35
8 30 c4 17 9 23 10 15 1 -8 5 -4 10 10 7 23 8 23 11 -10 2 -34 2 -34 9 10 l7
45 2 -40 c3 -36 4 -37 11 -15 l8 25 1 -26 c1 -20 -16 -46 -60 -95 -34 -38 -71
-77 -83 -86 -11 -10 -18 -18 -13 -18 4 0 28 19 54 43 29 26 42 34 35 20 -7
-12 -16 -24 -21 -28 -5 -3 -24 -24 -43 -48 -18 -23 -24 -35 -13 -27 17 14 18
13 12 -3 -4 -10 23 9 60 42 70 63 83 71 83 47 0 -8 -55 -53 -122 -100 -141
-98 -236 -175 -133 -108 62 41 184 110 175 100 -25 -30 -198 -157 -245 -180
-71 -36 -148 -88 -142 -95 3 -2 16 1 29 8 41 22 2 -16 -53 -51 -58 -38 -62
-46 -14 -26 19 8 35 14 35 12 0 -1 -42 -38 -93 -81 -122 -104 -129 -111 -97
-95 l25 13 -25 -28 -25 -28 45 30 c93 62 92 59 -17 -36 -40 -35 -70 -67 -68
-71 3 -5 -14 -24 -37 -44 -23 -20 -37 -36 -30 -36 6 0 13 4 16 9 3 5 23 19 43
31 37 21 36 19 -17 -36 -44 -46 -48 -52 -20 -33 l34 23 -37 -49 c-24 -31 -34
-52 -28 -58 7 -7 0 -24 -18 -51 -41 -60 -56 -90 -40 -81 9 6 10 3 5 -10 -5
-15 -4 -16 9 -5 17 14 21 35 4 24 -8 -4 -8 0 0 15 14 25 23 28 14 4 -5 -12 -3
-14 7 -8 8 5 2 -12 -13 -37 -30 -51 -36 -73 -12 -42 13 16 13 13 -1 -21 -40
-98 -74 -198 -69 -203 3 -3 5 1 5 9 0 12 2 11 11 -1 9 -12 10 -11 6 8 -3 12
-1 22 4 22 5 0 9 8 10 18 0 12 3 10 12 -8 11 -25 11 -25 15 10 5 33 5 34 12
10 7 -22 8 -20 10 15 1 32 3 36 10 20 7 -17 9 -14 10 15 l2 35 7 -30 c6 -26 8
-21 15 34 8 59 10 63 22 46 8 -10 15 -37 15 -59 1 -23 7 7 14 65 18 147 22
162 25 99 l2 -55 10 50 c27 138 25 136 28 45 2 -90 4 -90 16 5 l8 60 7 -40 6
-40 3 40 c3 33 5 29 10 -25 l7 -65 3 80 3 80 7 -65 7 -65 2 85 c2 47 6 76 10
65 3 -12 8 9 12 50 5 65 6 61 8 -45 l3 -115 15 75 c8 41 18 102 22 135 l8 60
2 -90 c1 -94 19 -157 22 -80 l2 40 7 -45 7 -45 1 58 c1 32 7 57 13 57 6 0 8
17 5 48 -4 32 -3 39 3 22 8 -23 9 -22 13 15 l5 40 3 -40 3 -40 8 45 c5 29 6
-2 4 -85 l-3 -130 23 160 24 160 -6 -115 c-3 -63 -2 -112 2 -108 4 4 15 60 25
125 l17 118 7 -110 c9 -146 13 -164 15 -80 2 49 5 64 11 50 10 -23 9 -24 17
35 6 54 13 65 13 22 0 -17 4 -33 9 -36 8 -5 7 28 -3 101 -2 12 1 20 5 17 5 -3
10 19 10 48 l1 53 8 -40 c4 -22 6 -56 4 -75 -2 -19 6 7 18 58 12 50 23 90 25
88 2 -2 -5 -73 -16 -156 -12 -84 -21 -160 -20 -169 0 -9 18 63 39 159 40 182
51 208 24 56 -8 -48 -13 -90 -11 -92 2 -2 13 38 24 88 l20 93 -1 -83 c-1 -46
-4 -73 -7 -60 -3 12 -5 -11 -5 -52 l1 -75 11 50 c7 34 13 44 16 30 3 -11 4 -2
3 20 -1 22 0 31 3 20 3 -12 12 10 23 60 14 59 17 67 13 30 -9 -89 -11 -121 -6
-95 l5 25 8 -25 c5 -17 7 -9 4 25 -3 33 -2 42 3 25 7 -20 12 -7 26 68 10 51
21 91 23 88 3 -2 -3 -53 -12 -111 -9 -59 -15 -109 -12 -111 2 -2 12 41 22 96
10 55 20 98 22 96 3 -2 -3 -55 -11 -117 -21 -149 -19 -156 10 -29 22 101 23
103 19 40 l-5 -65 19 70 19 70 -4 -65 -4 -65 19 70 c12 45 20 61 21 45 1 -14
11 13 21 60 l18 85 -4 -85 -3 -85 18 100 19 100 -4 -85 -4 -85 14 55 14 55 -4
-95 -4 -95 19 105 c10 58 20 119 21 135 2 17 5 -6 8 -50 l6 -80 15 135 15 135
5 -85 5 -85 11 65 c11 59 11 49 8 -95 -3 -170 -3 -170 25 70 l8 70 3 -95 c3
-90 3 -92 10 -40 5 30 9 84 11 120 2 52 3 56 6 20 9 -134 15 -191 21 -185 3 3
5 21 4 40 -2 19 2 35 8 35 5 0 10 22 10 50 0 64 18 66 23 3 3 -42 4 -39 7 22
l3 70 7 -55 c6 -51 7 -52 9 -15 2 32 4 36 11 20 7 -15 9 -8 11 30 l2 50 7 -50
7 -50 3 50 c2 50 2 49 26 -48 l24 -98 -25 -98 c-13 -53 -27 -124 -30 -157 -4
-49 1 -37 29 71 38 148 45 145 16 -7 -23 -121 -23 -121 -5 -87 8 15 26 85 40
155 15 71 28 130 29 131 2 2 13 -40 26 -92 13 -52 26 -92 28 -90 3 3 -14 99
-34 190 -2 11 5 2 16 -20 11 -22 18 -31 15 -20 -2 11 -7 34 -10 50 l-6 30 16
-25 16 -25 -6 28 c-9 44 2 31 20 -24 22 -66 31 -56 11 12 -21 68 -13 76 9 9
23 -70 30 -57 10 20 -9 34 -14 64 -12 66 2 2 18 -32 36 -77 24 -63 29 -85 20
-95 -6 -8 -8 -14 -3 -14 4 0 -1 -7 -12 -15 -10 -8 -14 -15 -9 -15 6 0 -1 -8
-15 -16 l-25 -15 30 6 c29 5 29 4 -10 -20 -38 -24 -38 -25 -10 -19 17 4 50 13
75 20 82 25 66 14 -35 -24 -82 -31 -197 -85 -145 -68 8 3 73 24 143 47 70 23
130 40 132 37 2 -2 -54 -25 -126 -52 -71 -27 -131 -52 -134 -56 -2 -4 64 17
147 46 83 30 153 52 155 50 2 -2 -11 -9 -29 -16 -70 -28 -254 -118 -273 -134
-15 -12 -7 -11 35 5 109 42 286 106 314 113 20 5 -18 -29 -110 -97 -134 -100
-244 -203 -244 -227 0 -7 33 19 73 57 41 37 112 97 158 132 l84 64 -111 -114
c-119 -123 -166 -185 -189 -250 -24 -67 -17 -67 17 2 43 87 173 215 311 307
59 40 112 72 116 72 4 0 7 -10 7 -22 -1 -13 5 -23 13 -23 7 0 24 -29 37 -65
35 -93 86 -200 94 -200 5 0 -12 50 -36 112 -24 61 -42 113 -40 115 2 3 30 -46
61 -109 57 -112 67 -109 19 7 -38 91 -38 95 -2 33 52 -87 55 -83 9 10 -23 45
-39 82 -37 82 2 0 27 -37 57 -82 66 -103 82 -122 39 -45 -17 32 -30 61 -27 63
3 3 12 -7 21 -23 34 -62 13 -10 -25 64 -25 49 -32 67 -17 49 57 -71 59 -72 32
-11 -42 98 -39 95 28 -21 l64 -110 -8 -70 c-4 -38 -12 -111 -18 -162 -5 -52
-14 -110 -19 -130 -6 -20 -15 -86 -20 -145 -6 -60 -14 -113 -17 -119 -4 -7
-13 -57 -20 -112 -19 -158 -44 -306 -61 -366 -26 -89 -42 -172 -43 -216 0 -53
-34 -217 -54 -265 -8 -20 -20 -73 -25 -117 -6 -45 -17 -94 -24 -109 -22 -44
-44 -149 -57 -268 -15 -139 -34 -224 -65 -283 -13 -26 -28 -79 -33 -118 -6
-44 -22 -94 -42 -133 -17 -35 -38 -97 -46 -138 -7 -41 -25 -93 -38 -116 -14
-23 -30 -71 -36 -107 -6 -36 -23 -85 -36 -110 -32 -56 -108 -258 -130 -342
-10 -40 -30 -81 -54 -113 -22 -29 -45 -75 -55 -110 -9 -33 -34 -89 -55 -125
-21 -36 -41 -80 -45 -98 -4 -19 -32 -70 -62 -114 -54 -78 -114 -197 -147 -288
-9 -25 -40 -75 -70 -112 -29 -37 -59 -82 -65 -100 -18 -48 -80 -167 -110 -210
-55 -77 -262 -327 -339 -409 -52 -55 -95 -92 -124 -104 -159 -67 -308 -149
-363 -200 l-60 -55 2024 0 c1113 0 2022 2 2020 4 -3 3 -134 7 -291 10 -164 3
-295 9 -306 15 -12 6 -22 7 -29 0 -13 -13 -73 1 -73 18 0 10 -6 9 -21 -6 -17
-16 -25 -17 -39 -8 -12 7 -23 8 -32 1 -10 -8 -353 -12 -353 -5 0 1 -33 3 -73
4 -39 1 -72 0 -72 -3 0 -3 -42 -4 -92 -3 -134 2 -138 2 -159 13 -11 6 -19 7
-19 1 0 -12 -68 -19 -78 -9 -5 5 -20 5 -33 1 -36 -12 -129 -8 -166 8 -26 10
-44 11 -90 2 -115 -22 -1010 3 -1181 34 -18 3 -35 9 -38 14 -3 5 -16 9 -28 9
-13 0 -35 9 -49 20 -14 11 -39 23 -55 26 -44 9 -32 33 61 116 44 40 97 95 117
123 20 28 60 75 88 106 76 83 208 301 256 423 10 26 36 68 58 93 49 57 89 137
118 233 13 43 39 99 61 130 22 32 54 99 73 155 54 159 102 278 171 419 65 135
97 225 110 310 3 27 23 85 42 129 19 44 42 119 50 165 9 51 26 107 44 141 22
42 32 79 39 141 5 54 19 113 39 163 17 43 31 94 31 113 0 20 18 115 39 212 22
98 42 202 45 233 3 31 13 74 22 95 9 21 20 73 24 114 5 41 17 102 28 135 11
33 23 95 26 137 4 42 16 103 26 134 11 31 20 81 20 111 0 29 7 70 16 91 9 20
26 121 40 223 13 102 30 215 39 250 8 35 15 87 15 114 0 28 6 77 14 110 8 33
17 97 20 142 4 44 10 93 14 108 7 26 9 25 55 -44 26 -39 49 -71 51 -71 3 0
-18 40 -45 89 -46 85 -57 111 -43 111 3 0 15 -10 26 -22 22 -26 14 -7 -15 35
-13 19 -16 32 -10 38 7 7 25 -6 53 -38 l42 -48 -39 60 c-54 82 -54 83 -44 89
4 3 37 -30 71 -74 35 -44 65 -80 67 -80 3 0 -21 37 -52 83 l-58 82 54 -50 53
-50 -47 57 c-54 65 -61 85 -15 42 19 -17 13 -7 -15 26 -54 62 -62 88 -15 44
31 -29 31 -28 -5 20 -21 27 -37 58 -37 69 0 20 0 20 23 1 12 -10 36 -34 54
-54 54 -59 37 -19 -19 45 l-53 60 4 95 c3 67 6 86 11 65 l8 -30 2 30 c3 37 6
25 25 -90 l15 -90 -5 95 c-2 52 -7 118 -9 145 l-5 50 13 -55 c19 -75 19 -27 1
90 -22 145 -16 139 26 -25 34 -132 42 -140 24 -25 -4 25 1 19 16 -23 12 -32
22 -57 24 -55 2 2 -3 35 -11 73 -21 108 -15 130 10 35 29 -111 36 -126 31 -65
l-5 50 15 -40 14 -40 -4 55 -5 55 19 -50 c18 -45 20 -47 20 -20 l1 30 20 -33
21 -34 -77 -101 -77 -102 89 95 c185 197 189 200 87 65 -86 -114 -173 -244
-173 -257 0 -7 24 23 53 66 62 90 168 209 229 257 52 42 53 44 -105 -176 -183
-253 -186 -258 -141 -205 84 97 92 102 35 20 -63 -88 -82 -127 -34 -68 63 76
276 318 280 318 3 0 1 -6 -4 -12 -10 -13 -143 -197 -212 -293 -19 -27 -28 -44
-18 -36 24 19 21 5 -9 -37 l-26 -37 28 31 c16 17 78 86 138 153 60 66 111 121
113 121 1 0 -35 -51 -80 -112 -156 -211 -151 -217 14 -18 57 68 110 131 117
140 23 25 -35 -75 -139 -242 -54 -87 -96 -158 -93 -158 2 0 32 37 65 83 34 45
64 84 67 87 7 7 -35 -65 -68 -115 -43 -64 -47 -72 -28 -57 9 7 64 81 124 165
59 84 111 157 117 162 13 14 -139 -290 -170 -337 -13 -22 -22 -42 -20 -45 7
-7 94 129 157 245 30 55 55 100 57 99 1 -1 -25 -78 -58 -171 -32 -93 -58 -171
-56 -172 2 -2 39 81 82 184 54 125 81 179 83 164 3 -23 4 -23 18 -5 8 10 1
-10 -16 -44 -37 -76 -40 -115 -4 -55 57 95 29 30 -70 -165 -58 -113 -105 -208
-103 -210 2 -1 38 57 80 130 106 183 109 184 23 12 -83 -165 -74 -162 22 8 34
61 62 108 62 105 0 -4 -16 -41 -35 -84 -44 -97 -44 -109 0 -24 19 36 34 62 35
59 0 -3 -20 -52 -45 -109 -25 -57 -45 -106 -44 -109 0 -3 24 41 54 99 30 58
54 102 54 98 1 -4 -19 -50 -44 -104 -25 -53 -44 -98 -43 -100 2 -1 23 35 48
81 24 46 46 83 48 81 2 -2 -18 -46 -43 -97 -59 -118 -35 -97 45 41 70 120 70
102 0 -47 -27 -57 -47 -103 -46 -103 2 0 23 29 46 65 23 36 44 65 46 65 7 0
-73 -153 -101 -194 -14 -21 -24 -41 -21 -43 3 -3 28 30 56 73 58 89 70 104 46
57 -22 -44 -20 -51 6 -17 50 67 41 46 -35 -83 -34 -58 -11 -35 33 32 23 36 44
65 47 65 2 0 -14 -34 -35 -75 -41 -78 -30 -84 15 -8 13 24 26 43 28 43 4 0
-19 -58 -42 -105 l-14 -30 20 25 c28 35 26 15 -4 -37 -39 -65 -20 -52 25 19
22 33 40 58 40 54 0 -19 -62 -137 -93 -178 -20 -27 -33 -48 -28 -48 6 0 24 20
42 45 18 25 34 45 36 45 5 0 -16 -40 -39 -73 -11 -15 -15 -27 -10 -27 10 0 50
55 76 105 25 49 18 22 -15 -56 -17 -41 -32 -82 -32 -91 -1 -9 -5 -15 -8 -12
-4 2 -11 -1 -15 -7 -4 -8 -3 -9 4 -5 19 12 14 -7 -14 -47 -14 -21 -23 -41 -20
-44 3 -3 20 18 37 46 18 28 34 50 35 48 2 -2 -2 -21 -10 -43 -7 -21 -18 -52
-23 -69 -6 -16 -14 -38 -18 -48 -5 -12 -3 -17 6 -15 8 2 13 -5 12 -16 -1 -13
2 -15 10 -7 8 8 8 14 -1 23 -7 7 -12 17 -12 23 0 5 6 1 13 -10 12 -21 17 -76
6 -69 -4 2 -10 -3 -13 -12 -4 -10 -2 -13 6 -8 8 5 9 1 5 -12 -7 -18 -6 -18 8
1 32 40 75 215 97 389 11 87 26 112 29 46 0 -25 1 -25 11 -3 17 34 -16 499
-42 592 -26 94 -95 267 -175 444 l-63 138 116 101 c65 56 133 115 152 132 19
17 -19 -25 -85 -93 -115 -119 -106 -114 57 28 58 52 49 40 -47 -59 l-120 -124
123 115 c68 63 133 121 145 129 12 8 -31 -48 -96 -125 l-119 -140 117 120 c69
70 98 96 71 63 -25 -32 -67 -84 -92 -115 l-47 -58 54 55 c30 30 85 89 124 130
38 41 64 68 58 60 -10 -15 -186 -252 -206 -277 -5 -7 -7 -13 -5 -13 3 0 51 58
108 130 57 71 105 130 108 130 3 0 -44 -70 -125 -182 -58 -80 -9 -49 73 48 87
102 120 135 81 82 -38 -52 -33 -60 9 -13 20 22 -5 -22 -55 -97 -50 -76 -90
-138 -87 -138 2 0 50 62 106 138 57 75 107 142 112 147 6 6 -22 -54 -61 -132
-39 -79 -70 -143 -68 -143 2 0 37 54 77 120 39 66 74 120 75 120 5 0 -37 -96
-66 -152 -11 -22 -19 -42 -16 -44 2 -2 26 36 52 86 27 49 50 88 52 86 1 -1
-29 -81 -67 -176 -38 -95 -68 -175 -66 -177 1 -2 45 89 96 202 51 113 94 204
96 203 1 -2 -9 -59 -22 -128 -13 -69 -22 -129 -20 -135 3 -5 5 0 5 13 1 13 5
21 10 18 5 -4 7 4 3 16 -4 16 -2 19 8 13 10 -6 12 -2 7 15 -4 15 -3 20 4 13 7
-7 7 -29 0 -69 -18 -97 -11 -85 24 41 35 125 45 137 20 25 -22 -101 -15 -105
9 -5 l22 90 13 -80 c15 -91 50 -205 51 -165 0 14 -7 46 -15 73 -8 26 -11 47
-6 47 4 0 18 -46 31 -102 14 -59 26 -93 28 -80 2 13 -4 44 -12 69 -9 26 -16
58 -15 72 0 14 8 -3 17 -39 l16 -65 11 70 c11 67 11 64 10 -80 l-2 -150 23
145 22 145 -3 -90 c-2 -56 -1 -75 3 -50 8 40 8 40 16 -25 l9 -65 18 80 c10 44
17 62 14 40 -13 -123 -14 -149 -6 -125 8 24 8 23 12 -10 l5 -35 11 45 12 45
-4 -60 -4 -60 13 70 12 70 7 -50 c4 -28 3 -51 -2 -53 -10 -3 4 -73 21 -105 10
-19 11 -19 23 -3 7 9 16 38 20 64 6 37 9 43 16 27 4 -11 8 -27 8 -35 1 -13 0
-13 -10 0 -8 11 -9 7 -5 -20 11 -72 26 -146 35 -175 l9 -30 1 39 c1 48 9 44
13 -6 4 -65 18 -29 20 50 l1 77 6 -87 c3 -47 9 -90 14 -94 4 -4 7 2 7 14 0 16
5 20 21 17 18 -4 20 -1 14 27 -5 20 -4 28 3 24 6 -3 13 14 17 45 4 28 11 47
16 42 4 -4 4 -28 -2 -52 -7 -32 -7 -47 2 -55 8 -8 9 -5 4 14 -6 21 -5 23 6 12
15 -14 22 -105 8 -96 -5 3 -9 0 -9 -5 0 -6 4 -11 9 -11 5 0 7 -10 5 -22 -2
-13 9 13 25 57 29 79 40 93 21 26 -8 -28 -6 -39 10 -61 11 -16 20 -34 21 -42
0 -7 5 -1 11 14 7 21 6 35 -6 60 -20 39 -13 50 8 11 8 -15 15 -22 16 -15 0 7
-5 22 -10 33 -7 13 -7 19 0 19 5 0 10 -8 11 -17 0 -16 1 -16 8 1 7 18 8 18 14
2 10 -25 9 -28 -4 -20 -9 5 -10 -1 -5 -20 4 -18 3 -25 -4 -21 -13 8 -13 3 1
-32 l11 -28 14 40 13 40 -6 -36 c-3 -24 1 -47 12 -65 l16 -29 -5 27 c-3 14 -8
34 -12 45 -3 11 1 8 11 -7 l16 -25 -6 30 c-4 24 -3 26 5 13 8 -12 6 -36 -5
-84 -12 -50 -13 -70 -4 -78 8 -8 9 -5 4 12 -3 12 -4 22 0 22 3 0 10 -10 15
-22 9 -20 9 -19 5 8 -3 16 -1 41 4 55 9 20 10 18 6 -16 -4 -26 -2 -33 3 -21 8
18 9 18 15 2 9 -24 9 -28 -3 -21 -12 7 -13 -5 -1 -23 5 -9 12 1 21 33 7 25 15
44 17 41 2 -2 -1 -23 -7 -45 -6 -23 -8 -52 -4 -64 7 -20 9 -18 20 18 7 22 13
33 13 24 1 -9 8 -30 16 -45 8 -16 15 -39 15 -51 0 -13 4 -23 9 -23 10 0 -4 72
-20 101 -6 13 -6 19 0 19 6 0 20 -33 32 -72 39 -137 35 -128 45 -88 8 33 9 30
15 -35 l5 -70 3 75 3 75 28 -85 c30 -91 39 -91 15 0 -8 30 -15 57 -14 60 0 3
16 -24 35 -60 35 -65 37 -52 4 23 -10 22 -16 47 -12 55 3 10 1 13 -6 8 -8 -5
-10 -2 -6 8 3 9 10 13 16 10 5 -3 2 8 -7 26 -9 17 -19 29 -22 26 -3 -3 0 -12
7 -21 7 -9 10 -18 7 -21 -3 -3 -13 9 -22 26 -9 18 -12 29 -7 26 6 -4 14 -1 18
5 5 9 11 7 21 -6 11 -15 13 -16 13 -3 0 8 -30 60 -67 114 -36 55 -75 122 -85
149 l-19 50 141 -141 c77 -77 140 -138 140 -135 0 4 -48 60 -106 126 l-107
120 112 -111 c118 -117 145 -136 60 -41 -47 53 -51 63 -24 57 6 -1 -1 10 -14
24 -29 30 -28 30 -28 11 0 -8 3 -12 7 -10 4 2 7 -2 7 -10 0 -11 -4 -12 -14 -3
-7 6 -11 13 -8 16 3 3 0 11 -6 19 -6 7 -8 13 -4 13 5 0 0 10 -11 22 -10 12 4
4 31 -18 84 -69 114 -80 45 -18 -35 32 -78 72 -95 87 l-30 29 32 -22 c18 -11
35 -25 38 -30 4 -6 11 -10 17 -10 6 0 3 9 -7 20 -10 11 -15 20 -10 20 4 0 1 8
-6 17 -8 9 11 0 41 -20 96 -65 77 -40 -33 43 -109 82 -150 123 -54 54 28 -21
68 -49 87 -62 33 -23 33 -22 -5 11 -22 20 -41 41 -41 47 -1 5 -2 11 -4 13 -1
1 -3 10 -5 20 -5 24 -23 52 -80 117 -32 37 -21 28 34 -26 44 -45 81 -78 81
-74 0 18 -87 113 -179 198 -56 51 -99 92 -96 92 14 0 220 -102 263 -130 l47
-30 -37 33 c-21 18 -80 56 -132 83 -52 27 -93 50 -92 52 2 1 46 -16 97 -38
126 -56 131 -57 80 -22 -24 17 -94 52 -155 77 -61 26 -120 56 -132 66 -23 21
-39 25 -28 7 4 -7 3 -8 -5 -4 -6 4 -9 11 -7 15 3 4 -11 23 -30 42 -20 19 -63
66 -97 104 l-62 70 93 -87 c51 -49 98 -88 105 -88 7 1 6 5 -4 13 -8 7 -33 32
-54 57 l-39 45 34 -30 c19 -16 62 -54 95 -85 l60 -55 -70 75 c-117 125 -124
138 -30 55 88 -79 89 -79 45 -25 -46 55 -43 56 20 11 72 -52 13 -2 -162 139
-100 80 -188 156 -197 169 -17 26 -25 31 249 -146 189 -122 134 -76 -92 77
-97 66 -180 125 -184 131 -17 28 13 16 86 -35 44 -31 80 -55 80 -52 0 2 -33
28 -72 58 -86 63 -172 138 -160 138 31 0 95 -41 156 -98 39 -37 57 -51 41 -32
-86 100 -90 98 58 21 75 -39 137 -70 137 -67 0 8 -153 94 -231 130 -42 20 -92
51 -110 69 -42 42 -132 76 -218 83 -84 7 -113 18 -133 52 -19 32 -144 156
-208 206 l-44 35 -1 67 c0 66 0 66 -46 108 -42 38 -46 47 -58 116 -8 41 -20
92 -27 113 -16 46 -8 49 11 5 13 -30 14 -31 15 -9 0 41 9 19 30 -75 19 -86 19
-87 14 -26 -4 35 -12 86 -20 115 -7 28 -12 53 -10 55 8 8 38 -89 51 -164 l13
-79 3 60 c2 33 3 77 2 98 -1 20 0 37 1 37 5 0 44 -121 49 -150 3 -16 5 -8 7
20 l2 45 12 -40 c12 -36 13 -37 19 -15 9 34 8 61 -1 38 -4 -10 -7 10 -8 45 l0
62 15 -63 c9 -35 19 -60 23 -57 4 4 4 -4 1 -17 -5 -20 -4 -21 10 -8 8 8 18 31
22 50 4 22 3 30 -3 22 -6 -8 -9 4 -8 35 0 26 2 39 4 29 3 -15 6 -16 13 -5 7 9
8 4 3 -16 -4 -23 -3 -27 5 -15 9 12 10 8 5 -15 -4 -20 -3 -26 4 -17 7 11 11 8
16 -11 3 -14 3 -34 0 -44 -5 -15 -4 -16 6 -3 9 12 10 9 6 -15 -5 -23 -4 -26 4
-13 7 12 6 37 -5 86 -12 50 -13 76 -6 95 6 15 13 27 16 27 2 0 0 -12 -5 -26
-15 -40 -11 -63 5 -29 l14 30 -5 -30 c-4 -19 -2 -25 3 -17 7 8 22 -34 49 -128
21 -77 40 -136 42 -131 2 5 -10 61 -27 124 -16 63 -28 123 -25 133 3 11 -2 39
-11 63 -8 24 -13 46 -11 48 4 4 106 -283 106 -299 0 -6 3 -9 6 -5 3 3 -6 41
-20 85 -15 43 -24 87 -20 98 5 16 4 17 -6 4 -9 -12 -10 -10 -5 13 4 20 2 27
-6 22 -8 -5 -9 -1 -4 15 5 17 4 21 -5 15 -9 -5 -11 -4 -6 4 4 6 -2 37 -14 67
-33 89 -18 72 25 -26 21 -50 40 -89 42 -87 2 2 -4 21 -12 41 -49 118 -53 131
-40 143 26 24 131 -208 166 -367 l19 -85 -6 63 c-7 82 -46 216 -84 292 -17 33
-28 60 -26 60 8 0 105 -175 147 -264 40 -85 63 -119 34 -50 -21 50 -18 56 6
14 30 -53 15 -4 -36 118 -24 56 -42 102 -40 102 2 0 35 -52 75 -115 39 -63 73
-115 74 -115 1 0 3 7 3 15 0 8 -5 15 -10 15 -6 0 -7 3 -4 7 4 3 -18 54 -49
112 -62 118 -43 103 38 -31 29 -48 54 -85 56 -83 3 3 -23 54 -85 163 -43 76
-16 44 52 -63 37 -58 71 -105 76 -105 5 0 -9 34 -32 75 -49 90 -45 99 7 15 38
-62 47 -72 38 -42 -3 9 2 5 11 -10 22 -38 26 -35 19 12 -4 25 -3 40 4 40 6 0
13 -6 15 -12 3 -7 6 5 7 27 l1 40 14 -39 c8 -22 12 -43 9 -48 -3 -4 0 -8 5 -8
6 0 11 -12 11 -27 0 -16 4 -34 9 -41 11 -18 20 16 22 78 1 44 2 44 14 -20 9
-52 12 -59 16 -35 4 30 4 30 27 -17 26 -53 38 -62 28 -22 -4 16 -3 23 3 20 6
-4 13 10 17 31 l7 38 9 -30 c5 -17 4 -50 -2 -78 -13 -63 -11 -71 6 -22 l14 40
-6 -40 c-15 -102 -15 -102 -1 -60 l13 40 8 -29 c5 -20 3 -32 -6 -37 -7 -5 -8
-9 -3 -9 20 0 37 18 31 31 -4 8 0 5 8 -5 9 -11 19 -36 23 -55 6 -34 7 -35 14
-11 7 24 7 24 8 -5 0 -16 -4 -47 -8 -69 -6 -24 -6 -35 0 -29 5 5 15 49 21 99
l12 89 8 -50 c4 -27 5 -66 3 -85 -5 -32 -5 -33 6 -10 6 14 9 49 7 77 -3 29 -3
51 -1 50 2 -2 14 -35 27 -73 14 -38 25 -62 25 -53 1 9 -6 36 -14 59 -18 52
-19 63 -1 32 10 -19 14 -21 24 -10 8 11 5 27 -14 67 -35 78 -23 73 19 -6 39
-73 50 -68 17 7 l-20 45 26 -30 27 -30 -22 40 -22 40 26 -28 c38 -42 30 -17
-12 39 -20 27 -27 40 -15 30 12 -11 22 -15 22 -9 0 16 -36 44 -45 36 -4 -5 -5
-2 -1 5 5 7 2 21 -6 30 -7 10 10 -8 39 -38 53 -56 71 -89 30 -54 l-22 19 19
-23 c11 -12 21 -20 24 -17 3 3 11 0 19 -6 7 -6 13 -9 13 -6 0 9 -84 113 -139
172 l-46 50 50 -45 c28 -25 75 -67 105 -95 77 -71 22 -6 -74 88 l-81 78 113
-86 c118 -89 159 -114 76 -45 -27 22 -49 46 -49 53 0 6 -9 11 -19 9 -11 -2
-15 1 -11 8 4 6 1 9 -7 8 -7 -2 -12 3 -11 10 3 10 -8 16 -28 14 -3 -1 -6 5 -6
13 0 8 34 -9 84 -41 95 -62 103 -57 13 7 -57 40 -86 68 -37 37 12 -8 49 -30
82 -48 93 -50 26 0 -102 76 -62 37 -113 69 -113 70 0 4 166 -75 212 -101 49
-28 72 -33 42 -9 -19 15 -19 16 1 10 l20 -6 -20 16 c-11 9 -74 43 -140 76
-137 68 -125 67 47 -3 67 -26 117 -44 111 -38 -5 5 -74 36 -154 69 -79 33
-139 60 -134 60 6 0 77 -21 157 -48 169 -54 183 -49 22 8 -136 48 -125 51 21
5 60 -19 111 -33 113 -31 3 4 -57 26 -228 86 -47 16 -69 27 -50 24 40 -7 242
-74 280 -93 l25 -12 -23 20 c-13 11 -72 36 -130 55 -125 41 -117 46 18 11 129
-33 135 -30 15 10 -106 36 -110 44 -10 20 33 -8 67 -14 75 -14 39 1 -98 38
-252 69 -38 8 -58 16 -58 26 0 8 1 14 3 14 1 0 36 -9 77 -20 109 -29 120 -23
16 9 -49 14 -91 32 -94 39 -3 9 4 9 28 1 17 -6 33 -9 36 -6 3 3 -11 11 -30 18
-25 9 -36 19 -36 34 0 36 -13 44 -72 42 -45 -2 -54 1 -46 11 9 10 6 11 -15 3
-24 -9 -27 -8 -33 14 -4 18 -13 25 -30 25 -13 0 -24 5 -24 12 0 6 -3 8 -7 5
-3 -4 -14 0 -24 9 -15 14 -21 14 -46 1 -15 -8 -41 -17 -58 -21 -16 -4 -38 -15
-48 -23 -9 -9 -20 -14 -23 -10 -3 3 4 10 15 17 22 11 28 30 10 30 -6 0 -30
-13 -54 -29 -29 -20 -46 -26 -53 -19 -7 7 -62 -23 -174 -94 -90 -58 -201 -127
-248 -153 -121 -68 -269 -161 -425 -265 -74 -49 -138 -90 -142 -90 -5 0 -20
27 -35 60 -14 33 -22 60 -18 60 5 0 11 -8 14 -17 3 -10 17 -31 31 -48 17 -22
13 -8 -17 49 -22 43 -36 76 -29 72 17 -11 13 5 -9 42 -32 52 -7 29 35 -33 44
-63 62 -67 21 -4 -15 23 -23 38 -17 35 17 -11 13 10 -5 24 -8 8 -20 23 -25 34
-5 12 11 -1 36 -29 43 -47 62 -81 30 -55 -27 23 -16 -6 14 -34 44 -42 47 -15
6 51 l-36 58 51 -55 51 -55 -46 70 c-49 73 -36 63 58 -45 63 -73 60 -51 -4 31
l-51 64 66 -65 c36 -35 66 -61 66 -56 0 5 -30 43 -67 85 l-68 76 60 -49 60
-50 -42 45 c-24 25 -43 48 -43 52 0 4 30 -16 67 -45 79 -62 77 -58 -27 64 -76
89 -100 126 -62 97 9 -7 38 -31 64 -52 63 -51 69 -32 8 28 -44 43 -54 65 -31
65 14 0 111 -122 105 -131 -3 -5 -10 -6 -16 -3 -7 5 -8 2 -3 -5 5 -9 10 -10
18 -2 8 8 17 6 31 -7 11 -9 3 8 -18 38 l-37 55 56 -60 56 -60 -52 79 c-28 43
-46 76 -40 72 12 -8 15 5 4 20 -5 5 4 -4 19 -21 15 -16 46 -58 69 -92 23 -35
43 -63 45 -63 9 0 -20 58 -61 123 l-46 72 62 -65 61 -65 -49 63 c-26 35 -57
75 -67 90 -19 27 -19 27 15 -3 19 -16 53 -48 77 -69 57 -54 54 -38 -5 26 l-48
52 65 -48 c64 -47 46 -26 -40 47 l-45 38 65 -35 c59 -32 150 -69 150 -62 0 2
-33 19 -72 39 -68 33 -138 88 -138 108 0 18 20 8 160 -84 83 -54 69 -30 -16
29 -80 55 -56 55 33 0 61 -37 72 -42 53 -21 -14 15 -67 47 -118 73 -63 31 -88
48 -79 54 8 4 52 18 98 32 94 28 88 34 -10 11 -35 -9 -66 -14 -68 -12 -6 7
132 56 246 88 98 27 129 39 104 39 -6 0 -73 -16 -149 -35 -76 -19 -139 -33
-141 -31 -2 2 17 11 42 20 24 10 47 22 50 26 3 5 -24 -2 -61 -16 -37 -13 -68
-23 -71 -20 -2 2 16 12 42 21 25 10 44 20 42 22 -3 2 -17 -1 -32 -7 -15 -6
-30 -9 -32 -6 -8 8 188 97 291 132 104 35 113 45 16 19 -30 -8 -59 -15 -65
-14 -16 1 35 19 110 40 69 19 69 20 20 15 l-50 -4 45 14 c25 9 69 18 97 21 29
3 50 10 47 14 -3 5 8 9 25 9 16 0 33 5 36 10 3 6 30 11 58 11 l52 1 -70 13
c-64 11 -66 13 -30 15 28 3 18 5 -35 9 l-75 6 120 10 120 10 -85 5 -85 5 95
11 95 11 -75 3 -75 3 75 7 c41 4 90 3 108 -1 32 -7 33 -6 17 11 -12 14 -13 20
-4 26 8 5 10 3 4 -6 -5 -8 -3 -11 6 -8 8 3 29 -1 48 -9 26 -10 37 -11 45 -2 8
9 8 10 0 6 -7 -4 -14 0 -17 8 -4 10 -1 12 11 9 16 -5 16 -5 0 8 -9 7 -25 19
-35 26 -16 11 -16 11 3 3 12 -6 24 -7 28 -4 3 3 6 2 6 -3 0 -5 13 -9 30 -10
16 -1 27 3 24 7 -3 5 2 6 10 3 9 -3 13 -11 9 -17 -3 -6 -1 -7 5 -3 6 4 22 1
34 -5 22 -12 22 -11 8 7 -15 18 -14 18 15 0 17 -10 39 -26 51 -35 11 -9 1 3
-23 26 l-44 42 73 -24 c47 -16 66 -19 54 -10 -11 8 -27 16 -35 16 -9 1 -2 5
14 8 29 7 28 8 -18 15 -43 8 -46 10 -30 22 16 12 11 14 -37 15 -50 1 -52 2
-20 9 l35 7 -30 3 c-30 2 -30 2 -5 10 22 7 21 8 -12 9 -21 1 -60 10 -88 21
-58 23 -64 24 -55 10 3 -5 3 -10 0 -10 -10 0 -65 30 -65 36 0 3 4 3 9 0 5 -4
17 -3 26 0 13 5 14 9 4 15 -7 4 -29 1 -48 -7 -32 -12 -34 -12 -17 1 11 8 18
16 15 16 -25 7 -58 6 -54 -1 3 -5 1 -11 -4 -14 -5 -4 -12 -2 -15 3 -4 5 -2 12
4 16 6 4 8 10 5 15 -3 4 7 6 22 4 16 -3 37 -5 48 -5 16 0 17 -2 5 -9 -8 -5
-10 -10 -4 -10 5 0 19 7 30 15 18 15 18 15 0 8 -13 -4 -17 -3 -12 5 5 8 1 10
-10 5 -13 -5 -15 -3 -9 8 6 11 5 12 -6 2 -18 -18 -34 -16 -20 1 8 10 9 16 1
21 -10 6 -14 -1 -11 -19 1 -5 -4 -6 -12 -3 -13 5 -41 -11 -48 -28 -2 -5 -8 -9
-12 -7 -5 1 -31 -14 -58 -34 -75 -55 -58 -34 30 37 78 62 101 89 45 52 -16
-10 -29 -16 -30 -13 -1 3 -6 1 -11 -4 -5 -5 -2 -6 6 -1 10 6 12 4 7 -4 -5 -7
-10 -10 -13 -7 -3 3 -15 0 -27 -6 -11 -7 -23 -13 -26 -13 -3 0 -16 -7 -30 -14
-25 -14 -25 -13 3 16 45 49 30 50 -20 2 -69 -65 -94 -81 -50 -31 65 73 40 60
-50 -29 -49 -46 -101 -96 -117 -109 l-29 -25 22 38 c34 56 21 53 -26 -6 -23
-29 -63 -72 -89 -97 l-46 -45 17 35 c25 51 8 29 -85 -105 -179 -259 -360 -455
-399 -431 -5 3 -35 -3 -66 -14 -32 -11 -60 -18 -62 -16 -3 2 16 16 41 31 25
15 44 30 41 35 -2 4 13 15 35 25 22 10 39 20 36 22 -2 2 -38 -12 -81 -32 -124
-56 -101 -39 40 31 72 35 126 64 122 64 -4 0 -81 -32 -170 -71 -89 -39 -169
-73 -177 -75 -42 -15 179 102 272 143 59 26 105 49 103 51 -2 2 -52 -17 -111
-42 -59 -25 -109 -44 -111 -42 -2 2 15 15 37 30 22 14 40 29 40 32 0 3 -3 3
-7 1 -5 -3 -39 -24 -78 -47 -38 -23 -73 -44 -77 -47 -5 -2 -8 -2 -8 0 0 2 49
37 110 77 60 40 108 75 106 79 -3 4 15 19 40 35 56 36 57 44 2 13 -24 -14 -74
-43 -113 -64 -164 -94 -150 -78 31 36 167 104 176 135 15 50 -64 -34 -113 -58
-109 -54 4 4 51 36 105 71 54 35 92 64 85 64 -8 0 -10 5 -6 12 4 6 -45 -16
-109 -50 -64 -34 -117 -60 -117 -58 0 2 50 32 110 66 61 34 109 64 106 67 -2
3 -13 0 -24 -6 -12 -6 -24 -11 -29 -11 -4 1 8 9 27 20 19 11 32 19 29 20 -6 0
-295 -126 -311 -137 -5 -2 -8 -1 -8 2 0 3 69 40 153 81 184 92 158 88 -48 -7
-183 -84 -154 -57 50 47 83 42 152 78 155 81 12 12 -133 -48 -207 -86 -46 -23
-83 -39 -83 -37 0 3 41 28 90 56 50 28 90 53 90 56 0 2 -54 -23 -120 -56 -66
-33 -120 -58 -120 -56 0 2 34 27 75 55 41 29 73 56 70 61 -3 5 5 14 17 20 22
11 22 10 4 -4 -29 -23 -9 -19 24 4 16 11 27 27 26 35 -3 18 -5 19 -28 10 -23
-9 -13 -26 10 -18 14 5 15 3 5 -8 -10 -10 -16 -10 -25 -1 -7 7 -17 8 -28 2
-12 -6 -17 -5 -17 4 0 7 7 13 16 12 9 0 16 4 16 11 0 6 26 32 59 57 32 25 54
46 50 46 -5 0 -20 -9 -34 -20 -31 -24 -47 -26 -29 -3 8 9 -3 4 -23 -11 -21
-16 -36 -32 -33 -36 3 -5 0 -12 -6 -16 -7 -4 -9 -3 -5 4 16 27 -16 18 -70 -19
l-59 -40 80 78 c44 43 83 77 86 76 4 -2 12 4 19 12 7 8 9 15 5 15 -4 0 -2 8 5
18 7 9 -5 -1 -26 -23 -21 -22 -41 -40 -44 -40 -3 0 -36 -27 -74 -60 -123 -109
-123 -88 0 32 66 65 106 106 89 90 -34 -30 -56 -26 -28 5 22 25 24 44 7 59
-13 10 -12 14 2 30 10 11 14 19 9 19 -4 0 -2 7 5 15 7 8 9 15 5 15 -4 0 -2 7
5 15 7 8 9 15 5 15 -5 0 0 10 11 22 16 19 -85 -68 -199 -171 l-27 -25 7 34 c5
26 34 65 109 144 108 115 133 167 35 74 -123 -118 -139 -122 -47 -13 l50 60
-47 -45 c-58 -54 -66 -31 -11 30 36 40 37 55 2 23 -18 -16 -19 -16 -8 12 6 17
26 46 43 65 28 30 28 32 4 10 l-29 -25 21 53 c12 28 30 76 42 105 36 89 39 97
34 97 -2 0 -11 -12 -20 -27 -17 -30 -17 -30 2 37 2 8 -7 -5 -21 -30 -28 -51
-33 -50 -11 3 23 54 17 58 -10 7 -30 -55 -31 -50 -5 25 24 70 20 86 -5 20 -10
-25 -20 -44 -22 -41 -2 2 5 28 17 57 25 67 25 74 -1 29 -19 -34 -19 -31 -2 30
2 8 -2 4 -11 -10 -8 -14 -23 -54 -32 -90 -14 -51 -34 -87 -97 -172 -82 -112
-106 -138 -62 -67 20 31 24 44 15 54 -9 10 -7 13 7 11 17 -3 27 9 76 85 l17
25 -47 -1 c-32 0 -48 -5 -51 -15 -3 -13 -2 -13 8 0 10 13 11 12 6 -3 -3 -10
-2 -16 4 -12 6 4 7 -2 4 -12 -5 -15 -4 -15 5 -3 8 12 10 8 8 -15 -2 -24 -7
-29 -30 -30 -15 -1 -30 1 -32 5 -3 4 9 6 26 5 19 -2 28 2 26 9 -2 6 -18 11
-35 11 -16 0 -34 3 -38 7 -3 4 3 5 15 3 15 -3 21 0 18 8 -3 7 -10 11 -16 9 -7
-1 -10 2 -6 8 3 6 11 7 17 4 8 -5 9 -1 5 10 -4 9 -3 15 2 12 5 -3 11 0 14 8 3
8 17 13 36 11 17 -1 34 2 38 8 4 6 1 7 -7 2 -10 -6 -12 -4 -7 8 4 11 1 15 -12
12 -14 -2 -18 3 -18 21 0 14 4 21 10 17 6 -3 7 -1 3 5 -4 7 -9 12 -11 12 -2 0
-20 -27 -40 -60 -20 -33 -38 -60 -41 -60 -2 0 14 36 37 81 65 130 39 101 -36
-38 -82 -155 -101 -180 -45 -58 67 144 80 176 70 170 -13 -8 -13 1 0 26 6 10
8 19 5 19 -2 0 -28 -44 -55 -97 -28 -54 -48 -89 -44 -78 4 11 7 33 7 48 0 16
3 23 7 17 5 -8 11 -2 18 17 23 63 24 68 8 43 -18 -30 -20 -24 -5 19 9 24 14
29 20 19 5 -7 9 -8 9 -3 0 6 -4 16 -9 23 -5 9 -22 -18 -51 -82 -24 -53 -45
-94 -47 -92 -4 4 43 145 69 205 10 24 17 46 14 48 -2 2 -12 -17 -22 -42 -12
-33 -20 -42 -26 -33 -5 8 -6 2 -2 -17 4 -24 3 -27 -6 -15 -9 12 -10 10 -5 -9
5 -14 3 -21 -3 -17 -5 3 -15 -15 -22 -39 -19 -69 -23 -46 -5 25 9 34 14 64 12
67 -3 2 -10 -19 -17 -47 -7 -28 -14 -49 -17 -47 -2 3 3 32 11 65 9 33 13 67
10 76 -3 9 -1 16 5 16 6 0 8 7 4 17 -6 15 -7 15 -15 -3 -5 -12 -7 -5 -3 21 4
33 3 36 -5 16 -6 -13 -8 -40 -5 -60 5 -35 5 -35 -5 -6 -5 17 -8 46 -5 65 4 27
0 22 -14 -20 -22 -65 -26 -41 -8 47 8 34 10 60 6 57 -5 -3 -11 -21 -15 -40 -5
-25 -9 -32 -15 -22 -5 8 -6 -3 -4 -27 4 -29 3 -35 -4 -20 -8 17 -9 15 -14 -15
-2 -19 -3 6 -1 55 2 70 1 81 -6 50 -5 -22 -10 -56 -11 -75 -2 -20 -5 -6 -9 35
-5 51 -7 59 -8 28 -1 -24 -6 -43 -11 -43 -4 0 -7 12 -5 28 2 15 1 19 -2 9 -5
-16 -7 -15 -25 5 -20 23 -20 23 -10 1 14 -28 15 -54 1 -33 -8 13 -10 12 -11
-5 -1 -11 -5 -4 -9 15 -5 24 -8 28 -9 12 0 -13 -5 -21 -9 -18 -12 7 -32 -60
-22 -71 5 -4 5 -33 1 -63 -8 -53 -9 -53 -11 -15 -1 22 -6 51 -10 65 -5 15 -6
-4 -4 -50 l3 -75 -12 95 c-12 90 -13 93 -20 52 -4 -24 -5 -67 -2 -95 4 -37 -1
-24 -18 45 -13 54 -27 101 -32 105 -4 5 -5 -3 -2 -17 3 -14 8 -50 11 -80 5
-52 4 -50 -18 30 -16 61 -24 78 -27 60 -4 -20 -8 -12 -22 35 l-17 60 5 -50 5
-50 -20 49 c-11 28 -27 57 -35 65 -13 13 -12 7 3 -29z m399 -192 c-3 -8 -6 -5
-6 6 -1 11 2 17 5 13 3 -3 4 -12 1 -19z m189 -105 c-8 -15 -15 -25 -16 -21 0
12 23 58 27 54 3 -2 -2 -17 -11 -33z m-596 -38 c13 -14 21 -25 18 -25 -2 0
-15 11 -28 25 -13 14 -21 25 -18 25 2 0 15 -11 28 -25z m666 -13 c1 -15 -1
-21 -3 -14 -4 10 -9 8 -19 -5 -12 -14 -11 -11 1 15 8 17 17 32 18 32 1 0 3
-12 3 -28z m24 -66 c0 6 7 11 15 11 20 0 19 -7 -5 -37 -11 -14 -18 -18 -14 -9
3 10 1 20 -5 24 -6 3 -11 12 -11 18 0 7 4 6 10 -3 5 -8 10 -10 10 -4z m-1679
-253 c13 -16 12 -17 -3 -4 -10 7 -18 15 -18 17 0 8 8 3 21 -13z m1609 13 c0
-2 -8 -10 -17 -17 -16 -13 -17 -12 -4 4 13 16 21 21 21 13z m19 -42 c-7 -8
-21 -20 -32 -26 -15 -8 -13 -1 9 26 16 20 31 31 32 26 2 -6 -2 -18 -9 -26z
m271 23 c0 -2 -15 -16 -32 -33 l-33 -29 29 33 c28 30 36 37 36 29z m-1955 -97
c3 -5 2 -10 -4 -10 -5 0 -13 5 -16 10 -3 6 -2 10 4 10 5 0 13 -4 16 -10z
m1945 -35 c-7 -8 -9 -15 -5 -15 4 0 2 -7 -5 -15 -7 -8 -9 -15 -5 -15 5 0 1 -8
-8 -18 -13 -14 -14 -21 -5 -30 19 -19 18 -39 -3 -58 -10 -9 -20 -14 -20 -11
-1 4 -2 13 -3 20 -1 6 -8 11 -16 9 -11 -3 -11 0 1 14 8 9 15 25 15 36 1 10 2
20 3 23 0 3 1 8 0 11 -1 3 12 19 27 35 29 30 46 40 24 14z m-1293 -107 c-3 -8
-6 -5 -6 6 -1 11 2 17 5 13 3 -3 4 -12 1 -19z m163 17 c0 -2 -10 -9 -22 -15
-22 -11 -22 -10 -4 4 21 17 26 19 26 11z m2364 -74 c-2 -3 -12 3 -22 13 -16
17 -16 18 5 5 12 -7 20 -15 17 -18z m-1269 -31 c-3 -5 -13 -6 -23 -3 -9 3 -14
2 -9 -2 9 -11 -23 -46 -35 -39 -5 3 -2 15 8 25 9 10 14 19 9 19 -4 0 -2 7 5
15 9 11 17 12 31 4 11 -5 17 -14 14 -19z m1390 10 l20 -9 -20 0 c-11 0 -27 4
-35 9 -13 9 -13 10 0 9 8 0 24 -4 35 -9z m-2718 -32 c-3 -8 -6 -5 -6 6 -1 11
2 17 5 13 3 -3 4 -12 1 -19z m60 -10 c-3 -8 -6 -5 -6 6 -1 11 2 17 5 13 3 -3
4 -12 1 -19z m239 -45 c-7 -7 -56 17 -56 27 0 7 13 4 30 -6 16 -10 28 -19 26
-21z m1104 2 c-7 -8 -18 -15 -24 -15 -6 0 -2 7 8 15 25 19 32 19 16 0z m-1663
-51 c-3 -3 -12 -4 -19 -1 -8 3 -5 6 6 6 11 1 17 -2 13 -5z m2410 -30 c-3 -3
-12 -4 -19 -1 -8 3 -5 6 6 6 11 1 17 -2 13 -5z m-2380 -30 c-3 -3 -12 -4 -19
-1 -8 3 -5 6 6 6 11 1 17 -2 13 -5z m2551 -11 c-15 -2 -42 -2 -60 0 -18 2 -6
4 27 4 33 0 48 -2 33 -4z m-2551 -29 c-3 -3 -12 -4 -19 -1 -8 3 -5 6 6 6 11 1
17 -2 13 -5z m-64 -11 c-7 -2 -21 -2 -30 0 -10 3 -4 5 12 5 17 0 24 -2 18 -5z
m1867 -78 c0 -2 -24 -17 -52 -31 -59 -29 -59 -23 -1 12 37 23 53 29 53 19z
m39 -39 c-2 -2 -15 -9 -29 -15 -24 -11 -24 -11 -6 3 16 13 49 24 35 12z m-59
-31 c0 -2 -10 -9 -22 -15 -22 -11 -22 -10 -4 4 21 17 26 19 26 11z m400 -5
c-8 -5 -19 -10 -25 -10 -5 0 -3 5 5 10 8 5 20 10 25 10 6 0 3 -5 -5 -10z
m-430 -74 c0 -2 -7 -7 -16 -10 -8 -3 -12 -2 -9 4 6 10 25 14 25 6z m-1473
-172 c-3 -3 -12 -4 -19 -1 -8 3 -5 6 6 6 11 1 17 -2 13 -5z m1392 -28 c-10 -9
-89 -46 -89 -41 0 6 72 44 84 45 5 0 7 -2 5 -4z m1238 -2 c-3 -3 -12 -4 -19
-1 -8 3 -5 6 6 6 11 1 17 -2 13 -5z m-2946 -35 c-16 -6 -28 -6 -35 1 -7 7 1
10 25 9 32 0 33 -1 10 -10z m3026 -4 c8 -22 -5 -31 -26 -18 -14 9 -27 7 -61
-8 -23 -10 -52 -19 -64 -18 -21 0 107 57 132 58 7 1 15 -6 19 -14z m-2722 -26
c-229 -22 -279 -23 -295 -4 -12 15 49 18 375 22 94 0 89 -1 -80 -18z m1469 -5
c-10 -15 -55 -44 -108 -70 -50 -24 -83 -38 -73 -32 10 7 26 19 35 26 15 12 15
13 -3 7 -11 -3 -16 -3 -12 1 10 10 160 93 170 93 4 1 0 -11 -9 -25z m-1339 -9
c-21 -8 -294 -55 -318 -55 -13 0 -30 7 -37 15 -7 8 -11 15 -9 16 49 11 389 33
364 24z m2759 -11 c10 -27 7 -34 -18 -34 -33 0 -44 20 -21 37 24 17 32 17 39
-3z m-99 -14 c3 -5 -1 -10 -9 -10 -9 0 -16 5 -16 10 0 6 4 10 9 10 6 0 13 -4
16 -10z m-2828 -45 c-88 -31 -127 -35 -127 -16 0 6 179 48 210 49 8 0 -29 -15
-83 -33z m2933 -5 c0 -12 -8 -12 -35 0 -18 8 -17 9 8 9 15 1 27 -3 27 -9z
m-2786 -10 c-76 -27 -205 -53 -214 -44 -14 14 112 49 182 50 28 0 43 -2 32 -6z
m2784 -27 c2 -8 -6 -13 -22 -13 -25 0 -33 10 -19 24 10 10 36 3 41 -11z
m-2772 -44 c-123 -47 -130 -49 -153 -33 -14 8 -22 18 -19 22 20 19 178 60 236
61 l65 0 -129 -50z m1254 36 c0 -2 -21 -16 -47 -29 -27 -14 -42 -25 -35 -26 7
0 23 5 34 11 21 11 21 11 0 -19 -12 -16 -34 -33 -49 -36 -16 -4 -37 -9 -48
-12 -11 -2 0 6 24 19 49 27 41 48 -8 22 -66 -34 -41 -11 34 30 77 43 95 51 95
40z m1217 -37 c-3 -8 -6 -5 -6 6 -1 11 2 17 5 13 3 -3 4 -12 1 -19z m-2932
-35 c-2 -21 -5 -56 -9 -78 l-6 -40 13 35 14 35 6 -27 c4 -14 5 -41 2 -60 -4
-26 -2 -23 9 12 16 52 21 33 6 -21 l-10 -36 -123 39 c-67 22 -128 42 -136 44
-16 5 44 61 101 94 37 21 37 21 33 0 -5 -28 -15 -41 -25 -35 -5 3 -11 2 -14
-3 -14 -23 28 -5 53 22 29 32 56 46 48 24 -2 -7 -10 -12 -16 -10 -7 1 -10 -2
-6 -8 4 -6 -1 -23 -11 -38 -16 -25 -16 -26 0 -13 9 8 29 34 43 58 13 24 26 43
28 43 1 0 1 -17 0 -37z m632 -9 c-3 -3 -12 -4 -19 -1 -8 3 -5 6 6 6 11 1 17
-2 13 -5z m-187 -19 c-19 -7 -42 -13 -50 -13 -8 0 1 6 20 13 19 7 42 13 50 13
8 0 -1 -6 -20 -13z m149 11 c-7 -8 -171 -47 -176 -43 -4 5 68 30 112 40 27 6
69 8 64 3z m-1606 -13 c-7 -2 -19 -2 -25 0 -7 3 -2 5 12 5 14 0 19 -2 13 -5z
m723 -28 c-11 -8 -25 -15 -30 -15 -6 1 0 7 14 15 32 19 40 18 16 0z m1884 -24
c0 -8 -85 -42 -99 -40 -5 0 85 46 97 48 1 1 2 -3 2 -8z m-1063 -17 c-18 -10
-36 -12 -50 -7 -19 6 -16 8 18 14 61 10 62 9 32 -7z m948 -4 c-3 -5 -12 -10
-18 -10 -7 0 -6 4 3 10 19 12 23 12 15 0z m1955 -80 c52 -27 91 -49 85 -49 -5
0 -53 22 -105 49 -52 27 -90 49 -85 49 6 0 53 -22 105 -49z m-2845 30 c-27
-12 -43 -12 -25 0 8 5 22 9 30 9 10 0 8 -3 -5 -9z m955 1 c-8 -5 -28 -11 -45
-14 l-30 -6 30 14 c34 16 72 21 45 6z m-1449 -34 c-10 -9 -11 -8 -5 6 3 10 9
15 12 12 3 -3 0 -11 -7 -18z m596 17 c-3 -3 -12 -4 -19 -1 -8 3 -5 6 6 6 11 1
17 -2 13 -5z m-48 -8 c-2 -2 -17 -6 -34 -10 -22 -5 -26 -4 -15 4 14 9 59 15
49 6z m864 -23 c-7 -2 -19 -2 -25 0 -7 3 -2 5 12 5 14 0 19 -2 13 -5z m297
-25 c0 -6 -7 -5 -15 2 -8 7 -15 17 -15 22 0 6 7 5 15 -2 8 -7 15 -17 15 -22z
m1145 -66 c-5 -5 -25 69 -24 88 0 8 7 -7 14 -35 8 -27 12 -51 10 -53z m-2224
63 c-43 -21 -56 -23 -69 -13 -12 10 -6 14 34 24 80 19 92 15 35 -11z m-1994
-1 c-3 -3 -12 -4 -19 -1 -8 3 -5 6 6 6 11 1 17 -2 13 -5z m4182 -89 c0 -5 -11
10 -24 35 -13 25 -24 50 -24 55 0 6 11 -10 24 -35 13 -25 24 -49 24 -55z
m-4215 76 c4 -5 -3 -7 -14 -4 -23 6 -26 13 -6 13 8 0 17 -4 20 -9z m2770 -26
c-4 -10 -19 -15 -48 -14 l-41 1 45 13 c25 7 46 13 47 14 1 1 0 -6 -3 -14z
m1533 -7 c-3 -8 -6 -5 -6 6 -1 11 2 17 5 13 3 -3 4 -12 1 -19z m70 -50 c-2
-13 -4 -5 -4 17 -1 22 1 32 4 23 2 -10 2 -28 0 -40z m-3417 29 c0 -2 -10 -12
-22 -23 l-23 -19 19 23 c18 21 26 27 26 19z m1790 -7 c0 -5 -19 -9 -42 -9 -40
1 -41 2 -13 9 44 11 55 11 55 0z m-2065 -60 c-40 -40 -62 -56 -70 -50 -7 6
-17 5 -26 -3 -8 -6 4 7 25 30 28 30 43 40 51 33 14 -12 39 12 27 25 -4 5 -2 5
4 2 7 -4 17 0 24 8 7 8 15 15 18 15 4 0 -20 -27 -53 -60z m945 15 c0 -5 -5 -3
-10 5 -5 8 -10 20 -10 25 0 6 5 3 10 -5 5 -8 10 -19 10 -25z m537 19 c-3 -3
-12 -4 -19 -1 -8 3 -5 6 6 6 11 1 17 -2 13 -5z m1230 -26 c-3 -8 -6 -5 -6 6
-1 11 2 17 5 13 3 -3 4 -12 1 -19z m39 -105 c-10 -11 -13 0 -19 67 l-5 65 15
-63 c8 -35 12 -66 9 -69z m-2502 108 c3 -4 -3 -16 -13 -25 -14 -13 -18 -14
-18 -2 0 8 5 14 11 13 6 -1 10 4 9 11 -3 14 3 16 11 3z m3553 -13 c-3 -8 -6
-5 -6 6 -1 11 2 17 5 13 3 -3 4 -12 1 -19z m-4330 -20 c-3 -8 -6 -5 -6 6 -1
11 2 17 5 13 3 -3 4 -12 1 -19z m1110 0 c-3 -8 -6 -5 -6 6 -1 11 2 17 5 13 3
-3 4 -12 1 -19z m3160 0 c-3 -8 -6 -5 -6 6 -1 11 2 17 5 13 3 -3 4 -12 1 -19z
m-3377 6 c0 -8 -19 -13 -24 -6 -3 5 1 9 9 9 8 0 15 -2 15 -3z m-593 -19 c0 -8
-4 -12 -9 -9 -5 3 -6 10 -3 15 9 13 12 11 12 -6z m1250 -7 c-3 -8 -6 -5 -6 6
-1 11 2 17 5 13 3 -3 4 -12 1 -19z m2790 -10 c-3 -8 -6 -5 -6 6 -1 11 2 17 5
13 3 -3 4 -12 1 -19z m-2107 7 c0 -2 -10 -9 -22 -15 -22 -11 -22 -10 -4 4 21
17 26 19 26 11z m-1886 -30 c-9 -14 -18 -25 -21 -25 -5 0 5 18 20 38 17 22 18
13 1 -13z m-404 -1 c0 -8 -4 -12 -10 -9 -5 3 -10 10 -10 16 0 5 5 9 10 9 6 0
10 -7 10 -16z m2130 -7 c-27 -17 -33 -18 -41 -6 -15 23 -11 26 32 26 l41 0
-32 -20z m70 20 c0 -2 -18 -18 -40 -36 -24 -19 -40 -27 -40 -18 0 7 17 23 38
35 39 23 42 24 42 19z m340 -19 c0 -18 -52 -138 -59 -138 -7 0 -64 120 -59
125 5 4 82 23 101 24 9 1 17 -5 17 -11z m-240 -5 c0 -5 -7 -16 -14 -26 -12
-16 -14 -16 -20 -1 -3 9 -4 20 0 25 6 11 34 12 34 2z m461 -41 c-7 -2 -23 6
-35 18 l-21 22 35 -18 c21 -10 30 -19 21 -22z m1646 16 c-3 -8 -6 -5 -6 6 -1
11 2 17 5 13 3 -3 4 -12 1 -19z m-2760 -10 c-3 -8 -6 -5 -6 6 -1 11 2 17 5 13
3 -3 4 -12 1 -19z m562 19 c-2 -1 -15 -11 -29 -22 l-25 -20 19 23 c11 12 24
22 29 22 6 0 8 -1 6 -3z m1051 -1 c0 -3 -4 -8 -10 -11 -5 -3 -10 -1 -10 4 0 6
5 11 10 11 6 0 10 -2 10 -4z m-589 -30 c16 -14 25 -27 21 -30 -5 -3 -22 8 -37
24 -35 36 -24 40 16 6z m-934 -8 c-3 -8 -6 -5 -6 6 -1 11 2 17 5 13 3 -3 4
-12 1 -19z m463 8 c0 -2 -8 -10 -17 -17 -16 -13 -17 -12 -4 4 13 16 21 21 21
13z m30 -6 c0 -5 -5 -10 -11 -10 -5 0 -7 5 -4 10 3 6 8 10 11 10 2 0 4 -4 4
-10z m-1345 -10 c-3 -5 -12 -10 -18 -10 -7 0 -6 4 3 10 19 12 23 12 15 0z
m1745 -41 c0 -12 -79 -49 -93 -43 -14 5 -13 11 5 49 l21 43 33 -21 c19 -12 34
-25 34 -28z m25 31 c10 -11 13 -20 7 -20 -6 0 -16 9 -22 20 -6 11 -9 20 -7 20
2 0 12 -9 22 -20z m1810 -11 c10 -43 1 -46 -12 -4 -6 19 -7 35 -3 35 5 0 11
-14 15 -31z m-2768 -1 c-3 -8 -6 -5 -6 6 -1 11 2 17 5 13 3 -3 4 -12 1 -19z
m622 -58 c0 -8 -7 -3 -15 13 -8 15 -12 33 -7 40 7 12 20 -20 22 -53z m-612 -2
c-3 -7 -5 -2 -5 12 0 14 2 19 5 13 2 -7 2 -19 0 -25z m533 18 c0 -3 -4 -8 -10
-11 -5 -3 -10 -1 -10 4 0 6 5 11 10 11 6 0 10 -2 10 -4z m-80 -32 c0 -8 -4
-14 -10 -14 -5 0 -10 9 -10 21 0 11 5 17 10 14 6 -3 10 -13 10 -21z m98 -9
c-3 -3 -9 2 -12 12 -6 14 -5 15 5 6 7 -7 10 -15 7 -18z m-48 -50 c0 -5 -5 -3
-10 5 -5 8 -10 20 -10 25 0 6 5 3 10 -5 5 -8 10 -19 10 -25z m-30 3 c0 -6 -6
-5 -15 2 -8 7 -15 14 -15 16 0 2 7 1 15 -2 8 -4 15 -11 15 -16z m1049 12 c10
-5 21 -16 25 -25 4 -11 -3 -9 -24 7 -39 29 -40 39 -1 18z m-40 -64 c-2 -2 -13
8 -23 22 l-19 27 24 -22 c12 -12 21 -24 18 -27z m-956 -16 c3 -11 1 -20 -4
-20 -5 0 -9 4 -9 9 0 5 -3 17 -7 27 -4 11 -3 15 4 11 6 -4 13 -16 16 -27z
m1001 4 c3 -8 2 -12 -4 -9 -6 3 -10 10 -10 16 0 14 7 11 14 -7z m-2217 -31
c-3 -10 -5 -4 -5 12 0 17 2 24 5 18 2 -7 2 -21 0 -30z m2334 -4 c16 -23 19
-33 10 -42 -8 -8 -11 -5 -11 13 0 13 -3 20 -7 17 -9 -9 -44 23 -37 34 9 16 22
10 45 -22z m-143 -24 c-3 -3 -9 2 -12 12 -6 14 -5 15 5 6 7 -7 10 -15 7 -18z
m-20 -21 c-4 -3 -12 5 -18 18 -12 22 -12 22 6 6 10 -10 15 -20 12 -24z m427
-34 c38 -38 64 -70 57 -70 -12 0 -109 97 -125 126 -14 25 -3 16 68 -56z m-306
34 c-14 -18 -24 -11 -15 11 3 9 11 13 16 10 8 -5 7 -11 -1 -21z m-150 -39 c0
-5 -6 1 -14 15 -8 14 -14 30 -14 35 0 6 6 -1 14 -15 8 -14 14 -29 14 -35z
m114 40 c-3 -9 -8 -14 -10 -11 -3 3 -2 9 2 15 9 16 15 13 8 -4z m-472 -18
c-10 -9 -11 -8 -5 6 3 10 9 15 12 12 3 -3 0 -11 -7 -18z m599 -15 c-1 -25 -2
-26 -15 -9 -7 11 -11 25 -8 33 8 22 23 6 23 -24z m175 -60 c-7 -7 -32 16 -67
62 -31 41 -31 41 20 -8 28 -28 50 -52 47 -54z m-227 55 c3 -23 -1 -27 -21 -27
-34 0 -39 9 -19 36 21 29 36 26 40 -9z m272 -55 c0 -10 -20 7 -55 48 l-39 45
47 -45 c26 -24 47 -46 47 -48z m-350 47 c0 -12 -27 -11 -35 1 -11 17 5 32 21
19 8 -6 14 -15 14 -20z m110 -14 c10 -12 10 -15 -4 -15 -9 0 -16 7 -16 15 0 8
2 15 4 15 2 0 9 -7 16 -15z m70 -5 c9 -16 8 -20 -5 -20 -8 0 -15 9 -15 20 0
11 2 20 5 20 2 0 9 -9 15 -20z m-1659 -17 c13 -16 12 -17 -3 -4 -10 7 -18 15
-18 17 0 8 8 3 21 -13z m2144 -114 c42 -11 109 -48 102 -56 -4 -4 -157 54
-166 63 -8 7 23 4 64 -7z m-1911 -22 c17 -12 17 -14 3 -20 -11 -4 -21 1 -27
13 -12 23 -2 26 24 7z m756 -17 c-9 -6 -17 -5 -22 3 -9 15 14 29 27 16 6 -6 5
-13 -5 -19z m-50 -4 c0 -8 -7 -17 -16 -20 -30 -11 -37 -6 -19 14 21 23 35 26
35 6z m-895 -16 c3 -5 1 -10 -4 -10 -6 0 -11 5 -11 10 0 6 2 10 4 10 3 0 8 -4
11 -10z m1241 -16 c-4 -9 -9 -15 -11 -12 -3 3 -3 13 1 22 4 9 9 15 11 12 3 -3
3 -13 -1 -22z m-296 -4 c0 -5 -2 -10 -4 -10 -3 0 -8 5 -11 10 -3 6 -1 10 4 10
6 0 11 -4 11 -10z m-1373 -62 c-3 -8 -6 -5 -6 6 -1 11 2 17 5 13 3 -3 4 -12 1
-19z m577 7 c3 -8 1 -15 -4 -15 -6 0 -10 7 -10 15 0 8 2 15 4 15 2 0 6 -7 10
-15z m1412 -52 c-14 -14 -27 15 -20 43 l8 29 9 -33 c6 -18 7 -35 3 -39z m91
-20 c-2 -16 -4 -3 -4 27 0 30 2 43 4 28 2 -16 2 -40 0 -55z m-1534 60 c-7 -2
-19 -2 -25 0 -7 3 -2 5 12 5 14 0 19 -2 13 -5z m-1012 -56 c-13 -13 -15 11 -4
40 7 16 8 15 11 -6 2 -13 -1 -28 -7 -34z m2519 12 c0 -17 -4 -28 -10 -24 -5 3
-10 17 -10 31 0 13 5 24 10 24 6 0 10 -14 10 -31z m-2094 -16 c-4 -4 -11 -1
-16 7 -16 25 -11 35 7 17 9 -9 13 -20 9 -24z m572 -8 c10 -21 9 -26 -8 -35
-28 -15 -30 -13 -30 25 0 42 21 47 38 10z m67 6 c7 -12 -31 -25 -45 -16 -5 3
-10 10 -10 16 0 12 47 12 55 0z m880 -1 c3 -5 -1 -10 -9 -10 -8 0 -18 5 -21
10 -3 6 1 10 9 10 8 0 18 -4 21 -10z m-1865 -10 c0 -5 -5 -10 -11 -10 -5 0 -7
5 -4 10 3 6 8 10 11 10 2 0 4 -4 4 -10z m832 -12 c-7 -7 -12 -8 -12 -2 0 14
12 26 19 19 2 -3 -1 -11 -7 -17z m-638 3 c3 -5 -1 -14 -8 -20 -12 -10 -13 -8
-9 8 6 23 9 25 17 12z m1666 -5 c0 -2 -7 -6 -15 -10 -8 -3 -15 -1 -15 4 0 6 7
10 15 10 8 0 15 -2 15 -4z m-790 -10 c0 -2 3 -11 6 -20 5 -14 -3 -16 -57 -15
l-64 1 40 19 c37 17 75 25 75 15z m1867 -28 c-3 -8 -6 -5 -6 6 -1 11 2 17 5
13 3 -3 4 -12 1 -19z m-3043 -3 c-6 -16 -24 -21 -24 -7 0 11 11 22 21 22 5 0
6 -7 3 -15z m43 -17 c-3 -8 -6 -5 -6 6 -1 11 2 17 5 13 3 -3 4 -12 1 -19z
m2730 -20 c-3 -7 -5 -2 -5 12 0 14 2 19 5 13 2 -7 2 -19 0 -25z m-2681 -6
c-18 -16 -18 -16 -6 6 6 13 14 21 18 18 3 -4 -2 -14 -12 -24z m1028 3 c-4 -8
-7 -15 -9 -15 -2 0 -5 7 -9 15 -3 9 0 15 9 15 9 0 12 -6 9 -15z m46 -4 c0 -5
-7 -14 -15 -21 -12 -10 -15 -10 -15 2 0 8 3 18 7 21 9 10 23 9 23 -2z m-1275
-79 c-72 -70 -63 -52 14 30 25 26 47 45 50 42 3 -2 -26 -35 -64 -72z m1305 68
c0 -5 -5 -10 -11 -10 -5 0 -7 5 -4 10 3 6 8 10 11 10 2 0 4 -4 4 -10z m540
-21 c-12 -21 -31 -22 -37 -2 -2 6 6 13 19 16 13 2 24 5 26 6 1 0 -2 -8 -8 -20z
m29 -10 c-16 -10 -23 -4 -14 10 3 6 11 8 17 5 6 -4 5 -9 -3 -15z m-991 -14
c-3 -3 -9 2 -12 12 -6 14 -5 15 5 6 7 -7 10 -15 7 -18z m402 -6 c0 -6 -4 -7
-10 -4 -5 3 -10 11 -10 16 0 6 5 7 10 4 6 -3 10 -11 10 -16z m30 12 c0 -6 -4
-13 -10 -16 -5 -3 -10 1 -10 9 0 9 5 16 10 16 6 0 10 -4 10 -9z m570 -21 c-24
-19 -40 -25 -40 -15 0 5 51 34 60 34 3 0 -6 -8 -20 -19z m-735 -10 c10 -11 16
-20 13 -20 -3 0 -13 9 -23 20 -10 11 -16 20 -13 20 3 0 13 -9 23 -20z m-26
-20 c11 -24 11 -24 -3 -6 -9 11 -16 24 -16 30 0 12 5 7 19 -24z m1036 -30
c-16 -16 -31 -28 -34 -25 -2 3 8 19 24 35 16 16 31 28 34 25 2 -3 -8 -19 -24
-35z m-1033 -35 c10 -18 10 -19 -6 -6 -10 8 -24 28 -32 45 l-15 31 21 -25 c11
-14 26 -34 32 -45z m778 62 c0 -2 -18 -21 -40 -42 -26 -26 -40 -34 -40 -23 0
8 17 27 38 41 39 27 42 29 42 24z m-870 -87 c6 -11 8 -20 6 -20 -3 0 -10 9
-16 20 -6 11 -8 20 -6 20 3 0 10 -9 16 -20z m830 6 c0 -2 -8 -10 -17 -17 -16
-13 -17 -12 -4 4 13 16 21 21 21 13z m30 -21 c-13 -14 -28 -25 -33 -25 -6 0 0
11 13 25 13 14 28 25 33 25 6 0 0 -11 -13 -25z m251 -2 c-12 -20 -14 -14 -5
12 4 9 9 14 11 11 3 -2 0 -13 -6 -23z m89 24 c0 -2 -17 -19 -37 -38 l-38 -34
34 38 c33 34 41 42 41 34z m-2763 -29 c-3 -8 -6 -5 -6 6 -1 11 2 17 5 13 3 -3
4 -12 1 -19z m1813 18 c0 -3 -4 -8 -10 -11 -5 -3 -10 -1 -10 4 0 6 5 11 10 11
6 0 10 -2 10 -4z m953 -51 c-20 -25 -42 -45 -47 -45 -6 0 10 20 34 45 24 25
46 45 48 45 1 0 -14 -20 -35 -45z m684 13 c-3 -7 -5 -2 -5 12 0 14 2 19 5 13
2 -7 2 -19 0 -25z m-1817 -21 c0 -16 -18 3 -23 25 -6 22 -5 22 8 4 8 -11 15
-24 15 -29z m1827 -19 c-3 -8 -6 -5 -6 6 -1 11 2 17 5 13 3 -3 4 -12 1 -19z
m-1852 -8 c3 -5 1 -10 -4 -10 -6 0 -11 5 -11 10 0 6 2 10 4 10 3 0 8 -4 11
-10z m875 -15 c-7 -8 -18 -15 -24 -15 -6 0 -2 7 8 15 25 19 32 19 16 0z
m-1059 -41 c12 -25 19 -47 17 -50 -2 -2 -14 19 -25 46 -12 28 -19 50 -17 50 3
0 14 -21 25 -46z m1099 30 c-17 -19 -50 -37 -50 -27 0 4 12 15 28 25 35 21 37
21 22 2z m540 12 c0 -2 -8 -10 -17 -17 -16 -13 -17 -12 -4 4 13 16 21 21 21
13z m317 -18 c-3 -8 -6 -5 -6 6 -1 11 2 17 5 13 3 -3 4 -12 1 -19z m90 -15
c-3 -10 -5 -4 -5 12 0 17 2 24 5 18 2 -7 2 -21 0 -30z m-1210 5 c-3 -8 -6 -5
-6 6 -1 11 2 17 5 13 3 -3 4 -12 1 -19z m303 19 c0 -2 -17 -19 -37 -38 l-38
-34 34 38 c33 34 41 42 41 34z m-1094 -58 c14 -28 23 -54 20 -57 -9 -8 -12 -2
-35 56 -26 66 -19 67 15 1z m164 35 c0 -8 -5 -12 -10 -9 -6 4 -8 11 -5 16 9
14 15 11 15 -7z m697 -16 c-3 -8 -6 -5 -6 6 -1 11 2 17 5 13 3 -3 4 -12 1 -19z
m-777 -23 c0 -5 -5 -3 -10 5 -5 8 -10 20 -10 25 0 6 5 3 10 -5 5 -8 10 -19 10
-25z m1977 13 c-3 -8 -6 -5 -6 6 -1 11 2 17 5 13 3 -3 4 -12 1 -19z m-2123
-55 c15 -31 24 -58 21 -61 -3 -3 -7 -3 -9 -1 -7 8 -46 119 -42 119 3 0 16 -25
30 -57z m-1433 -16 c-13 -13 -14 5 -3 43 l7 25 3 -29 c2 -16 -1 -33 -7 -39z
m796 41 c-3 -8 -6 -5 -6 6 -1 11 2 17 5 13 3 -3 4 -12 1 -19z m-30 -45 c-3
-10 -5 -4 -5 12 0 17 2 24 5 18 2 -7 2 -21 0 -30z m2890 -40 c-3 -10 -5 -2 -5
17 0 19 2 27 5 18 2 -10 2 -26 0 -35z m-2238 -23 c0 -10 -3 -8 -9 5 -12 27
-12 43 0 25 5 -8 9 -22 9 -30z m2188 3 c-3 -10 -5 -4 -5 12 0 17 2 24 5 18 2
-7 2 -21 0 -30z m-2980 5 c-3 -8 -6 -5 -6 6 -1 11 2 17 5 13 3 -3 4 -12 1 -19z
m-770 -20 c-3 -7 -5 -2 -5 12 0 14 2 19 5 13 2 -7 2 -19 0 -25z m790 -10 c-3
-7 -5 -2 -5 12 0 14 2 19 5 13 2 -7 2 -19 0 -25z m-824 2 c-3 -12 -8 -19 -11
-16 -5 6 5 36 12 36 2 0 2 -9 -1 -20z m3934 -27 c-3 -10 -5 -4 -5 12 0 17 2
24 5 18 2 -7 2 -21 0 -30z m-3250 -15 c-3 -7 -5 -2 -5 12 0 14 2 19 5 13 2 -7
2 -19 0 -25z m220 0 c-3 -7 -5 -2 -5 12 0 14 2 19 5 13 2 -7 2 -19 0 -25z
m-160 -10 c-3 -7 -5 -2 -5 12 0 14 2 19 5 13 2 -7 2 -19 0 -25z m3796 -69 c37
-33 77 -75 89 -92 12 -18 -19 6 -68 53 -49 46 -93 88 -98 92 -6 5 -6 8 1 8 5
0 40 -27 76 -61z m-3826 19 c-3 -8 -6 -5 -6 6 -1 11 2 17 5 13 3 -3 4 -12 1
-19z m40 -20 c-3 -7 -5 -2 -5 12 0 14 2 19 5 13 2 -7 2 -19 0 -25z m-70 -30
c-3 -8 -6 -5 -6 6 -1 11 2 17 5 13 3 -3 4 -12 1 -19z m20 -10 c-3 -7 -5 -2 -5
12 0 14 2 19 5 13 2 -7 2 -19 0 -25z m3272 -33 c0 -5 -6 1 -14 15 -8 14 -14
30 -14 35 0 6 6 -1 14 -15 8 -14 14 -29 14 -35z m-9 -49 c-1 -19 -29 38 -29
59 0 14 4 10 14 -14 8 -18 15 -38 15 -45z m-1836 31 c25 -61 26 -83 2 -32 -25
51 -30 65 -21 65 3 0 11 -15 19 -33z m526 -47 c-33 -44 -63 -80 -66 -80 -3 0
-2 6 2 13 13 21 116 147 121 147 2 0 -24 -36 -57 -80z m-2253 48 c-3 -8 -6 -5
-6 6 -1 11 2 17 5 13 3 -3 4 -12 1 -19z m1773 7 c7 -9 8 -15 2 -15 -5 0 -12 7
-16 15 -3 8 -4 15 -2 15 2 0 9 -7 16 -15z m-1683 -27 c-3 -7 -5 -2 -5 12 0 14
2 19 5 13 2 -7 2 -19 0 -25z m3536 -38 c4 -30 3 -38 -3 -25 -8 19 -14 83 -6
74 2 -2 6 -24 9 -49z m621 1 c-3 -3 -15 6 -27 18 l-22 24 27 -19 c14 -10 24
-21 22 -23z m-431 -31 c3 -11 1 -18 -4 -14 -5 3 -9 12 -9 20 0 20 7 17 13 -6z
m54 -12 c-3 -8 -6 -5 -6 6 -1 11 2 17 5 13 3 -3 4 -12 1 -19z m-2229 -13 c-3
-3 -9 2 -12 12 -6 14 -5 15 5 6 7 -7 10 -15 7 -18z m2182 -55 c0 -8 -7 -2 -15
14 -8 15 -15 33 -15 40 1 16 29 -36 30 -54z m-3913 3 c-3 -10 -5 -2 -5 17 0
19 2 27 5 18 2 -10 2 -26 0 -35z m4020 5 c-3 -8 -6 -5 -6 6 -1 11 2 17 5 13 3
-3 4 -12 1 -19z m-120 -50 c-3 -8 -6 -5 -6 6 -1 11 2 17 5 13 3 -3 4 -12 1
-19z m150 -10 c-3 -8 -6 -5 -6 6 -1 11 2 17 5 13 3 -3 4 -12 1 -19z m-77 -47
c0 -11 -4 -10 -15 5 -8 10 -14 26 -14 34 0 11 3 10 14 -4 8 -11 15 -27 15 -35z
m117 -3 c-3 -8 -6 -5 -6 6 -1 11 2 17 5 13 3 -3 4 -12 1 -19z m30 -100 c-3 -8
-6 -5 -6 6 -1 11 2 17 5 13 3 -3 4 -12 1 -19z"/>
<path d="M3210 8785 c-7 -8 -9 -15 -5 -15 4 0 1 -8 -6 -17 -13 -16 -12 -17 4
-4 9 8 15 16 12 19 -3 3 0 11 6 19 6 7 9 13 6 13 -2 0 -10 -7 -17 -15z"/>
<path d="M3196 8722 c2 -3 -1 -11 -7 -18 -7 -8 -7 -14 1 -19 6 -3 7 -12 3 -18
-4 -8 -1 -7 9 1 17 14 18 37 1 51 -5 5 -8 6 -7 3z m11 -27 c0 -8 -4 -12 -9 -9
-5 3 -6 10 -3 15 9 13 12 11 12 -6z"/>
<path d="M3149 8593 c-13 -16 -12 -17 4 -4 16 13 21 21 13 21 -2 0 -10 -8 -17
-17z"/>
<path d="M1561 7683 c-1 -6 -4 -20 -7 -30 -5 -17 -5 -17 6 0 6 10 9 23 6 30
-3 9 -5 9 -5 0z"/>
<path d="M901 7306 c-13 -13 -18 -26 -13 -30 5 -3 19 5 31 18 13 13 18 26 13
30 -5 3 -19 -5 -31 -18z m29 11 c0 -2 -10 -12 -22 -23 l-23 -19 19 23 c18 21
26 27 26 19z"/>
<path d="M2561 9464 c0 -11 3 -14 6 -6 3 7 2 16 -1 19 -3 4 -6 -2 -5 -13z"/>
<path d="M2831 9444 c0 -11 3 -14 6 -6 3 7 2 16 -1 19 -3 4 -6 -2 -5 -13z"/>
<path d="M2976 9187 c3 -10 9 -15 12 -12 3 3 0 11 -7 18 -10 9 -11 8 -5 -6z"/>
<path d="M3204 8978 l-19 -23 23 19 c21 18 27 26 19 26 -2 0 -12 -10 -23 -22z"/>
<path d="M1338 8913 c22 -27 55 -61 73 -78 18 -16 2 5 -35 48 -75 84 -102 106
-38 30z"/>
<path d="M1531 8870 c12 -22 25 -38 27 -35 5 4 -37 75 -44 75 -3 0 5 -18 17
-40z"/>
<path d="M1310 8836 c0 -2 7 -7 16 -10 8 -3 12 -2 9 4 -6 10 -25 14 -25 6z"/>
<path d="M1951 8824 c0 -11 3 -14 6 -6 3 7 2 16 -1 19 -3 4 -6 -2 -5 -13z"/>
<path d="M1871 8814 c0 -11 3 -14 6 -6 3 7 2 16 -1 19 -3 4 -6 -2 -5 -13z"/>
<path d="M1932 8810 c0 -14 2 -19 5 -12 2 6 2 18 0 25 -3 6 -5 1 -5 -13z"/>
<path d="M3269 8818 c-5 -18 -6 -38 -1 -34 7 8 12 36 6 36 -2 0 -4 -1 -5 -2z"/>
<path d="M1068 8783 c7 -3 16 -2 19 1 4 3 -2 6 -13 5 -11 0 -14 -3 -6 -6z"/>
<path d="M1090 8770 c-18 -12 -2 -12 25 0 13 6 15 9 5 9 -8 0 -22 -4 -30 -9z"/>
<path d="M4289 8753 l-24 -28 28 24 c25 23 32 31 24 31 -2 0 -14 -12 -28 -27z"/>
<path d="M4560 8672 c8 -5 26 -13 40 -16 17 -5 20 -4 10 2 -8 5 -26 13 -40 16
-17 5 -20 4 -10 -2z"/>
<path d="M3345 8440 c-3 -6 1 -7 9 -4 18 7 21 14 7 14 -6 0 -13 -4 -16 -10z"/>
<path d="M1308 8413 c7 -3 16 -2 19 1 4 3 -2 6 -13 5 -11 0 -14 -3 -6 -6z"/>
<path d="M1317 8059 c12 -12 25 -20 28 -17 3 3 -7 13 -22 23 l-28 17 22 -23z"/>
<path d="M1280 8051 c24 -20 40 -26 40 -16 0 2 -15 12 -32 20 l-33 16 25 -20z"/>
<path d="M1118 7863 c6 -2 18 -2 25 0 6 3 1 5 -13 5 -14 0 -19 -2 -12 -5z"/>
<path d="M1143 7823 c9 -2 25 -2 35 0 9 3 1 5 -18 5 -19 0 -27 -2 -17 -5z"/>
<path d="M178 7633 c7 -3 16 -2 19 1 4 3 -2 6 -13 5 -11 0 -14 -3 -6 -6z"/>
<path d="M218 7523 c6 -2 18 -2 25 0 6 3 1 5 -13 5 -14 0 -19 -2 -12 -5z"/>
<path d="M193 7503 c15 -2 37 -2 50 0 12 2 0 4 -28 4 -27 0 -38 -2 -22 -4z"/>
<path d="M218 7473 c6 -2 18 -2 25 0 6 3 1 5 -13 5 -14 0 -19 -2 -12 -5z"/>
<path d="M3280 7473 c0 -5 10 -19 21 -33 l20 -25 -16 33 c-15 30 -25 41 -25
25z"/>
<path d="M168 7463 c7 -3 16 -2 19 1 4 3 -2 6 -13 5 -11 0 -14 -3 -6 -6z"/>
<path d="M98 7423 c7 -3 16 -2 19 1 4 3 -2 6 -13 5 -11 0 -14 -3 -6 -6z"/>
<path d="M196 7421 c-19 -7 -19 -8 2 -13 31 -8 68 2 50 13 -15 10 -26 10 -52
0z"/>
<path d="M4062 7390 c0 -8 6 -31 13 -50 7 -19 13 -28 13 -20 0 8 -6 31 -13 50
-7 19 -13 28 -13 20z"/>
<path d="M4001 7374 c0 -11 3 -14 6 -6 3 7 2 16 -1 19 -3 4 -6 -2 -5 -13z"/>
<path d="M4021 7374 c0 -11 3 -14 6 -6 3 7 2 16 -1 19 -3 4 -6 -2 -5 -13z"/>
<path d="M130 7350 c-8 -5 -10 -10 -5 -10 6 0 17 5 25 10 8 5 11 10 5 10 -5 0
-17 -5 -25 -10z"/>
<path d="M153 7338 c-21 -10 -22 -12 -5 -25 16 -14 16 -14 -1 -9 -12 4 -16 2
-11 -6 5 -8 2 -9 -10 -5 -11 5 -15 3 -10 -5 5 -7 2 -9 -9 -5 -12 4 -15 1 -12
-14 3 -14 0 -19 -9 -16 -7 3 -13 -1 -13 -9 0 -9 18 -4 59 19 57 31 58 32 38
46 l-22 14 24 13 c28 16 12 17 -19 2z m-17 -63 c-11 -8 -25 -15 -30 -15 -6 1
0 7 14 15 32 19 40 18 16 0z"/>
<path d="M4011 7334 c0 -11 3 -14 6 -6 3 7 2 16 -1 19 -3 4 -6 -2 -5 -13z"/>
<path d="M4031 7334 c0 -11 3 -14 6 -6 3 7 2 16 -1 19 -3 4 -6 -2 -5 -13z"/>
<path d="M3802 7310 c0 -14 2 -19 5 -12 2 6 2 18 0 25 -3 6 -5 1 -5 -13z"/>
<path d="M3936 7288 c-10 -21 -16 -42 -12 -45 7 -7 39 65 34 77 -2 4 -11 -10
-22 -32z"/>
<path d="M975 7290 c-4 -6 -10 -8 -14 -6 -4 3 -23 -11 -42 -31 -31 -32 -31
-34 -6 -18 15 9 27 22 27 27 0 5 5 6 11 3 7 -5 3 -15 -10 -29 -17 -18 -18 -23
-6 -23 8 0 13 3 10 5 -6 7 15 32 27 32 5 0 6 -6 2 -12 -4 -7 5 -2 19 11 32 29
32 28 8 41 -14 7 -22 7 -26 0z m15 -4 c0 -2 -6 -9 -14 -15 -11 -9 -16 -9 -22
0 -4 7 -3 9 4 5 6 -3 13 -2 17 4 6 10 15 14 15 6z m20 -10 c0 -2 -8 -10 -17
-17 -16 -13 -17 -12 -4 4 13 16 21 21 21 13z"/>
<path d="M4731 7284 c0 -11 3 -14 6 -6 3 7 2 16 -1 19 -3 4 -6 -2 -5 -13z"/>
<path d="M1129 7273 c-13 -16 -12 -17 4 -4 16 13 21 21 13 21 -2 0 -10 -8 -17
-17z"/>
<path d="M3961 7274 c0 -11 3 -14 6 -6 3 7 2 16 -1 19 -3 4 -6 -2 -5 -13z"/>
<path d="M657 7246 c-4 -10 -1 -13 8 -9 8 3 12 9 9 14 -7 12 -11 11 -17 -5z"/>
<path d="M692 7235 c4 -4 3 -16 -3 -26 -5 -11 -7 -19 -5 -19 3 0 10 9 16 19 7
15 7 22 -2 27 -7 4 -10 4 -6 -1z"/>
<path d="M500 7210 c0 -5 5 -10 11 -10 5 0 7 5 4 10 -3 6 -8 10 -11 10 -2 0
-4 -4 -4 -10z"/>
<path d="M4151 7184 c0 -11 3 -14 6 -6 3 7 2 16 -1 19 -3 4 -6 -2 -5 -13z"/>
<path d="M69 7173 c-13 -16 -12 -17 4 -4 9 7 17 15 17 17 0 8 -8 3 -21 -13z"/>
<path d="M550 7180 c0 -5 5 -10 11 -10 5 0 7 5 4 10 -3 6 -8 10 -11 10 -2 0
-4 -4 -4 -10z"/>
<path d="M1492 7070 c0 -14 2 -19 5 -12 2 6 2 18 0 25 -3 6 -5 1 -5 -13z"/>
<path d="M2082 7000 c0 -14 2 -19 5 -12 2 6 2 18 0 25 -3 6 -5 1 -5 -13z"/>
<path d="M1892 6980 c0 -14 2 -19 5 -12 2 6 2 18 0 25 -3 6 -5 1 -5 -13z"/>
<path d="M1611 6964 c0 -11 3 -14 6 -6 3 7 2 16 -1 19 -3 4 -6 -2 -5 -13z"/>
<path d="M1841 6954 c0 -11 3 -14 6 -6 3 7 2 16 -1 19 -3 4 -6 -2 -5 -13z"/>
<path d="M1972 6945 c0 -16 2 -22 5 -12 2 9 2 23 0 30 -3 6 -5 -1 -5 -18z"/>
<path d="M1402 6855 c0 -16 2 -22 5 -12 2 9 2 23 0 30 -3 6 -5 -1 -5 -18z"/>
<path d="M3783 6118 c-42 -55 -65 -88 -60 -88 8 0 79 91 75 96 -3 2 -10 -1
-15 -8z"/>
<path d="M4082 6035 c-1 -11 3 -38 7 -60 7 -34 9 -35 9 -10 0 35 -15 101 -16
70z"/>
<path d="M3699 6003 c-13 -16 -12 -17 4 -4 9 7 17 15 17 17 0 8 -8 3 -21 -13z"/>
<path d="M3534 5988 l-19 -23 23 19 c21 18 27 26 19 26 -2 0 -12 -10 -23 -22z"/>
<path d="M4071 5974 c0 -11 3 -14 6 -6 3 7 2 16 -1 19 -3 4 -6 -2 -5 -13z"/>
<path d="M3961 5914 c0 -11 3 -14 6 -6 3 7 2 16 -1 19 -3 4 -6 -2 -5 -13z"/>
<path d="M4081 5914 c0 -11 3 -14 6 -6 3 7 2 16 -1 19 -3 4 -6 -2 -5 -13z"/>
<path d="M4102 5905 c0 -16 2 -22 5 -12 2 9 2 23 0 30 -3 6 -5 -1 -5 -18z"/>
<path d="M2882 5870 c0 -14 2 -19 5 -12 2 6 2 18 0 25 -3 6 -5 1 -5 -13z"/>
<path d="M2831 5844 c0 -11 3 -14 6 -6 3 7 2 16 -1 19 -3 4 -6 -2 -5 -13z"/>
<path d="M4131 5814 c0 -11 3 -14 6 -6 3 7 2 16 -1 19 -3 4 -6 -2 -5 -13z"/>
<path d="M4202 5810 c0 -14 2 -19 5 -12 2 6 2 18 0 25 -3 6 -5 1 -5 -13z"/>
<path d="M452 5780 c0 -14 2 -19 5 -12 2 6 2 18 0 25 -3 6 -5 1 -5 -13z"/>
<path d="M3806 5775 c-9 -26 -7 -32 5 -12 6 10 9 21 6 23 -2 3 -7 -2 -11 -11z"/>
<path d="M4242 5770 c0 -14 2 -19 5 -12 2 6 2 18 0 25 -3 6 -5 1 -5 -13z"/>
<path d="M501 5764 c0 -11 3 -14 6 -6 3 7 2 16 -1 19 -3 4 -6 -2 -5 -13z"/>
<path d="M1332 5720 c0 -14 2 -19 5 -12 2 6 2 18 0 25 -3 6 -5 1 -5 -13z"/>
<path d="M431 5654 c0 -11 3 -14 6 -6 3 7 2 16 -1 19 -3 4 -6 -2 -5 -13z"/>
<path d="M4331 5644 c0 -11 3 -14 6 -6 3 7 2 16 -1 19 -3 4 -6 -2 -5 -13z"/>
<path d="M1001 5614 c0 -11 3 -14 6 -6 3 7 2 16 -1 19 -3 4 -6 -2 -5 -13z"/>
<path d="M4432 5585 c0 -11 4 -33 8 -50 7 -27 8 -27 8 -5 0 14 -4 36 -8 50 -6
20 -8 21 -8 5z"/>
<path d="M211 5544 c0 -11 3 -14 6 -6 3 7 2 16 -1 19 -3 4 -6 -2 -5 -13z"/>
<path d="M495 5550 c-3 -5 -2 -10 4 -10 5 0 13 5 16 10 3 6 2 10 -4 10 -5 0
-13 -4 -16 -10z"/>
<path d="M811 5484 c0 -11 3 -14 6 -6 3 7 2 16 -1 19 -3 4 -6 -2 -5 -13z"/>
<path d="M5120 5487 c0 -3 17 -17 38 -33 30 -23 33 -24 17 -5 -19 22 -55 46
-55 38z"/>
<path d="M5144 5442 c8 -13 66 -56 66 -49 0 3 -17 17 -37 33 -20 15 -33 23
-29 16z"/>
<path d="M5200 5426 c0 -2 8 -10 18 -17 15 -13 16 -12 3 4 -13 16 -21 21 -21
13z"/>
<path d="M4680 5371 c0 -6 4 -13 10 -16 6 -3 7 1 4 9 -7 18 -14 21 -14 7z"/>
<path d="M4740 5344 c0 -5 7 -19 15 -30 8 -10 15 -14 15 -8 0 5 -7 19 -15 30
-8 10 -15 14 -15 8z"/>
<path d="M4736 5300 c3 -14 10 -29 15 -34 14 -16 10 6 -7 34 l-15 25 7 -25z"/>
<path d="M4781 5310 c0 -8 6 -26 15 -40 l15 -25 -7 25 c-3 14 -10 32 -15 40
-7 13 -8 13 -8 0z"/>
<path d="M4770 5268 c0 -9 5 -20 10 -23 13 -8 13 5 0 25 -8 13 -10 13 -10 -2z"/>
<path d="M4857 5159 c4 -13 8 -18 11 -10 2 7 -1 18 -6 23 -8 8 -9 4 -5 -13z"/>
<path d="M4925 5138 c4 -13 11 -27 16 -33 5 -5 4 5 -2 23 -12 36 -24 44 -14
10z"/>
<path d="M4880 5145 c0 -5 5 -17 10 -25 5 -8 10 -10 10 -5 0 6 -5 17 -10 25
-5 8 -10 11 -10 5z"/>
<path d="M321 4924 c0 -11 3 -14 6 -6 3 7 2 16 -1 19 -3 4 -6 -2 -5 -13z"/>
</g>
</svg>
